<?xml version="1.0" encoding="UTF-8" standalone="no"?>
<!DOCTYPE svg PUBLIC "-//W3C//DTD SVG 1.1//EN" "http://www.w3.org/Graphics/SVG/1.1/DTD/svg11.dtd">
<!-- Created with Vectornator (http://vectornator.io/) -->
<svg height="100%" stroke-miterlimit="10" style="fill-rule:nonzero;clip-rule:evenodd;stroke-linecap:round;stroke-linejoin:round;" version="1.1" viewBox="0 0 1536 180" width="100%" xml:space="preserve" xmlns="http://www.w3.org/2000/svg" xmlns:vectornator="http://vectornator.io" xmlns:xlink="http://www.w3.org/1999/xlink">
<defs>
<linearGradient gradientTransform="matrix(-1.37764e-16 0.749954 -0.749954 -1.37764e-16 179.989 1.42083e-14)" gradientUnits="userSpaceOnUse" id="LinearGradient" x1="0" x2="240" y1="120" y2="120">
<stop offset="0.430596" stop-color="#28597c"/>
<stop offset="1" stop-color="#0e3b5b"/>
</linearGradient>
</defs>
<g id="text" vectornator:layerName="text">
<path d="M0 0L1536 0L1536 180L0 180L0 0Z" fill="#e1f2ff" fill-rule="nonzero" opacity="1" stroke="none" vectornator:layerName="Rectangle 1"/>
<g fill="#1e4d70" opacity="1" stroke="none" vectornator:layerName="Text 1">
<path d="M257.73 81.9271C256.13 80.4071 254.25 79.1271 252.09 78.0871C249.93 77.0471 247.65 76.5271 245.25 76.5271C243.41 76.5271 241.71 76.8871 240.15 77.6071C238.59 78.3271 237.81 79.5671 237.81 81.3271C237.81 83.0071 238.67 84.2071 240.39 84.9271C242.11 85.6471 244.89 86.4471 248.73 87.3271C250.97 87.8071 253.23 88.4871 255.51 89.3671C257.79 90.2471 259.85 91.4071 261.69 92.8471C263.53 94.2871 265.01 96.0471 266.13 98.1271C267.25 100.207 267.81 102.687 267.81 105.567C267.81 109.327 267.05 112.507 265.53 115.107C264.01 117.707 262.03 119.807 259.59 121.407C257.15 123.007 254.41 124.167 251.37 124.887C248.33 125.607 245.29 125.967 242.25 125.967C237.37 125.967 232.59 125.187 227.91 123.627C223.23 122.067 219.33 119.767 216.21 116.727L227.25 105.087C229.01 107.007 231.17 108.607 233.73 109.887C236.29 111.167 239.01 111.807 241.89 111.807C243.49 111.807 245.07 111.427 246.63 110.667C248.19 109.907 248.97 108.567 248.97 106.647C248.97 104.807 248.01 103.447 246.09 102.567C244.17 101.687 241.17 100.767 237.09 99.8071C235.01 99.3271 232.93 98.6871 230.85 97.8871C228.77 97.0871 226.91 96.0071 225.27 94.6471C223.63 93.2871 222.29 91.6071 221.25 89.6071C220.21 87.6071 219.69 85.2071 219.69 82.4071C219.69 78.8071 220.45 75.7471 221.97 73.2271C223.49 70.7071 225.45 68.6471 227.85 67.0471C230.25 65.4471 232.91 64.2671 235.83 63.5071C238.75 62.7471 241.65 62.3671 244.53 62.3671C249.01 62.3671 253.39 63.0671 257.67 64.4671C261.95 65.8671 265.57 67.9671 268.53 70.7671L257.73 81.9271Z"/>
<path d="M300.57 79.0471L300.57 101.847C300.57 104.647 301.11 106.747 302.19 108.147C303.27 109.547 305.21 110.247 308.01 110.247C308.97 110.247 309.99 110.167 311.07 110.007C312.15 109.847 313.05 109.607 313.77 109.287L314.01 123.687C312.65 124.167 310.93 124.587 308.85 124.947C306.77 125.307 304.69 125.487 302.61 125.487C298.61 125.487 295.25 124.987 292.53 123.987C289.81 122.987 287.63 121.547 285.99 119.667C284.35 117.787 283.17 115.547 282.45 112.947C281.73 110.347 281.37 107.447 281.37 104.247L281.37 79.0471L271.77 79.0471L271.77 64.2871L281.25 64.2871L281.25 48.5671L300.57 48.5671L300.57 64.2871L314.61 64.2871L314.61 79.0471L300.57 79.0471Z"/>
<path d="M359.13 98.0071L356.61 98.0071C354.45 98.0071 352.27 98.1071 350.07 98.3071C347.87 98.5071 345.91 98.8871 344.19 99.4471C342.47 100.007 341.05 100.827 339.93 101.907C338.81 102.987 338.25 104.407 338.25 106.167C338.25 107.287 338.51 108.247 339.03 109.047C339.55 109.847 340.21 110.487 341.01 110.967C341.81 111.447 342.73 111.787 343.77 111.987C344.81 112.187 345.81 112.287 346.77 112.287C350.77 112.287 353.83 111.187 355.95 108.987C358.07 106.787 359.13 103.807 359.13 100.047L359.13 98.0071ZM323.01 72.4471C326.53 69.0871 330.63 66.5671 335.31 64.8871C339.99 63.2071 344.77 62.3671 349.65 62.3671C354.69 62.3671 358.95 62.9871 362.43 64.2271C365.91 65.4671 368.73 67.3871 370.89 69.9871C373.05 72.5871 374.63 75.8671 375.63 79.8271C376.63 83.7871 377.13 88.4871 377.13 93.9271L377.13 124.047L359.13 124.047L359.13 117.687L358.77 117.687C357.25 120.167 354.95 122.087 351.87 123.447C348.79 124.807 345.45 125.487 341.85 125.487C339.45 125.487 336.97 125.167 334.41 124.527C331.85 123.887 329.51 122.847 327.39 121.407C325.27 119.967 323.53 118.047 322.17 115.647C320.81 113.247 320.13 110.287 320.13 106.767C320.13 102.447 321.31 98.9671 323.67 96.3271C326.03 93.6871 329.07 91.6471 332.79 90.2071C336.51 88.7671 340.65 87.8071 345.21 87.3271C349.77 86.8471 354.21 86.6071 358.53 86.6071L358.53 85.6471C358.53 82.6871 357.49 80.5071 355.41 79.1071C353.33 77.7071 350.77 77.0071 347.73 77.0071C344.93 77.0071 342.23 77.6071 339.63 78.8071C337.03 80.0071 334.81 81.4471 332.97 83.1271L323.01 72.4471Z"/>
<path d="M430.53 80.3671C429.65 80.1271 428.79 79.9671 427.95 79.8871C427.11 79.8071 426.29 79.7671 425.49 79.7671C422.85 79.7671 420.63 80.2471 418.83 81.2071C417.03 82.1671 415.59 83.3271 414.51 84.6871C413.43 86.0471 412.65 87.5271 412.17 89.1271C411.69 90.7271 411.45 92.1271 411.45 93.3271L411.45 124.047L391.77 124.047L391.77 64.2871L410.73 64.2871L410.73 72.9271L410.97 72.9271C412.49 69.8871 414.65 67.4071 417.45 65.4871C420.25 63.5671 423.49 62.6071 427.17 62.6071C427.97 62.6071 428.75 62.6471 429.51 62.7271C430.27 62.8071 430.89 62.9271 431.37 63.0871L430.53 80.3671Z"/>
<path d="M505.77 93.9271C505.77 98.0871 505.13 102.087 503.85 105.927C502.57 109.767 500.71 113.147 498.27 116.067C495.83 118.987 492.85 121.327 489.33 123.087C485.81 124.847 481.81 125.727 477.33 125.727C473.65 125.727 470.17 124.987 466.89 123.507C463.61 122.027 461.05 120.007 459.21 117.447L458.97 117.447L458.97 152.847L439.29 152.847L439.29 64.2871L458.01 64.2871L458.01 71.6071L458.37 71.6071C460.21 69.2071 462.75 67.1071 465.99 65.3071C469.23 63.5071 473.05 62.6071 477.45 62.6071C481.77 62.6071 485.69 63.4471 489.21 65.1271C492.73 66.8071 495.71 69.0871 498.15 71.9671C500.59 74.8471 502.47 78.1871 503.79 81.9871C505.11 85.7871 505.77 89.7671 505.77 93.9271ZM486.69 93.9271C486.69 92.0071 486.39 90.1271 485.79 88.2871C485.19 86.4471 484.31 84.8271 483.15 83.4271C481.99 82.0271 480.53 80.8871 478.77 80.0071C477.01 79.1271 474.97 78.6871 472.65 78.6871C470.41 78.6871 468.41 79.1271 466.65 80.0071C464.89 80.8871 463.39 82.0471 462.15 83.4871C460.91 84.9271 459.95 86.5671 459.27 88.4071C458.59 90.2471 458.25 92.1271 458.25 94.0471C458.25 95.9671 458.59 97.8471 459.27 99.6871C459.95 101.527 460.91 103.167 462.15 104.607C463.39 106.047 464.89 107.207 466.65 108.087C468.41 108.967 470.41 109.407 472.65 109.407C474.97 109.407 477.01 108.967 478.77 108.087C480.53 107.207 481.99 106.047 483.15 104.607C484.31 103.167 485.19 101.507 485.79 99.6271C486.39 97.7471 486.69 95.8471 486.69 93.9271Z"/>
<path d="M518.37 124.047L518.37 33.3271L538.29 33.3271L538.29 124.047L518.37 124.047Z"/>
<path d="M617.25 93.9271C617.25 98.8071 616.37 103.227 614.61 107.187C612.85 111.147 610.45 114.507 607.41 117.267C604.37 120.027 600.85 122.167 596.85 123.687C592.85 125.207 588.57 125.967 584.01 125.967C579.53 125.967 575.27 125.207 571.23 123.687C567.19 122.167 563.67 120.027 560.67 117.267C557.67 114.507 555.29 111.147 553.53 107.187C551.77 103.227 550.89 98.8071 550.89 93.9271C550.89 89.0471 551.77 84.6471 553.53 80.7271C555.29 76.8071 557.67 73.4871 560.67 70.7671C563.67 68.0471 567.19 65.9671 571.23 64.5271C575.27 63.0871 579.53 62.3671 584.01 62.3671C588.57 62.3671 592.85 63.0871 596.85 64.5271C600.85 65.9671 604.37 68.0471 607.41 70.7671C610.45 73.4871 612.85 76.8071 614.61 80.7271C616.37 84.6471 617.25 89.0471 617.25 93.9271ZM598.29 93.9271C598.29 92.0071 597.97 90.1271 597.33 88.2871C596.69 86.4471 595.77 84.8271 594.57 83.4271C593.37 82.0271 591.89 80.8871 590.13 80.0071C588.37 79.1271 586.33 78.6871 584.01 78.6871C581.69 78.6871 579.65 79.1271 577.89 80.0071C576.13 80.8871 574.67 82.0271 573.51 83.4271C572.35 84.8271 571.47 86.4471 570.87 88.2871C570.27 90.1271 569.97 92.0071 569.97 93.9271C569.97 95.8471 570.27 97.7271 570.87 99.5671C571.47 101.407 572.37 103.067 573.57 104.547C574.77 106.027 576.25 107.207 578.01 108.087C579.77 108.967 581.81 109.407 584.13 109.407C586.45 109.407 588.49 108.967 590.25 108.087C592.01 107.207 593.49 106.027 594.69 104.547C595.89 103.067 596.79 101.407 597.39 99.5671C597.99 97.7271 598.29 95.8471 598.29 93.9271Z"/>
<path d="M651.09 79.0471L651.09 101.847C651.09 104.647 651.63 106.747 652.71 108.147C653.79 109.547 655.73 110.247 658.53 110.247C659.49 110.247 660.51 110.167 661.59 110.007C662.67 109.847 663.57 109.607 664.29 109.287L664.53 123.687C663.17 124.167 661.45 124.587 659.37 124.947C657.29 125.307 655.21 125.487 653.13 125.487C649.13 125.487 645.77 124.987 643.05 123.987C640.33 122.987 638.15 121.547 636.51 119.667C634.87 117.787 633.69 115.547 632.97 112.947C632.25 110.347 631.89 107.447 631.89 104.247L631.89 79.0471L622.29 79.0471L622.29 64.2871L631.77 64.2871L631.77 48.5671L651.09 48.5671L651.09 64.2871L665.13 64.2871L665.13 79.0471L651.09 79.0471Z"/>
</g>
</g>
<clipPath id="ArtboardFrame">
<rect height="180" width="1536" x="0" y="0"/>
</clipPath>
<g clip-path="url(#ArtboardFrame)" id="logo" vectornator:layerName="logo">
<path d="M179.989 1.42083e-14L179.989 179.989L-2.84217e-14 179.989L-7.10673e-15-2.84217e-14L179.989 1.42083e-14Z" fill="url(#LinearGradient)" fill-rule="nonzero" opacity="1" stroke="none" vectornator:layerName="Rectangle 1"/>
<g opacity="1" vectornator:layerName="Line 1">
<path d="M165.656 8.625C146.817 14.6227 127.973 20.6609 109.094 26.5312C100.127 29.3192 91.147 32.0127 82.1562 34.7188C79.5886 35.4915 77.0662 36.4418 74.5 37.2188C72.2527 37.8991 69.9871 38.5354 67.75 39.25C59.4573 41.899 51.2538 44.7994 43.0312 47.6562C40.1992 48.692 38.7455 51.8242 39.7812 54.6562C40.817 57.4883 43.9492 58.942 46.7812 57.9062C54.9068 54.784 63.0488 51.7013 71.0938 48.375C73.264 47.4777 75.4065 46.5238 77.5625 45.5938C80.0244 44.5317 82.5709 43.6286 85.0312 42.5625C93.6464 38.8294 102.226 35.0922 110.875 31.4375C129.087 23.7423 147.393 16.1969 165.656 8.625Z" fill="#50d5ee" stroke="none"/>
</g>
<g opacity="1" vectornator:layerName="Line 2">
<path d="M165.656 8.625C156.243 17.1691 146.86 25.7576 137.344 34.1875C132.896 38.1274 128.321 41.9665 123.875 45.9062C122.923 46.7501 122.073 47.6521 121.125 48.5C119.859 49.6321 118.536 50.6978 117.281 51.8438C113.221 55.5519 109.321 59.4525 105.406 63.3125C103.314 65.4843 103.359 68.9393 105.531 71.0312C107.703 73.1232 111.189 73.0468 113.281 70.875C116.992 66.8189 120.728 62.7896 124.281 58.5938C125.379 57.2971 126.385 55.9328 127.469 54.625C128.281 53.6455 129.161 52.7331 129.969 51.75C133.739 47.16 137.386 42.467 141.156 37.875C149.224 28.0498 157.471 18.3518 165.656 8.625Z" fill="#50d5ee" stroke="none"/>
</g>
<g opacity="1" vectornator:layerName="Line 3">
<path d="M165.656 8.625C158.364 27.1794 151.104 45.7448 143.688 64.25C140.165 73.0385 136.539 81.8066 132.938 90.5625C131.909 93.063 131.056 95.623 130.031 98.125C129.134 100.316 128.208 102.483 127.344 104.688C124.141 112.861 121.185 121.125 118.188 129.375C117.203 132.225 118.712 135.328 121.562 136.312C124.413 137.297 127.516 135.788 128.5 132.938C131.231 124.595 134.01 116.283 136.531 107.875C137.211 105.607 137.823 103.309 138.469 101.031C139.206 98.4301 140.11 95.8837 140.844 93.2812C143.411 84.1685 145.944 75.0585 148.594 65.9688C154.174 46.8294 159.948 27.7264 165.656 8.625Z" fill="#50d5ee" stroke="none"/>
</g>
<path d="M43.5669 52.7876L73.8333 84.4792L112.357 63.5913L91.5698 102.17L123.34 132.353L80.2261 124.505L61.3371 164.047L55.4789 120.618L12.0346 114.873L51.5279 95.8809L43.5669 52.7876Z" fill="#ffed73" fill-rule="nonzero" opacity="1" stroke="#ffed73" stroke-linecap="butt" stroke-linejoin="round" stroke-width="10" vectornator:layerName="Star 1"/>
</g>
</svg>
