<?xml version="1.0" encoding="UTF-8" standalone="no"?>
<!DOCTYPE svg PUBLIC "-//W3C//DTD SVG 1.1//EN" "http://www.w3.org/Graphics/SVG/1.1/DTD/svg11.dtd">
<!-- Created with Vectornator (http://vectornator.io/) -->
<svg height="100%" stroke-miterlimit="10" style="fill-rule:nonzero;clip-rule:evenodd;stroke-linecap:round;stroke-linejoin:round;" version="1.1" viewBox="0 0 240 240" width="100%" xml:space="preserve" xmlns="http://www.w3.org/2000/svg" xmlns:xlink="http://www.w3.org/1999/xlink">
<defs>
<linearGradient gradientTransform="matrix(-1.83697e-16 1 -1 -1.83697e-16 240 2.84217e-14)" gradientUnits="userSpaceOnUse" id="LinearGradient" x1="0" x2="240" y1="120" y2="120">
<stop offset="0.430596" stop-color="#28597c"/>
<stop offset="1" stop-color="#0e3b5b"/>
</linearGradient>
</defs>
<clipPath id="ArtboardFrame">
<rect height="240" width="240" x="0" y="0"/>
</clipPath>
<g clip-path="url(#ArtboardFrame)" id="Layer-3">
<path d="M240 2.84217e-14L240 240L-2.84217e-14 240L0-2.84217e-14L240 2.84217e-14Z" fill="url(#LinearGradient)" fill-rule="nonzero" opacity="1" stroke="none"/>
</g>
<g id="Layer-4">
<g opacity="1">
<path d="M220.875 11.5C195.851 19.7597 170.847 28.0548 145.781 36.1875C133.881 40.0487 121.957 43.8142 110.031 47.5938C106.625 48.6733 103.249 49.9475 99.8438 51.0312C96.8629 51.98 93.8764 52.861 90.9062 53.8438C79.8865 57.49 68.9483 61.3963 58 65.25C55.168 66.2858 53.7142 69.418 54.75 72.25C55.7858 75.082 58.918 76.5358 61.75 75.5C72.6012 71.3808 83.4781 67.3238 94.25 63C97.1534 61.8346 100.017 60.6046 102.906 59.4062C106.207 58.0374 109.576 56.8105 112.875 55.4375C124.425 50.6308 135.979 45.8215 147.562 41.0938C171.96 31.1359 196.427 21.3338 220.875 11.5Z" fill="#50d5ee" stroke="none"/>
</g>
<g opacity="1">
<path d="M220.875 11.5C208.528 23.0894 196.202 34.7419 183.75 46.2188C177.934 51.5792 172.033 56.7957 166.219 62.1562C164.973 63.3046 163.804 64.5351 162.562 65.6875C160.906 67.2252 159.176 68.6988 157.531 70.25C152.199 75.2792 147.029 80.4765 141.844 85.6562C139.752 87.8281 139.828 91.3143 142 93.4062C144.172 95.4982 147.627 95.4218 149.719 93.25C154.701 87.8742 159.705 82.5173 164.531 77C166.02 75.2982 167.432 73.5258 168.906 71.8125C170.011 70.5286 171.18 69.3189 172.281 68.0312C177.42 62.0206 182.455 55.8874 187.594 49.875C198.596 37.0024 209.756 24.2719 220.875 11.5Z" fill="#50d5ee" stroke="none"/>
</g>
<g opacity="1">
<path d="M220.875 11.5C211.416 36.3313 201.99 61.1852 192.406 85.9688C187.856 97.7352 183.224 109.453 178.594 121.188C177.271 124.54 176.1 127.959 174.781 131.312C173.627 134.248 172.433 137.176 171.312 140.125C167.154 151.066 163.265 162.109 159.312 173.125C158.328 175.975 159.837 179.078 162.688 180.062C165.538 181.047 168.641 179.538 169.625 176.688C173.311 165.579 177.054 154.489 180.531 143.312C181.468 140.3 182.316 137.241 183.219 134.219C184.25 130.766 185.442 127.391 186.469 123.938C190.065 111.846 193.666 99.7239 197.344 87.6562C205.091 62.2385 213 36.8783 220.875 11.5Z" fill="#50d5ee" stroke="none"/>
</g>
</g>
<g id="Layer-2">
<path d="M58.0928 70.3878L98.4504 112.646L149.819 84.7935L122.101 136.234L164.463 176.482L106.975 166.016L81.7877 218.743L73.9763 160.834L16.0471 153.173L68.7081 127.849L58.0928 70.3878Z" fill="#ffed73" fill-rule="nonzero" opacity="1" stroke="#ffed73" stroke-linecap="butt" stroke-linejoin="round" stroke-width="10"/>
</g>
</svg>
