<svg id="figure" xmlns="http://www.w3.org/2000/svg" height="1417.8737" width="2003.2263" viewBox="0 0 2003.2263 1417.8737">
  <rect x="0" y="0" height="1417.8737" width="2003.2263" fill="#0e141a" stroke="#000" stroke-width="0.0" stroke-linecap="round" />
  <svg id="axes" xmlns="http://www.w3.org/2000/svg" x="1.6131" y="88.8043" height="1327.465" width="2000" viewBox="0 0 2000 1327.465">
    <defs>
      <clipPath id="axes-clip-path">
        <polygon id="axes-background" points="1995.5907,799.6606 1995.8227,760.8384 1996.0548,721.7318 1996.2869,682.3296 1996.5189,642.6203 1996.751,602.592 1996.9831,562.2325 1997.2152,521.529 1997.4472,480.4684 1997.6793,439.037 1997.9114,397.2206 1998.1434,355.0047 1998.3755,312.374 1998.6076,269.3126 1998.8396,225.8041 1999.0717,181.8312 1999.3038,137.3762 1999.5359,92.4203 1999.7679,46.9441 2000.0,0.9273 1967.9974,0.8114 1935.9947,0.6955 1903.9921,0.5796 1871.9894,0.4637 1839.9868,0.3478 1807.9842,0.2318 1775.9815,0.1159 1743.9789,0.0 1743.8254,40.5167 1743.6719,80.6129 1743.5184,120.3025 1709.2665,120.2326 1675.0147,120.1628 1640.7629,120.093 1606.511,120.0231 1606.4447,151.4934 1606.3785,182.7186 1606.3122,213.7052 1570.8228,213.6949 1535.3334,213.6845 1499.8439,213.6741 1464.3545,213.6637 1428.8651,213.6533 1393.3757,213.6429 1357.8863,213.6326 1322.3969,213.6222 1286.9075,213.6118 1286.9445,244.3669 1286.9816,274.8957 1287.0187,305.2041 1252.2123,305.2831 1217.406,305.3621 1182.5996,305.4411 1147.7933,305.5201 1112.9869,305.5991 1078.1806,305.678 1043.3743,305.757 1008.5679,305.836 973.7616,305.915 938.9552,305.994 904.1489,306.0729 903.9953,275.771 903.8418,245.2488 903.6883,214.5006 869.4845,214.6449 835.2806,214.7892 801.0768,214.9335 766.873,215.0778 766.663,184.1021 766.453,152.8881 766.243,121.4294 732.0167,121.6113 697.7905,121.7932 663.5642,121.9751 629.338,122.1569 596.4941,122.3666 563.6502,122.5763 530.8064,122.7859 497.9625,122.9955 465.1186,123.2052 465.4524,158.5627 465.7863,193.612 466.1201,228.3621 466.4539,262.8219 432.3057,263.0743 398.1574,263.3266 364.0092,263.5789 329.8609,263.8313 295.7127,264.0836 261.5644,264.3359 261.0935,224.1201 260.6226,183.5078 260.1517,142.4847 259.6808,101.0363 227.2207,101.3351 194.7606,101.634 162.3005,101.9328 129.8404,102.2316 97.3803,102.5304 64.9202,102.8291 32.4601,103.1278 0.0,103.4265 0.5302,149.8925 1.0604,195.826 1.5906,241.2475 2.1208,286.1765 2.651,330.6321 3.1812,374.6321 3.7113,418.1941 4.2415,461.3345 4.7717,504.0696 5.3019,546.4147 5.8321,588.3846 6.3623,629.9938 6.8925,671.2561 7.4227,712.1848 42.568,711.905 77.7133,711.6252 112.8586,711.3453 148.0039,711.0654 183.1492,710.7855 218.2945,710.5056 253.4398,710.2257 288.5851,709.9458 288.8883,746.1555 289.1915,782.119 324.9735,781.8996 360.7555,781.6802 396.5375,781.4608 432.3195,781.2414 468.1015,781.022 503.8835,780.8025 539.6654,780.5831 575.4474,780.3636 611.2294,780.1442 611.3904,807.3953 611.5513,834.5119 611.7123,861.4977 645.9345,861.3636 680.1567,861.2295 714.379,861.0954 748.6012,860.9613 782.8234,860.8272 817.0457,860.6931 851.2679,860.559 885.4902,860.4249 919.7124,860.2908 953.9346,860.1566 988.1569,860.0225 988.2634,897.2653 988.3699,934.2722 988.4763,971.0521 988.5828,1007.6139 988.6893,1043.9662 988.7958,1080.1174 988.9023,1116.0756 989.0088,1151.8488 989.1153,1187.445 989.2218,1222.8715 965.0893,1222.9391 940.9567,1223.0067 916.8242,1223.0743 916.9353,1258.0209 917.0463,1292.8155 917.1573,1327.465 952.1015,1327.4013 987.0456,1327.3377 1021.9898,1327.2741 1056.9339,1327.2104 1091.8781,1327.1468 1126.8222,1327.0832 1161.7664,1327.0196 1196.7105,1326.9559 1231.6547,1326.8923 1266.5988,1326.8287 1301.543,1326.765 1301.5299,1307.8812 1301.5169,1288.9551 1321.8729,1288.9444 1342.229,1288.9337 1342.2145,1256.3873 1342.1999,1223.7078 1342.1854,1190.8893 1342.1708,1157.9258 1342.1563,1124.8113 1342.1417,1091.5396 1342.1272,1058.1045 1360.2507,1058.0991 1378.3742,1058.0937 1378.3674,1025.4244 1378.3605,992.5885 1378.3537,959.5797 1378.3468,926.3916 1412.3588,926.4002 1446.3709,926.4088 1480.3829,926.4174 1514.395,926.426 1514.4187,896.3981 1548.4369,896.4368 1582.4552,896.4756 1616.4734,896.5143 1650.4916,896.553 1650.5514,864.1288 1650.6111,831.5193 1650.6709,798.7183 1685.1628,798.8125 1719.6548,798.9068 1754.1468,799.001 1788.6388,799.0952 1823.1308,799.1895 1857.6227,799.2837 1892.1147,799.3779 1926.6067,799.4721 1961.0987,799.5664 1995.5907,799.6606" fill="#1b2631" stroke="#000" stroke-width="0.0" stroke-linecap="round" />
      </clipPath>
    </defs>
    <g id="axes" clip-path="url(#axes-clip-path)">
      <polygon id="axes-background" points="1995.5907,799.6606 1995.8227,760.8384 1996.0548,721.7318 1996.2869,682.3296 1996.5189,642.6203 1996.751,602.592 1996.9831,562.2325 1997.2152,521.529 1997.4472,480.4684 1997.6793,439.037 1997.9114,397.2206 1998.1434,355.0047 1998.3755,312.374 1998.6076,269.3126 1998.8396,225.8041 1999.0717,181.8312 1999.3038,137.3762 1999.5359,92.4203 1999.7679,46.9441 2000.0,0.9273 1967.9974,0.8114 1935.9947,0.6955 1903.9921,0.5796 1871.9894,0.4637 1839.9868,0.3478 1807.9842,0.2318 1775.9815,0.1159 1743.9789,0.0 1743.8254,40.5167 1743.6719,80.6129 1743.5184,120.3025 1709.2665,120.2326 1675.0147,120.1628 1640.7629,120.093 1606.511,120.0231 1606.4447,151.4934 1606.3785,182.7186 1606.3122,213.7052 1570.8228,213.6949 1535.3334,213.6845 1499.8439,213.6741 1464.3545,213.6637 1428.8651,213.6533 1393.3757,213.6429 1357.8863,213.6326 1322.3969,213.6222 1286.9075,213.6118 1286.9445,244.3669 1286.9816,274.8957 1287.0187,305.2041 1252.2123,305.2831 1217.406,305.3621 1182.5996,305.4411 1147.7933,305.5201 1112.9869,305.5991 1078.1806,305.678 1043.3743,305.757 1008.5679,305.836 973.7616,305.915 938.9552,305.994 904.1489,306.0729 903.9953,275.771 903.8418,245.2488 903.6883,214.5006 869.4845,214.6449 835.2806,214.7892 801.0768,214.9335 766.873,215.0778 766.663,184.1021 766.453,152.8881 766.243,121.4294 732.0167,121.6113 697.7905,121.7932 663.5642,121.9751 629.338,122.1569 596.4941,122.3666 563.6502,122.5763 530.8064,122.7859 497.9625,122.9955 465.1186,123.2052 465.4524,158.5627 465.7863,193.612 466.1201,228.3621 466.4539,262.8219 432.3057,263.0743 398.1574,263.3266 364.0092,263.5789 329.8609,263.8313 295.7127,264.0836 261.5644,264.3359 261.0935,224.1201 260.6226,183.5078 260.1517,142.4847 259.6808,101.0363 227.2207,101.3351 194.7606,101.634 162.3005,101.9328 129.8404,102.2316 97.3803,102.5304 64.9202,102.8291 32.4601,103.1278 0.0,103.4265 0.5302,149.8925 1.0604,195.826 1.5906,241.2475 2.1208,286.1765 2.651,330.6321 3.1812,374.6321 3.7113,418.1941 4.2415,461.3345 4.7717,504.0696 5.3019,546.4147 5.8321,588.3846 6.3623,629.9938 6.8925,671.2561 7.4227,712.1848 42.568,711.905 77.7133,711.6252 112.8586,711.3453 148.0039,711.0654 183.1492,710.7855 218.2945,710.5056 253.4398,710.2257 288.5851,709.9458 288.8883,746.1555 289.1915,782.119 324.9735,781.8996 360.7555,781.6802 396.5375,781.4608 432.3195,781.2414 468.1015,781.022 503.8835,780.8025 539.6654,780.5831 575.4474,780.3636 611.2294,780.1442 611.3904,807.3953 611.5513,834.5119 611.7123,861.4977 645.9345,861.3636 680.1567,861.2295 714.379,861.0954 748.6012,860.9613 782.8234,860.8272 817.0457,860.6931 851.2679,860.559 885.4902,860.4249 919.7124,860.2908 953.9346,860.1566 988.1569,860.0225 988.2634,897.2653 988.3699,934.2722 988.4763,971.0521 988.5828,1007.6139 988.6893,1043.9662 988.7958,1080.1174 988.9023,1116.0756 989.0088,1151.8488 989.1153,1187.445 989.2218,1222.8715 965.0893,1222.9391 940.9567,1223.0067 916.8242,1223.0743 916.9353,1258.0209 917.0463,1292.8155 917.1573,1327.465 952.1015,1327.4013 987.0456,1327.3377 1021.9898,1327.2741 1056.9339,1327.2104 1091.8781,1327.1468 1126.8222,1327.0832 1161.7664,1327.0196 1196.7105,1326.9559 1231.6547,1326.8923 1266.5988,1326.8287 1301.543,1326.765 1301.5299,1307.8812 1301.5169,1288.9551 1321.8729,1288.9444 1342.229,1288.9337 1342.2145,1256.3873 1342.1999,1223.7078 1342.1854,1190.8893 1342.1708,1157.9258 1342.1563,1124.8113 1342.1417,1091.5396 1342.1272,1058.1045 1360.2507,1058.0991 1378.3742,1058.0937 1378.3674,1025.4244 1378.3605,992.5885 1378.3537,959.5797 1378.3468,926.3916 1412.3588,926.4002 1446.3709,926.4088 1480.3829,926.4174 1514.395,926.426 1514.4187,896.3981 1548.4369,896.4368 1582.4552,896.4756 1616.4734,896.5143 1650.4916,896.553 1650.5514,864.1288 1650.6111,831.5193 1650.6709,798.7183 1685.1628,798.8125 1719.6548,798.9068 1754.1468,799.001 1788.6388,799.0952 1823.1308,799.1895 1857.6227,799.2837 1892.1147,799.3779 1926.6067,799.4721 1961.0987,799.5664 1995.5907,799.6606" fill="#1b2631" stroke="#000" stroke-width="0.0" stroke-linecap="round" />
      <polyline points="1995.5907,799.6606 1995.8227,760.8384 1996.0548,721.7318 1996.2869,682.3296 1996.5189,642.6203 1996.751,602.592 1996.9831,562.2325 1997.2152,521.529 1997.4472,480.4684 1997.6793,439.037 1997.9114,397.2206 1998.1434,355.0047 1998.3755,312.374 1998.6076,269.3126 1998.8396,225.8041 1999.0717,181.8312 1999.3038,137.3762 1999.5359,92.4203 1999.7679,46.9441 2000.0,0.9273 1967.9974,0.8114 1935.9947,0.6955 1903.9921,0.5796 1871.9894,0.4637 1839.9868,0.3478 1807.9842,0.2318 1775.9815,0.1159 1743.9789,0.0 1743.8254,40.5167 1743.6719,80.6129 1743.5184,120.3025 1709.2665,120.2326 1675.0147,120.1628 1640.7629,120.093 1606.511,120.0231 1606.4447,151.4934 1606.3785,182.7186 1606.3122,213.7052 1570.8228,213.6949 1535.3334,213.6845 1499.8439,213.6741 1464.3545,213.6637 1428.8651,213.6533 1393.3757,213.6429 1357.8863,213.6326 1322.3969,213.6222 1286.9075,213.6118 1286.9445,244.3669 1286.9816,274.8957 1287.0187,305.2041 1252.2123,305.2831 1217.406,305.3621 1182.5996,305.4411 1147.7933,305.5201 1112.9869,305.5991 1078.1806,305.678 1043.3743,305.757 1008.5679,305.836 973.7616,305.915 938.9552,305.994 904.1489,306.0729 903.9953,275.771 903.8418,245.2488 903.6883,214.5006 869.4845,214.6449 835.2806,214.7892 801.0768,214.9335 766.873,215.0778 766.663,184.1021 766.453,152.8881 766.243,121.4294 732.0167,121.6113 697.7905,121.7932 663.5642,121.9751 629.338,122.1569 596.4941,122.3666 563.6502,122.5763 530.8064,122.7859 497.9625,122.9955 465.1186,123.2052 465.4524,158.5627 465.7863,193.612 466.1201,228.3621 466.4539,262.8219 432.3057,263.0743 398.1574,263.3266 364.0092,263.5789 329.8609,263.8313 295.7127,264.0836 261.5644,264.3359 261.0935,224.1201 260.6226,183.5078 260.1517,142.4847 259.6808,101.0363 227.2207,101.3351 194.7606,101.634 162.3005,101.9328 129.8404,102.2316 97.3803,102.5304 64.9202,102.8291 32.4601,103.1278 0.0,103.4265 0.5302,149.8925 1.0604,195.826 1.5906,241.2475 2.1208,286.1765 2.651,330.6321 3.1812,374.6321 3.7113,418.1941 4.2415,461.3345 4.7717,504.0696 5.3019,546.4147 5.8321,588.3846 6.3623,629.9938 6.8925,671.2561 7.4227,712.1848 42.568,711.905 77.7133,711.6252 112.8586,711.3453 148.0039,711.0654 183.1492,710.7855 218.2945,710.5056 253.4398,710.2257 288.5851,709.9458 288.8883,746.1555 289.1915,782.119 324.9735,781.8996 360.7555,781.6802 396.5375,781.4608 432.3195,781.2414 468.1015,781.022 503.8835,780.8025 539.6654,780.5831 575.4474,780.3636 611.2294,780.1442 611.3904,807.3953 611.5513,834.5119 611.7123,861.4977 645.9345,861.3636 680.1567,861.2295 714.379,861.0954 748.6012,860.9613 782.8234,860.8272 817.0457,860.6931 851.2679,860.559 885.4902,860.4249 919.7124,860.2908 953.9346,860.1566 988.1569,860.0225 988.2634,897.2653 988.3699,934.2722 988.4763,971.0521 988.5828,1007.6139 988.6893,1043.9662 988.7958,1080.1174 988.9023,1116.0756 989.0088,1151.8488 989.1153,1187.445 989.2218,1222.8715 965.0893,1222.9391 940.9567,1223.0067 916.8242,1223.0743 916.9353,1258.0209 917.0463,1292.8155 917.1573,1327.465 952.1015,1327.4013 987.0456,1327.3377 1021.9898,1327.2741 1056.9339,1327.2104 1091.8781,1327.1468 1126.8222,1327.0832 1161.7664,1327.0196 1196.7105,1326.9559 1231.6547,1326.8923 1266.5988,1326.8287 1301.543,1326.765 1301.5299,1307.8812 1301.5169,1288.9551 1321.8729,1288.9444 1342.229,1288.9337 1342.2145,1256.3873 1342.1999,1223.7078 1342.1854,1190.8893 1342.1708,1157.9258 1342.1563,1124.8113 1342.1417,1091.5396 1342.1272,1058.1045 1360.2507,1058.0991 1378.3742,1058.0937 1378.3674,1025.4244 1378.3605,992.5885 1378.3537,959.5797 1378.3468,926.3916 1412.3588,926.4002 1446.3709,926.4088 1480.3829,926.4174 1514.395,926.426 1514.4187,896.3981 1548.4369,896.4368 1582.4552,896.4756 1616.4734,896.5143 1650.4916,896.553 1650.5514,864.1288 1650.6111,831.5193 1650.6709,798.7183 1685.1628,798.8125 1719.6548,798.9068 1754.1468,799.001 1788.6388,799.0952 1823.1308,799.1895 1857.6227,799.2837 1892.1147,799.3779 1926.6067,799.4721 1961.0987,799.5664 1995.5907,799.6606" fill="none" stroke="#9cbede" stroke-width="1.6" stroke-opacity="0.5" stroke-linecap="square" stroke-dasharray="2.4,4.8" />
      <polyline points="1360.7055,1042.6537 1082.1771,972.8717" fill="none" stroke="#b1e085" stroke-width="4.8" stroke-opacity="0.64" stroke-linecap="square" />
      <polyline points="1082.1771,972.8717 808.4774,781.1619" fill="none" stroke="#b1e085" stroke-width="4.8" stroke-opacity="0.64" stroke-linecap="square" />
      <polyline points="808.4774,781.1619 320.8591,498.6042" fill="none" stroke="#b1e085" stroke-width="4.8" stroke-opacity="0.64" stroke-linecap="square" />
      <polyline points="1959.0423,498.7646 1633.026,457.7298" fill="none" stroke="#b1e085" stroke-width="4.8" stroke-opacity="0.64" stroke-linecap="square" />
      <polyline points="1633.026,457.7298 1612.5769,410.8505" fill="none" stroke="#b1e085" stroke-width="4.8" stroke-opacity="0.64" stroke-linecap="square" />
      <polyline points="1612.5769,410.8505 1638.1824,315.9193" fill="none" stroke="#b1e085" stroke-width="4.8" stroke-opacity="0.64" stroke-linecap="square" />
      <polyline points="1633.026,457.7298 1271.2247,733.2274" fill="none" stroke="#b1e085" stroke-width="4.8" stroke-opacity="0.64" stroke-linecap="square" />
      <polyline points="1271.2247,733.2274 1104.207,858.5074" fill="none" stroke="#b1e085" stroke-width="4.8" stroke-opacity="0.64" stroke-linecap="square" />
      <polyline points="1104.207,858.5074 1082.1771,972.8717" fill="none" stroke="#b1e085" stroke-width="4.8" stroke-opacity="0.64" stroke-linecap="square" />
      <polyline points="1104.207,858.5074 808.4774,781.1619" fill="none" stroke="#b1e085" stroke-width="4.8" stroke-opacity="0.64" stroke-linecap="square" />
      <polyline points="808.4774,781.1619 925.3138,661.868" fill="none" stroke="#b1e085" stroke-width="4.8" stroke-opacity="0.64" stroke-linecap="square" />
      <polyline points="925.3138,661.868 987.7775,552.5276" fill="none" stroke="#b1e085" stroke-width="4.8" stroke-opacity="0.64" stroke-linecap="square" />
      <polyline points="987.7775,552.5276 810.5479,280.3582" fill="none" stroke="#b1e085" stroke-width="4.8" stroke-opacity="0.64" stroke-linecap="square" />
      <polyline points="810.5479,280.3582 554.0746,216.7008" fill="none" stroke="#b1e085" stroke-width="4.8" stroke-opacity="0.64" stroke-linecap="square" />
      <polyline points="1082.1771,972.8717 1089.1303,1033.9735" fill="none" stroke="#b1e085" stroke-width="4.8" stroke-opacity="0.64" stroke-linecap="square" />
      <polyline points="1089.1303,1033.9735 1010.0667,1229.1634" fill="none" stroke="#b1e085" stroke-width="4.8" stroke-opacity="0.64" stroke-linecap="square" />
      <polyline points="1010.0667,1229.1634 921.2304,1261.5297" fill="none" stroke="#b1e085" stroke-width="4.8" stroke-opacity="0.64" stroke-linecap="square" />
      <g id="stars" fill="#f8fafb" stroke="#1b2631" stroke-width="0.8" stroke-opacity="1.0" stroke-linecap="square">
        <circle cx="808.4776" cy="781.1619" r="8.0" fill="#f8fafb" />
        <circle cx="320.8592" cy="498.6042" r="8.0" fill="#f8fafb" />
        <circle cx="1360.7058" cy="1042.6539" r="8.0" fill="#f8fafb" />
        <circle cx="320.744" cy="498.5478" r="8.0" fill="#f8fafb" />
        <circle cx="1082.1774" cy="972.8718" r="6.0" fill="#f8fafb" />
        <circle cx="925.314" cy="661.8681" r="6.0" fill="#f8fafb" />
        <circle cx="1959.0424" cy="498.7646" r="6.0" fill="#f8fafb" />
        <circle cx="554.0748" cy="216.7008" r="6.0" fill="#f8fafb" />
        <circle cx="1638.1829" cy="315.9196" r="6.0" fill="#f8fafb" />
        <circle cx="1010.0669" cy="1229.1635" r="4.0" fill="#f8fafb" />
        <circle cx="921.2305" cy="1261.5298" r="4.0" fill="#f8fafb" />
        <circle cx="1089.1305" cy="1033.9736" r="4.0" fill="#f8fafb" />
        <circle cx="1271.2249" cy="733.2275" r="4.0" fill="#f8fafb" />
        <circle cx="1104.207" cy="858.5074" r="4.0" fill="#f8fafb" />
        <circle cx="987.7776" cy="552.5276" r="4.0" fill="#f8fafb" />
        <circle cx="1633.0261" cy="457.7298" r="4.0" fill="#f8fafb" />
        <circle cx="1612.5771" cy="410.8507" r="4.0" fill="#f8fafb" />
        <circle cx="810.5479" cy="280.3583" r="4.0" fill="#f8fafb" />
        <circle cx="810.5371" cy="280.3628" r="4.0" fill="#f8fafb" />
      </g>
      <g id="stars-labels">
        <text x="820.4776" y="806.2376624999999" font-size="33.6" font-family="Inter, sans-serif" font-weight="700" font-style="normal" fill="#ebf0f4" fill-opacity="1.0">Mirach</text>
        <text x="332.8592" y="523.00735" font-size="33.6" font-family="Inter, sans-serif" font-weight="700" font-style="normal" fill="#ebf0f4" fill-opacity="1.0">Almach</text>
        <text x="1348.7058" y="1046.3055" font-size="33.6" font-family="Inter, sans-serif" font-weight="700" font-style="normal" fill="#ebf0f4" fill-opacity="1.0" text-anchor="end">Alpheratz</text>
        <text x="564.0748" y="239.10395" font-size="33.6" font-family="Inter, sans-serif" font-weight="700" font-style="normal" fill="#ebf0f4" fill-opacity="1.0">Nembus</text>
        <text x="796.4776" y="782.6835" font-size="28.8" font-family="GFS Didot, sans-serif" font-weight="300" font-style="normal" fill="#ebf0f4" fill-opacity="0.9" text-anchor="end">β</text>
        <text x="308.8592" y="501.4074" font-size="28.8" font-family="GFS Didot, sans-serif" font-weight="300" font-style="normal" fill="#ebf0f4" fill-opacity="0.9" text-anchor="end">γ¹</text>
        <text x="1072.1774" y="973.3118000000001" font-size="28.8" font-family="GFS Didot, sans-serif" font-weight="300" font-style="normal" fill="#ebf0f4" fill-opacity="0.9" text-anchor="end">δ</text>
        <text x="915.314" y="661.9481000000001" font-size="28.8" font-family="GFS Didot, sans-serif" font-weight="300" font-style="normal" fill="#ebf0f4" fill-opacity="0.9" text-anchor="end">μ</text>
        <text x="1949.0424" y="495.79179999999997" font-size="28.8" font-family="GFS Didot, sans-serif" font-weight="300" font-style="normal" fill="#ebf0f4" fill-opacity="0.9" text-anchor="end">ο</text>
        <text x="1628.1829" y="316.3452" font-size="28.8" font-family="GFS Didot, sans-serif" font-weight="300" font-style="normal" fill="#ebf0f4" fill-opacity="0.9" text-anchor="end">λ</text>
      </g>
    </g>
  </svg>
  <g transform="translate(0.0, 0.0)">
    <text x="1000.0" y="48.8" font-size="68.0" font-family="Inter, sans-serif" font-weight="700" font-style="normal" fill="#ebf0f4" fill-opacity="1.0" text-anchor="middle">Andromeda</text>
  </g>
  <g transform="translate(1.6131, 88.8043)">
    <polyline points="1996.3859,800.4628 1996.6227,760.8432 1996.8548,721.7365 1997.0869,682.3343 1997.3189,642.625 1997.551,602.5966 1997.7831,562.2371 1998.0152,521.5336 1998.2472,480.4729 1998.4793,439.0415 1998.7114,397.225 1998.9434,355.0091 1999.1755,312.3784 1999.4076,269.3169 1999.6396,225.8084 1999.8717,181.8354 2000.1038,137.3804 2000.3359,92.4244 2000.5679,46.9482 2000.804,0.1302 1968.0003,0.0114 1935.9976,-0.1045 1903.995,-0.2204 1871.9923,-0.3363 1839.9897,-0.4522 1807.9871,-0.5682 1775.9844,-0.6841 1743.1819,-0.8029 1743.0254,40.5137 1742.8719,80.6098 1742.7215,119.5009 1709.2681,119.4326 1640.7645,119.293 1605.7127,119.2215 1605.6447,151.4917 1605.5785,182.7169 1605.5139,212.905 1570.823,212.8949 1535.3336,212.8845 1499.8441,212.8741 1464.3547,212.8637 1393.3759,212.8429 1357.8865,212.8326 1286.1065,212.8116 1286.1445,244.3679 1286.1816,274.8967 1286.2177,304.4059 1252.2105,304.4831 1217.4042,304.5621 1182.5978,304.6411 1147.7915,304.7201 1112.9851,304.7991 1078.1788,304.878 1043.3725,304.957 1008.5661,305.036 973.7598,305.115 938.9534,305.194 904.9448,305.2711 904.7953,275.767 904.6418,245.2448 904.4843,213.6972 869.4811,213.8449 835.2772,213.9892 801.0734,214.1335 767.6676,214.2744 767.463,184.0967 767.253,152.8827 767.0376,120.6252 732.0124,120.8113 697.7862,120.9932 663.5599,121.1751 629.3333,121.3569 596.489,121.5666 563.6451,121.7763 530.8013,121.9859 497.9574,122.1955 464.3111,122.4103 464.6524,158.5703 464.9863,193.6196 465.3201,228.3698 465.6462,262.0278 432.2998,262.2743 398.1515,262.5266 364.0033,262.7789 329.855,263.0313 295.7068,263.2836 262.355,263.53 261.8934,224.1108 261.4225,183.4986 260.9516,142.4756 260.4717,100.229 227.2133,100.5351 194.7532,100.834 129.833,101.4316 97.3729,101.7304 64.9128,102.0291 32.4527,102.3278 -0.8091,102.6339 -0.2697,149.9016 0.2605,195.8352 0.7907,241.2568 1.3209,286.1859 1.8511,330.6416 2.3813,374.6417 2.9114,418.2038 3.4416,461.3443 3.9718,504.0795 4.502,546.4247 5.0322,588.3947 5.5624,630.004 6.0926,671.2664 6.6331,712.9911 42.5744,712.705 77.7197,712.4252 148.0103,711.8654 183.1556,711.5855 253.4462,711.0257 287.7918,710.7521 288.0883,746.1622 288.3983,782.9239 324.9784,782.6996 360.7604,782.4802 396.5424,782.2608 468.1064,781.822 503.8884,781.6025 539.6703,781.3831 575.4523,781.1636 610.4341,780.9491 610.5904,807.4 610.7513,834.5166 610.9171,862.3008 645.9376,862.1636 680.1598,862.0295 714.3821,861.8954 748.6043,861.7613 782.8265,861.6272 817.0488,861.4931 851.271,861.359 885.4933,861.2249 919.7155,861.0908 953.9377,860.9566 987.3592,860.8256 987.4634,897.2676 987.5699,934.2745 987.6763,971.0544 987.7828,1007.6162 987.8893,1043.9685 987.9958,1080.1198 988.1023,1116.078 988.2088,1151.8512 988.3153,1187.4474 988.4194,1222.0737 965.0871,1222.1391 940.9545,1222.2067 916.0217,1222.2765 916.1353,1258.0234 916.2463,1292.8181 916.3599,1328.2665 952.103,1328.2013 987.0471,1328.1377 1021.9913,1328.0741 1056.9354,1328.0104 1091.8796,1327.9468 1126.8237,1327.8832 1161.7679,1327.8196 1196.712,1327.7559 1231.6562,1327.6923 1266.6003,1327.6287 1302.3436,1327.5635 1302.3299,1307.8806 1302.3174,1289.7547 1321.8733,1289.7444 1343.0294,1289.7333 1343.0145,1256.3869 1342.9999,1223.7074 1342.9854,1190.8889 1342.9708,1157.9254 1342.9563,1124.8109 1342.9417,1091.5393 1342.9275,1058.9043 1360.2509,1058.8991 1379.1744,1058.8935 1379.1674,1025.4242 1379.1605,992.5883 1379.1537,959.5795 1379.147,927.1918 1412.3586,927.2002 1446.3707,927.2088 1480.3827,927.2174 1515.1944,927.2262 1515.2181,897.199 1548.436,897.2368 1582.4543,897.2756 1616.4725,897.3143 1651.2901,897.3539 1651.3514,864.1303 1651.4111,831.5208 1651.4694,799.5205 1685.1606,799.6125 1719.6526,799.7068 1788.6366,799.8952 1823.1286,799.9895 1857.6205,800.0837 1892.1125,800.1779 1926.6045,800.2721 1961.0965,800.3664 1996.3859,800.4628" fill="none" stroke="#000" stroke-width="1.6" stroke-opacity="1.0" stroke-linecap="square" />
  </g>
</svg>