<?xml version="1.0" encoding="UTF-8" standalone="no"?>
<!DOCTYPE svg PUBLIC "-//W3C//DTD SVG 1.1//EN" "http://www.w3.org/Graphics/SVG/1.1/DTD/svg11.dtd">
<!-- Created with Vectornator (http://vectornator.io/) -->
<svg height="100%" stroke-miterlimit="10" style="fill-rule:nonzero;clip-rule:evenodd;stroke-linecap:round;stroke-linejoin:round;" version="1.1" viewBox="0 0 1024 1024" width="100%" xml:space="preserve" xmlns="http://www.w3.org/2000/svg" xmlns:xlink="http://www.w3.org/1999/xlink">
<defs>
<path d="M356.787 504.638C357.115 418.916 426.872 349.691 512.593 350.018C598.315 350.346 667.54 420.103 667.213 505.824C666.885 591.546 597.128 660.771 511.407 660.444C425.685 660.116 356.46 590.359 356.787 504.638Z" id="Fill"/>
</defs>
<g id="Layer-1">
<path d="M356.786 15.1065C356.786 11.7928 359.473 9.10652 362.786 9.10652L661.214 9.10652C664.527 9.10652 667.214 11.7928 667.214 15.1065L667.214 42.1065C667.214 45.4202 664.527 48.1065 661.214 48.1065L362.786 48.1065C359.473 48.1065 356.786 45.4202 356.786 42.1065L356.786 15.1065Z" fill="#ffffff" fill-rule="nonzero" opacity="1" stroke="none"/>
<path d="M356.786 969.924C356.786 966.611 359.473 963.924 362.786 963.924L661.214 963.924C664.527 963.924 667.214 966.611 667.214 969.924L667.214 996.924C667.214 1000.24 664.527 1002.92 661.214 1002.92L362.786 1002.92C359.473 1002.92 356.786 1000.24 356.786 996.924L356.786 969.924Z" fill="#ffffff" fill-rule="nonzero" opacity="1" stroke="none"/>
<path d="M78.1695 506.205C78.1695 266.608 272.402 72.375 512 72.375C751.598 72.375 945.83 266.608 945.83 506.205C945.83 745.803 751.598 940.036 512 940.036C272.402 940.036 78.1695 745.803 78.1695 506.205Z" fill="#303030" fill-rule="nonzero" opacity="1" stroke="none"/>
<g fill="#eb493a" opacity="1" stroke="none">
<path d="M672.616 352.726L668.064 352.171L667.055 360.446L662.746 359.921L665.319 338.818L675.669 340.08C677.145 340.289 678.261 340.61 679.017 341.041C679.774 341.472 680.389 342.046 680.863 342.762C681.256 343.353 681.547 343.989 681.735 344.67C681.923 345.352 681.966 346.108 681.865 346.938C681.743 347.94 681.37 348.895 680.746 349.802C680.122 350.709 679.203 351.292 677.99 351.551C678.916 352.061 679.538 352.701 679.856 353.471C680.173 354.241 680.242 355.366 680.062 356.845L679.889 358.262C679.771 359.226 679.73 359.885 679.764 360.238C679.812 360.796 680.031 361.229 680.419 361.538L680.355 362.068L675.502 361.476C675.425 360.992 675.375 360.603 675.353 360.31C675.311 359.704 675.323 359.091 675.389 358.469L675.599 356.504C675.744 355.156 675.608 354.229 675.19 353.723C674.772 353.217 673.914 352.885 672.616 352.726ZM675.761 349.216C676.688 348.922 677.224 348.184 677.368 347C677.524 345.721 677.204 344.81 676.408 344.268C675.961 343.961 675.261 343.75 674.306 343.634L669.181 343.009L668.49 348.678L673.486 349.287C674.479 349.408 675.237 349.385 675.761 349.216Z"/>
<path d="M689.696 347.511L687.562 363.086L683.432 362.52L685.566 346.945L689.696 347.511ZM690.465 341.895L689.95 345.653L685.821 345.087L686.336 341.329L690.465 341.895Z"/>
<path d="M695.447 366.999C695.828 367.436 696.537 367.733 697.573 367.89C699.037 368.111 700.09 367.769 700.732 366.865C701.151 366.286 701.472 365.255 701.696 363.772L701.847 362.774C701.356 363.38 700.862 363.816 700.365 364.082C699.464 364.577 698.367 364.728 697.074 364.532C695.077 364.231 693.588 363.289 692.607 361.706C691.626 360.123 691.316 358.134 691.678 355.738C692.027 353.428 692.896 351.573 694.284 350.174C695.672 348.774 697.422 348.234 699.532 348.553C700.312 348.671 700.973 348.892 701.517 349.217C702.444 349.776 703.13 350.647 703.573 351.833L703.911 349.594L707.861 350.191L705.633 364.936C705.33 366.942 704.764 368.403 703.935 369.318C702.511 370.892 700.154 371.43 696.865 370.933C694.878 370.633 693.316 369.998 692.179 369.029C691.042 368.06 690.524 366.79 690.625 365.221L695.046 365.889C695.088 366.381 695.221 366.752 695.447 366.999ZM695.975 358.867C696.328 360.263 697.218 361.068 698.644 361.284C699.595 361.427 700.452 361.19 701.217 360.571C701.981 359.952 702.482 358.859 702.719 357.29C702.942 355.816 702.8 354.648 702.293 353.783C701.787 352.919 701.011 352.408 699.965 352.25C698.539 352.035 697.454 352.556 696.709 353.815C696.317 354.485 696.041 355.343 695.883 356.388C695.747 357.292 695.777 358.118 695.975 358.867Z"/>
<path d="M724.767 359.634L723.206 368.731L719.069 368.021L720.687 358.597C720.83 357.763 720.803 357.066 720.607 356.505C720.361 355.722 719.721 355.241 718.688 355.064C717.618 354.88 716.744 355.099 716.066 355.719C715.389 356.339 714.937 357.313 714.709 358.639L713.27 367.026L709.233 366.333L712.817 345.452L716.854 346.145L715.583 353.551C716.325 352.751 717.112 352.24 717.946 352.017C718.779 351.794 719.622 351.756 720.475 351.903C721.432 352.067 722.273 352.382 722.998 352.848C723.723 353.314 724.278 353.931 724.663 354.699C724.99 355.351 725.149 355.99 725.138 356.617C725.128 357.245 725.005 358.25 724.767 359.634Z"/>
<path d="M734.488 367.882L733.919 370.9L731.992 370.61C730.071 370.317 728.83 369.74 728.268 368.881C727.901 368.332 727.809 367.576 727.991 366.612L729.784 357.103L727.63 356.696L728.172 353.819L730.327 354.225L731.139 349.917L735.136 350.671L734.323 354.979L736.832 355.452L736.289 358.329L733.781 357.856L732.242 366.02C732.122 366.653 732.128 367.062 732.259 367.248C732.391 367.435 732.867 367.605 733.689 367.76C733.812 367.783 733.942 367.805 734.08 367.827C734.218 367.848 734.354 367.866 734.488 367.882Z"/>
<path d="M756.886 371.088L749.236 369.414L746.865 373.368L742.328 372.375L754.284 353.23L759.187 354.303L761.996 376.68L757.29 375.65L756.886 371.088ZM756.458 367.244L755.654 358.506L751.189 366.091L756.458 367.244Z"/>
<path d="M778.261 365.268C779.267 366.328 779.628 367.814 779.344 369.724L775.354 368.739C775.424 368.211 775.38 367.77 775.221 367.413C774.916 366.763 774.236 366.308 773.181 366.048C772.313 365.833 771.661 365.816 771.225 365.995C770.79 366.175 770.527 366.447 770.437 366.811C770.324 367.268 770.438 367.648 770.78 367.95C771.119 368.262 772.414 368.973 774.665 370.084C776.159 370.849 777.21 371.708 777.817 372.66C778.412 373.619 778.567 374.673 778.284 375.821C777.91 377.333 777.043 378.428 775.681 379.107C774.32 379.786 772.464 379.835 770.111 379.254C767.712 378.661 766.066 377.717 765.173 376.422C764.28 375.127 764.027 373.695 764.414 372.127L768.461 373.127C768.37 373.857 768.427 374.406 768.633 374.774C768.997 375.428 769.846 375.92 771.18 376.25C771.964 376.443 772.616 376.481 773.136 376.361C773.656 376.242 773.973 375.949 774.089 375.483C774.199 375.035 774.097 374.648 773.781 374.322C773.465 373.997 772.178 373.253 769.92 372.091C768.299 371.235 767.214 370.397 766.664 369.578C766.111 368.768 765.982 367.765 766.277 366.57C766.626 365.161 767.478 364.086 768.834 363.347C770.191 362.607 771.872 362.486 773.879 362.981C775.783 363.452 777.244 364.214 778.261 365.268Z"/>
<path d="M795.749 375.064L791.688 373.949C791.769 373.363 791.719 372.801 791.538 372.262C791.261 371.528 790.654 371.032 789.717 370.775C788.382 370.409 787.287 370.821 786.432 372.012C785.979 372.645 785.592 373.546 785.271 374.714C784.965 375.827 784.85 376.757 784.923 377.505C785.05 378.896 785.767 379.771 787.074 380.13C788.001 380.385 788.728 380.315 789.255 379.921C789.782 379.528 790.197 378.943 790.499 378.169L794.546 379.28C794.123 380.46 793.374 381.481 792.3 382.342C790.581 383.735 788.503 384.097 786.064 383.427C783.626 382.758 782.03 381.542 781.278 379.78C780.525 378.018 780.466 375.982 781.1 373.674C781.815 371.068 783.006 369.217 784.674 368.119C786.341 367.022 788.292 366.78 790.526 367.393C792.427 367.915 793.865 368.768 794.841 369.954C795.817 371.139 796.12 372.842 795.749 375.064Z"/>
<path d="M809.881 385.064C809.507 385.925 808.766 386.689 807.657 387.355C805.923 388.424 803.897 388.604 801.58 387.896C799.668 387.312 798.169 386.18 797.083 384.501C795.998 382.822 795.879 380.594 796.728 377.817C797.523 375.215 798.793 373.421 800.537 372.436C802.281 371.451 804.205 371.28 806.311 371.923C807.561 372.306 808.616 372.884 809.475 373.66C810.334 374.435 810.935 375.428 811.279 376.639C811.595 377.711 811.661 378.862 811.476 380.092C811.366 380.813 811.104 381.818 810.689 383.109L800.4 379.965C799.994 381.49 800.145 382.692 800.851 383.571C801.278 384.114 801.874 384.502 802.637 384.735C803.446 384.983 804.174 384.954 804.82 384.648C805.172 384.484 805.521 384.214 805.867 383.837L809.881 385.064ZM807.399 379.269C807.652 378.21 807.578 377.325 807.177 376.614C806.776 375.904 806.157 375.42 805.32 375.165C804.41 374.886 803.617 374.956 802.942 375.373C802.266 375.79 801.715 376.466 801.289 377.401L807.399 379.269Z"/>
<path d="M822.329 380.753C821.01 380.301 819.913 380.549 819.038 381.499C818.581 382.003 818.194 382.714 817.879 383.633L815.116 391.681L811.242 390.351L816.337 375.51L820.088 376.797L819.343 378.966C820.106 378.374 820.768 377.986 821.329 377.803C822.335 377.477 823.452 377.525 824.68 377.946C826.217 378.474 827.336 379.308 828.037 380.448C828.738 381.589 828.769 383.091 828.129 384.955L824.693 394.968L820.709 393.601L823.814 384.557C824.082 383.775 824.184 383.139 824.118 382.648C823.998 381.753 823.402 381.122 822.329 380.753Z"/>
<path d="M843.594 386.143C844.457 387.323 844.625 388.843 844.1 390.702L840.268 389.216C840.405 388.702 840.418 388.258 840.305 387.884C840.085 387.201 839.469 386.663 838.456 386.27C837.622 385.946 836.978 385.846 836.523 385.969C836.068 386.091 835.773 386.328 835.637 386.677C835.467 387.116 835.532 387.508 835.832 387.851C836.128 388.203 837.322 389.073 839.413 390.462C840.798 391.412 841.731 392.397 842.211 393.419C842.679 394.446 842.699 395.511 842.272 396.613C841.709 398.066 840.709 399.042 839.272 399.542C837.836 400.042 835.988 399.853 833.729 398.977C831.425 398.084 829.913 396.938 829.192 395.539C828.471 394.141 828.402 392.689 828.986 391.183L832.872 392.69C832.689 393.402 832.676 393.954 832.834 394.345C833.111 395.041 833.89 395.637 835.172 396.134C835.925 396.426 836.567 396.546 837.097 396.494C837.628 396.442 837.98 396.192 838.154 395.743C838.321 395.313 838.269 394.916 837.997 394.553C837.725 394.19 836.543 393.288 834.452 391.848C832.953 390.793 831.983 389.823 831.542 388.941C831.097 388.067 831.097 387.056 831.542 385.909C832.067 384.555 833.049 383.598 834.489 383.037C835.928 382.477 837.612 382.57 839.539 383.318C841.368 384.027 842.719 384.969 843.594 386.143Z"/>
<path d="M853.195 389.377L847.042 403.843L843.206 402.212L849.359 387.745L853.195 389.377ZM855.413 384.161L853.928 387.652L850.093 386.02L851.577 382.53L855.413 384.161Z"/>
<path d="M868.332 398.523C868.821 400.594 868.579 402.655 867.609 404.706C866.622 406.792 865.179 408.292 863.278 409.207C861.378 410.121 859.206 410.001 856.764 408.845C854.322 407.69 852.852 406.088 852.353 404.039C851.855 401.989 852.099 399.922 853.086 397.836C854.056 395.784 855.497 394.291 857.407 393.355C859.318 392.418 861.494 392.528 863.937 393.683C866.379 394.839 867.844 396.452 868.332 398.523ZM862.437 396.819C861.351 396.305 860.332 396.294 859.382 396.786C858.431 397.277 857.619 398.236 856.945 399.661C856.27 401.087 856.044 402.325 856.264 403.376C856.485 404.427 857.139 405.209 858.225 405.723C859.312 406.237 860.329 406.245 861.277 405.747C862.225 405.249 863.037 404.287 863.711 402.862C864.385 401.437 864.613 400.202 864.395 399.157C864.176 398.112 863.524 397.333 862.437 396.819Z"/>
<path d="M879.243 405.52C878.025 404.843 876.901 404.894 875.873 405.676C875.333 406.091 874.828 406.723 874.356 407.571L870.219 415.008L866.64 413.016L874.268 399.304L877.734 401.232L876.619 403.236C877.474 402.787 878.194 402.522 878.778 402.44C879.826 402.297 880.917 402.54 882.052 403.171C883.472 403.961 884.426 404.979 884.916 406.225C885.406 407.471 885.171 408.956 884.213 410.678L879.067 419.929L875.387 417.882L880.035 409.526C880.437 408.803 880.649 408.195 880.671 407.701C880.71 406.799 880.234 406.072 879.243 405.52Z"/>
</g>
<path d="M512 48.1065L512 963.924" fill="none" opacity="1" stroke="#adadad" stroke-dasharray="15.0,5.0" stroke-linecap="butt" stroke-linejoin="miter" stroke-width="5"/>
<g opacity="1">
<use fill="#0e8ebf" fill-rule="nonzero" opacity="1" stroke="none" xlink:href="#Fill"/>
<clipPath clip-rule="nonzero" id="ClipPath">
<use xlink:href="#Fill"/>
</clipPath>
<g clip-path="url(#ClipPath)">
<path d="M414.197 510.847L407.232 510.678L399.73 507.404L395.465 502.96L391.41 498.22L384.192 496.623L377.125 494.998L371.116 490.751L368.087 482.929L362.76 473.551L359.221 469.724L356.94 464.722L361.612 454.449L365.761 442.75L369.843 433.771L373.048 426.962C373.048 426.962 376.715 419.717 377.186 419.382C377.657 419.046 381.639 413.779 381.639 413.779L387.774 406.781L393.977 397.949L398.688 394.79L405.821 396.2L412.351 397.88L415.56 402.251L423.375 400.283L433.654 399.318L444.426 397.958L449.145 399.724L452.235 402.55L445.582 405.468L439.417 412.319L432.354 415.688L431.235 422.719L433.969 424.649L437.083 426.474L441.661 422.347L447.201 419.295L450.74 411.437L456.344 408.469L462.762 410.571L465.045 414.787L469.837 418.91L473.571 425.192L473.986 431.836L465.189 433.641L460.647 436.452L462.702 439.269L460.417 442.09L454.107 445.633L448.924 446.078L440.538 449.031L436.666 451.249L428.102 458.754L421.055 462.205L420.181 472.389L417.445 476.38L413.413 477.364L411.59 472.479L408.065 468.68L402.954 470.095L395.141 470.985L389.926 472.286L387.851 479.224L386.567 484.886L388.169 487.784L392.474 487.692L397.75 485.511L403.151 485.532L404.512 488.031L403.513 491.967L404.889 496.112L407.703 500.972L411.162 504.578L416.163 506.49L419.335 505.919" fill="#68c40c" fill-rule="nonzero" opacity="1" stroke="none"/>
<path d="M626.694 397.174L620.762 398.255L613.955 400.557L610.139 399.761L601.835 397.648L586.705 396.462L580.606 398.049L575.151 403.195L568.985 406.611L568.13 409.361L569.446 412.106L573.422 412.825L578.631 413.766L582.045 414.504L587.364 411.576L600.383 410.638L598.06 414.135L589.512 416.938L580.961 419.806L571.649 421.028L565.464 423.955L558.554 428.24L550.347 432.806L549.171 436.474L550.412 438.314L550.932 443.128L544.578 442.97L542.916 445.927L542.898 450.643L545.927 453.615L552.786 453.106L555.535 448.978L560.263 445.128L566.426 441.869C566.426 441.869 573.912 442.561 574.231 442.563L579.713 448.683L583.64 452.079L586.082 452.184L587.836 448.834L585.537 443.118L589.924 446.513L592.181 450.146L595.874 451.597L601.392 448.354L606.549 440.853L609.957 436.653L616.847 435.887L621.232 444.14L621.947 449.637L609.543 447.981L605.072 450.706L603.814 451.706L603.547 453.789C603.547 453.789 604.155 453.914 605.105 454.111C606.056 454.307 607.349 454.573 607.349 454.573L612.274 454.703L614.798 457.058L616.114 463.873L606.945 465.698L610.447 471.602L616.096 472.479L618.953 474.139L622.815 478.419L627.058 484.349L631.557 489.408C631.557 489.408 632.514 491.769 633.483 494.161C634.453 496.553 635.435 498.976 635.435 498.976L643.212 498.34L650.814 492.982L656.243 488.341L658.503 481.734L647.941 478.538L641.833 476.932L633.935 469.889L638.824 468.701L644.118 468.432L654.893 472.671L658.671 475.117L667.326 476.143L665.606 470.402L662.1 452.275L654.508 438.242L647.262 423.924L641.108 413.63L632.183 401.066L627.854 395.666" fill="#68c40c" fill-rule="nonzero" opacity="1" stroke="none"/>
<path d="M418.551 506.097L422.542 504.889L425.388 505.365L427.051 504.906L428.596 504.129L435.004 505.614L441.943 507.669L451.322 512.802L457.821 517.82L460.251 523.285L459.159 526.986L462.137 529.18L471.9 530.731L482.257 533.558L485.415 537.531L486.647 541.22L485.655 547.001L483.671 554.109L483.035 563.485L479.918 570.096L473.697 572.909L470.516 580.555L465.946 587.514L460.738 592.659L457.296 597.121L453.741 603.204L450.368 607.913L450.908 616.349L450.538 623.222L447.639 627.306L441.738 625.828L439.034 622.828C439.034 622.828 435.199 618.005 435.2 617.844C435.2 617.682 434.109 612.02 434.109 612.02L432.396 602.674L429.921 590.089L428.315 579.189L428.002 571.267L426.92 561.58L422.257 554.779L416.518 548.496L411.131 541.757L408.532 535.324L407.845 529.169L409.712 522.152L412.657 516.482L414.074 510.857L418.551 506.097Z" fill="#68c40c" fill-rule="nonzero" opacity="1" stroke="none"/>
<path d="M475.205 393.094L480.663 398.638L478.754 402.846L476.754 409.211L478.34 414.061L483.728 416.648L488.59 413.129L493.158 409.055L500.681 406.788L504.518 405.257L513.471 402.573L518.767 400.862L518.896 395.024L525.36 384.946L523.139 381.251L515.297 379.604L506.89 380.333L499.881 381.766L491.66 381.734L484.196 381.598L478.394 383.231L476.747 387.777L470.458 388.706L472.299 391.955" fill="#68c40c" fill-rule="nonzero" opacity="1" stroke="none"/>
<path d="M538.855 469.258L540.916 463.644L553.221 458.949L568.777 457.254L576.765 458.535L577.809 462.309L585.138 467.457L591.084 466.617L599.414 465.502L606.902 465.743L609.223 467.809L613.337 477.046L619.241 487.629L622.897 495.136L625.934 501.387L630.137 504.899L637.465 505.52L641.65 506.962L640.746 512.517L638.084 517.695L635.041 522.087L630.587 525.64L627.254 532.635L627.11 536.509L626.093 550.125L622.983 557.01L616.204 564.86L614.918 570.967L609.139 578.375L604.999 585.234L596.334 590.296L590.852 591.183L584.841 590L581.668 581.047L578.75 571.574L575.791 562.687L574.142 552.895L575.999 544.88L576.429 532.222L572.153 524.904L569.649 518.137L562.479 514.728L552.672 513.538L543.757 514.642L534.905 514.217L529.896 509.17L524.918 500.575L526.114 493.401L526.994 485.198L528.691 477.906L533.806 471.357L536.374 470.073" fill="#68c40c" fill-rule="nonzero" opacity="1" stroke="none"/>
</g>
</g>
<g fill="#000000" opacity="1" stroke="none">
<path d="M391.927 38.1065L387.484 38.1065L378.802 23.0063L378.802 38.1065L374.663 38.1065L374.663 16.848L379.321 16.848L387.787 31.6886L387.787 16.848L391.927 16.848L391.927 38.1065Z"/>
<path d="M408.844 24.3764C410.171 26.0398 410.834 28.0061 410.834 30.2752C410.834 32.5828 410.171 34.5562 408.844 36.1956C407.517 37.8349 405.503 38.6546 402.801 38.6546C400.099 38.6546 398.085 37.8349 396.758 36.1956C395.431 34.5562 394.768 32.5828 394.768 30.2752C394.768 28.0061 395.431 26.0398 396.758 24.3764C398.085 22.713 400.099 21.8814 402.801 21.8814C405.503 21.8814 407.517 22.713 408.844 24.3764ZM402.787 25.3572C401.585 25.3572 400.659 25.7826 400.01 26.6335C399.361 27.4844 399.037 28.6983 399.037 30.2752C399.037 31.852 399.361 33.0683 400.01 33.924C400.659 34.7798 401.585 35.2076 402.787 35.2076C403.988 35.2076 404.912 34.7798 405.556 33.924C406.2 33.0683 406.522 31.852 406.522 30.2752C406.522 28.6983 406.2 27.4844 405.556 26.6335C404.912 25.7826 403.988 25.3572 402.787 25.3572Z"/>
<path d="M421.68 26.1792C420.026 26.1792 418.916 26.7177 418.348 27.7945C418.031 28.4003 417.872 29.3329 417.872 30.5925L417.872 38.1065L413.733 38.1065L413.733 22.3861L417.656 22.3861L417.656 25.1264C418.291 24.0784 418.844 23.3621 419.315 22.9775C420.084 22.3333 421.084 22.0112 422.315 22.0112C422.391 22.0112 422.456 22.0136 422.509 22.0184C422.562 22.0232 422.68 22.0304 422.863 22.04L422.863 26.2513C422.603 26.2225 422.372 26.2033 422.17 26.1936C421.968 26.184 421.805 26.1792 421.68 26.1792Z"/>
<path d="M432.468 35.1788L432.468 38.2507L430.521 38.3229C428.579 38.3902 427.252 38.0536 426.54 37.3133C426.079 36.8422 425.848 36.1162 425.848 35.1355L425.848 25.4581L423.656 25.4581L423.656 22.5304L425.848 22.5304L425.848 18.146L429.915 18.146L429.915 22.5304L432.468 22.5304L432.468 25.4581L429.915 25.4581L429.915 33.7654C429.915 34.4096 429.997 34.811 430.16 34.9697C430.324 35.1283 430.824 35.2076 431.66 35.2076C431.785 35.2076 431.917 35.2052 432.057 35.2004C432.196 35.1956 432.333 35.1884 432.468 35.1788Z"/>
<path d="M449.313 28.8762L449.313 38.1065L445.116 38.1065L445.116 28.5445C445.116 27.6984 444.972 27.0157 444.684 26.4965C444.309 25.7658 443.597 25.4004 442.549 25.4004C441.463 25.4004 440.638 25.7634 440.076 26.4893C439.513 27.2152 439.232 28.2512 439.232 29.5973L439.232 38.1065L435.136 38.1065L435.136 16.9201L439.232 16.9201L439.232 24.4341C439.828 23.5207 440.518 22.8837 441.302 22.5232C442.085 22.1626 442.91 21.9823 443.775 21.9823C444.746 21.9823 445.628 22.1506 446.421 22.4871C447.215 22.8236 447.866 23.338 448.376 24.0303C448.808 24.6168 449.073 25.2201 449.169 25.8403C449.265 26.4605 449.313 27.4724 449.313 28.8762Z"/>
<path d="M476.687 36.5201C475.1 37.9719 473.072 38.6978 470.601 38.6978C467.543 38.6978 465.139 37.7171 463.389 35.7557C461.639 33.7846 460.765 31.0828 460.765 27.6503C460.765 23.939 461.76 21.0785 463.75 19.069C465.481 17.3191 467.682 16.4441 470.355 16.4441C473.932 16.4441 476.547 17.6171 478.201 19.9632C479.115 21.2804 479.605 22.6025 479.672 23.9293L475.23 23.9293C474.942 22.9102 474.572 22.141 474.12 21.6218C473.312 20.6987 472.115 20.2372 470.528 20.2372C468.913 20.2372 467.639 20.8886 466.707 22.1914C465.774 23.4943 465.308 25.3379 465.308 27.7224C465.308 30.1069 465.8 31.8929 466.786 33.0803C467.771 34.2678 469.024 34.8615 470.543 34.8615C472.101 34.8615 473.288 34.3519 474.105 33.3327C474.557 32.7847 474.932 31.9626 475.23 30.8665L479.629 30.8665C479.244 33.1837 478.264 35.0682 476.687 36.5201Z"/>
<path d="M496.143 33.4914C496.037 34.424 495.551 35.3711 494.686 36.3326C493.34 37.8613 491.455 38.6257 489.032 38.6257C487.032 38.6257 485.268 37.9815 483.739 36.6931C482.211 35.4047 481.446 33.3087 481.446 30.405C481.446 27.684 482.136 25.5975 483.516 24.1457C484.896 22.6938 486.686 21.9679 488.888 21.9679C490.196 21.9679 491.374 22.2131 492.422 22.7034C493.47 23.1938 494.335 23.9678 495.018 25.0254C495.633 25.9581 496.032 27.0398 496.215 28.2705C496.32 28.9916 496.364 30.03 496.345 31.3857L485.585 31.3857C485.643 32.9625 486.138 34.0683 487.071 34.7028C487.638 35.0971 488.321 35.2942 489.119 35.2942C489.965 35.2942 490.652 35.0538 491.181 34.573C491.47 34.3134 491.725 33.9529 491.946 33.4914L496.143 33.4914ZM492.075 28.6743C492.008 27.5878 491.679 26.7633 491.088 26.2009C490.496 25.6384 489.763 25.3572 488.888 25.3572C487.936 25.3572 487.198 25.6552 486.674 26.2513C486.15 26.8475 485.821 27.6551 485.686 28.6743L492.075 28.6743Z"/>
<path d="M499.2 16.848L503.311 16.848L503.311 38.1065L499.2 38.1065L499.2 16.848Z"/>
<path d="M520.776 33.4914C520.67 34.424 520.185 35.3711 519.319 36.3326C517.973 37.8613 516.089 38.6257 513.666 38.6257C511.666 38.6257 509.902 37.9815 508.373 36.6931C506.844 35.4047 506.08 33.3087 506.08 30.405C506.08 27.684 506.769 25.5975 508.149 24.1457C509.529 22.6938 511.32 21.9679 513.522 21.9679C514.829 21.9679 516.007 22.2131 517.055 22.7034C518.103 23.1938 518.968 23.9678 519.651 25.0254C520.266 25.9581 520.665 27.0398 520.848 28.2705C520.954 28.9916 520.997 30.03 520.978 31.3857L510.219 31.3857C510.277 32.9625 510.772 34.0683 511.704 34.7028C512.272 35.0971 512.954 35.2942 513.752 35.2942C514.598 35.2942 515.286 35.0538 515.815 34.573C516.103 34.3134 516.358 33.9529 516.579 33.4914L520.776 33.4914ZM516.709 28.6743C516.642 27.5878 516.312 26.7633 515.721 26.2009C515.13 25.6384 514.397 25.3572 513.522 25.3572C512.57 25.3572 511.832 25.6552 511.308 26.2513C510.784 26.8475 510.454 27.6551 510.32 28.6743L516.709 28.6743Z"/>
<path d="M534.578 23.1073C535.809 23.8957 536.516 25.2514 536.698 27.1744L532.588 27.1744C532.53 26.6455 532.381 26.2273 532.141 25.9196C531.689 25.362 530.92 25.0831 529.833 25.0831C528.939 25.0831 528.302 25.2225 527.922 25.5014C527.543 25.7802 527.353 26.1071 527.353 26.4821C527.353 26.9532 527.555 27.2946 527.958 27.5061C528.362 27.7272 529.79 28.107 532.242 28.6455C533.876 29.03 535.102 29.6117 535.919 30.3906C536.727 31.179 537.131 32.1645 537.131 33.3471C537.131 34.9048 536.552 36.1763 535.393 37.1619C534.234 38.1474 532.444 38.6402 530.021 38.6402C527.55 38.6402 525.725 38.1185 524.547 37.0753C523.37 36.0321 522.781 34.7028 522.781 33.0875L526.949 33.0875C527.035 33.8183 527.223 34.3375 527.511 34.6452C528.021 35.1932 528.963 35.4672 530.338 35.4672C531.146 35.4672 531.787 35.347 532.263 35.1067C532.739 34.8663 532.977 34.5057 532.977 34.025C532.977 33.5635 532.785 33.2125 532.4 32.9722C532.016 32.7318 530.588 32.3183 528.117 31.7318C526.338 31.2896 525.083 30.7367 524.353 30.0733C523.622 29.4195 523.257 28.4772 523.257 27.2465C523.257 25.7946 523.826 24.5471 524.966 23.5039C526.105 22.4607 527.708 21.939 529.776 21.939C531.737 21.939 533.338 22.3285 534.578 23.1073Z"/>
<path d="M547.371 35.1788L547.371 38.2507L545.424 38.3229C543.482 38.3902 542.155 38.0536 541.443 37.3133C540.982 36.8422 540.751 36.1162 540.751 35.1355L540.751 25.4581L538.559 25.4581L538.559 22.5304L540.751 22.5304L540.751 18.146L544.818 18.146L544.818 22.5304L547.371 22.5304L547.371 25.4581L544.818 25.4581L544.818 33.7654C544.818 34.4096 544.9 34.811 545.063 34.9697C545.227 35.1283 545.727 35.2076 546.563 35.2076C546.688 35.2076 546.82 35.2052 546.96 35.2004C547.099 35.1956 547.236 35.1884 547.371 35.1788Z"/>
<path d="M554.236 22.3861L554.236 38.1065L550.068 38.1065L550.068 22.3861L554.236 22.3861ZM554.236 16.7182L554.236 20.5112L550.068 20.5112L550.068 16.7182L554.236 16.7182Z"/>
<path d="M558.808 24.088C559.894 22.7034 561.76 22.0112 564.404 22.0112C566.125 22.0112 567.654 22.3525 568.99 23.0351C570.326 23.7178 570.995 25.0062 570.995 26.9003L570.995 34.1115C570.995 34.6115 571.004 35.2172 571.024 35.9287C571.052 36.4672 571.134 36.8325 571.269 37.0248C571.403 37.2171 571.605 37.3758 571.874 37.5008L571.874 38.1065L567.404 38.1065C567.279 37.7892 567.192 37.4912 567.144 37.2123C567.096 36.9335 567.057 36.6162 567.029 36.2605C566.461 36.8758 565.807 37.3998 565.067 37.8325C564.183 38.3421 563.183 38.5969 562.067 38.5969C560.644 38.5969 559.469 38.1907 558.541 37.3782C557.613 36.5657 557.149 35.4143 557.149 33.924C557.149 31.9914 557.894 30.5925 559.385 29.7271C560.202 29.256 561.404 28.9195 562.99 28.7176L564.389 28.5445C565.149 28.4483 565.692 28.3282 566.019 28.1839C566.605 27.9339 566.899 27.5445 566.899 27.0157C566.899 26.3715 566.675 25.9268 566.228 25.6817C565.781 25.4365 565.125 25.3139 564.259 25.3139C563.288 25.3139 562.601 25.5543 562.197 26.035C561.909 26.3908 561.716 26.8715 561.62 27.4772L557.654 27.4772C557.741 26.1023 558.125 24.9726 558.808 24.088ZM561.865 35.1355C562.25 35.4528 562.721 35.6115 563.279 35.6115C564.163 35.6115 564.978 35.3519 565.723 34.8326C566.468 34.3134 566.855 33.3664 566.884 31.9914L566.884 30.4627C566.625 30.6261 566.363 30.7583 566.098 30.8593C565.834 30.9602 565.471 31.054 565.009 31.1405L564.086 31.3136C563.221 31.4674 562.601 31.6549 562.226 31.8761C561.591 32.251 561.274 32.8327 561.274 33.6212C561.274 34.3231 561.471 34.8278 561.865 35.1355Z"/>
<path d="M574.73 16.848L578.84 16.848L578.84 38.1065L574.73 38.1065L574.73 16.848Z"/>
<path d="M600.416 30.4627L595.902 30.4627L595.902 38.1065L591.489 38.1065L591.489 16.848L600.748 16.848C602.883 16.848 604.584 17.396 605.854 18.4921C607.123 19.5882 607.757 21.2852 607.757 23.5832C607.757 26.0927 607.123 27.8666 605.854 28.9051C604.584 29.9435 602.772 30.4627 600.416 30.4627ZM602.493 26.035C603.07 25.5254 603.358 24.7178 603.358 23.612C603.358 22.5063 603.068 21.7179 602.486 21.2468C601.904 20.7756 601.089 20.5401 600.041 20.5401L595.902 20.5401L595.902 26.7994L600.041 26.7994C601.089 26.7994 601.907 26.5446 602.493 26.035Z"/>
<path d="M623.867 24.3764C625.194 26.0398 625.857 28.0061 625.857 30.2752C625.857 32.5828 625.194 34.5562 623.867 36.1956C622.54 37.8349 620.526 38.6546 617.824 38.6546C615.122 38.6546 613.108 37.8349 611.781 36.1956C610.454 34.5562 609.791 32.5828 609.791 30.2752C609.791 28.0061 610.454 26.0398 611.781 24.3764C613.108 22.713 615.122 21.8814 617.824 21.8814C620.526 21.8814 622.54 22.713 623.867 24.3764ZM617.81 25.3572C616.608 25.3572 615.682 25.7826 615.033 26.6335C614.384 27.4844 614.06 28.6983 614.06 30.2752C614.06 31.852 614.384 33.0683 615.033 33.924C615.682 34.7798 616.608 35.2076 617.81 35.2076C619.012 35.2076 619.935 34.7798 620.579 33.924C621.223 33.0683 621.545 31.852 621.545 30.2752C621.545 28.6983 621.223 27.4844 620.579 26.6335C619.935 25.7826 619.012 25.3572 617.81 25.3572Z"/>
<path d="M628.886 16.848L632.996 16.848L632.996 38.1065L628.886 38.1065L628.886 16.848Z"/>
<path d="M650.462 33.4914C650.356 34.424 649.871 35.3711 649.005 36.3326C647.659 37.8613 645.775 38.6257 643.352 38.6257C641.352 38.6257 639.587 37.9815 638.059 36.6931C636.53 35.4047 635.766 33.3087 635.766 30.405C635.766 27.684 636.455 25.5975 637.835 24.1457C639.215 22.6938 641.006 21.9679 643.207 21.9679C644.515 21.9679 645.693 22.2131 646.741 22.7034C647.789 23.1938 648.654 23.9678 649.337 25.0254C649.952 25.9581 650.351 27.0398 650.534 28.2705C650.64 28.9916 650.683 30.03 650.664 31.3857L639.905 31.3857C639.962 32.9625 640.458 34.0683 641.39 34.7028C641.958 35.0971 642.64 35.2942 643.438 35.2942C644.284 35.2942 644.972 35.0538 645.501 34.573C645.789 34.3134 646.044 33.9529 646.265 33.4914L650.462 33.4914ZM646.395 28.6743C646.328 27.5878 645.998 26.7633 645.407 26.2009C644.816 25.6384 644.082 25.3572 643.207 25.3572C642.256 25.3572 641.518 25.6552 640.994 26.2513C640.47 26.8475 640.14 27.6551 640.006 28.6743L646.395 28.6743Z"/>
</g>
<g fill="#000000" opacity="1" stroke="none">
<path d="M379.992 989.852C381.04 989.852 381.891 989.737 382.545 989.506C383.785 989.064 384.405 988.242 384.405 987.04C384.405 986.338 384.098 985.795 383.482 985.41C382.867 985.035 381.901 984.703 380.583 984.415L378.333 983.91C376.122 983.41 374.593 982.867 373.747 982.281C372.315 981.3 371.598 979.766 371.598 977.68C371.598 975.776 372.291 974.194 373.675 972.935C375.06 971.675 377.093 971.046 379.776 971.046C382.016 971.046 383.927 971.639 385.509 972.827C387.09 974.014 387.92 975.738 387.996 977.997L383.727 977.997C383.651 976.718 383.093 975.81 382.054 975.271C381.362 974.916 380.502 974.738 379.473 974.738C378.329 974.738 377.415 974.968 376.733 975.43C376.05 975.891 375.709 976.536 375.709 977.363C375.709 978.122 376.045 978.689 376.718 979.064C377.151 979.314 378.074 979.608 379.487 979.944L383.151 980.824C384.756 981.208 385.968 981.723 386.785 982.367C388.054 983.367 388.689 984.814 388.689 986.708C388.689 988.65 387.946 990.263 386.461 991.547C384.975 992.83 382.877 993.472 380.165 993.472C377.396 993.472 375.218 992.84 373.632 991.576C372.045 990.311 371.252 988.573 371.252 986.362L375.492 986.362C375.627 987.333 375.891 988.059 376.286 988.54C377.007 989.415 378.242 989.852 379.992 989.852Z"/>
<path d="M404.755 979.194C406.082 980.858 406.746 982.824 406.746 985.093C406.746 987.4 406.082 989.374 404.755 991.013C403.428 992.653 401.414 993.472 398.712 993.472C396.011 993.472 393.996 992.653 392.669 991.013C391.342 989.374 390.679 987.4 390.679 985.093C390.679 982.824 391.342 980.858 392.669 979.194C393.996 977.531 396.011 976.699 398.712 976.699C401.414 976.699 403.428 977.531 404.755 979.194ZM398.698 980.175C397.496 980.175 396.571 980.6 395.922 981.451C395.273 982.302 394.948 983.516 394.948 985.093C394.948 986.67 395.273 987.886 395.922 988.742C396.571 989.597 397.496 990.025 398.698 990.025C399.9 990.025 400.823 989.597 401.467 988.742C402.111 987.886 402.433 986.67 402.433 985.093C402.433 983.516 402.111 982.302 401.467 981.451C400.823 980.6 399.9 980.175 398.698 980.175Z"/>
<path d="M419.769 990.703C419.73 990.751 419.634 990.895 419.481 991.136C419.327 991.376 419.144 991.588 418.932 991.77C418.288 992.347 417.666 992.742 417.065 992.953C416.464 993.165 415.76 993.27 414.952 993.27C412.625 993.27 411.058 992.434 410.25 990.761C409.798 989.838 409.572 988.477 409.572 986.679L409.572 977.204L413.784 977.204L413.784 986.679C413.784 987.574 413.889 988.247 414.101 988.698C414.476 989.497 415.211 989.896 416.308 989.896C417.711 989.896 418.673 989.328 419.192 988.194C419.461 987.578 419.596 986.766 419.596 985.756L419.596 977.204L423.764 977.204L423.764 992.924L419.769 992.924L419.769 990.703Z"/>
<path d="M434.927 989.997L434.927 993.068L432.98 993.141C431.038 993.208 429.711 992.871 428.999 992.131C428.538 991.66 428.307 990.934 428.307 989.953L428.307 980.276L426.115 980.276L426.115 977.348L428.307 977.348L428.307 972.964L432.374 972.964L432.374 977.348L434.927 977.348L434.927 980.276L432.374 980.276L432.374 988.583C432.374 989.227 432.456 989.629 432.619 989.787C432.783 989.946 433.283 990.025 434.119 990.025C434.244 990.025 434.376 990.023 434.516 990.018C434.655 990.013 434.792 990.006 434.927 989.997Z"/>
<path d="M451.772 983.694L451.772 992.924L447.575 992.924L447.575 983.362C447.575 982.516 447.431 981.833 447.143 981.314C446.768 980.584 446.056 980.218 445.008 980.218C443.922 980.218 443.097 980.581 442.535 981.307C441.972 982.033 441.691 983.069 441.691 984.415L441.691 992.924L437.595 992.924L437.595 971.738L441.691 971.738L441.691 979.252C442.287 978.338 442.977 977.701 443.761 977.341C444.544 976.98 445.369 976.8 446.234 976.8C447.205 976.8 448.087 976.968 448.881 977.305C449.674 977.641 450.325 978.156 450.835 978.848C451.267 979.435 451.532 980.038 451.628 980.658C451.724 981.278 451.772 982.29 451.772 983.694Z"/>
<path d="M479.146 991.338C477.559 992.79 475.531 993.516 473.06 993.516C470.002 993.516 467.598 992.535 465.848 990.573C464.099 988.602 463.224 985.901 463.224 982.468C463.224 978.757 464.219 975.896 466.209 973.887C467.94 972.137 470.141 971.262 472.814 971.262C476.391 971.262 479.006 972.435 480.66 974.781C481.574 976.098 482.064 977.42 482.131 978.747L477.689 978.747C477.401 977.728 477.031 976.959 476.579 976.439C475.771 975.516 474.574 975.055 472.987 975.055C471.372 975.055 470.098 975.706 469.166 977.009C468.233 978.312 467.767 980.156 467.767 982.54C467.767 984.925 468.259 986.711 469.245 987.898C470.23 989.085 471.483 989.679 473.002 989.679C474.56 989.679 475.747 989.17 476.564 988.15C477.016 987.602 477.391 986.78 477.689 985.684L482.088 985.684C481.703 988.001 480.723 989.886 479.146 991.338Z"/>
<path d="M498.602 988.309C498.496 989.242 498.01 990.189 497.145 991.15C495.799 992.679 493.914 993.443 491.491 993.443C489.491 993.443 487.727 992.799 486.198 991.511C484.67 990.222 483.905 988.126 483.905 985.223C483.905 982.502 484.595 980.415 485.975 978.963C487.355 977.512 489.145 976.786 491.347 976.786C492.655 976.786 493.833 977.031 494.881 977.521C495.929 978.012 496.794 978.786 497.477 979.843C498.092 980.776 498.491 981.857 498.674 983.088C498.779 983.809 498.823 984.848 498.804 986.203L488.044 986.203C488.102 987.78 488.597 988.886 489.53 989.521C490.097 989.915 490.78 990.112 491.578 990.112C492.424 990.112 493.112 989.872 493.64 989.391C493.929 989.131 494.184 988.771 494.405 988.309L498.602 988.309ZM494.535 983.492C494.467 982.406 494.138 981.581 493.547 981.019C492.955 980.456 492.222 980.175 491.347 980.175C490.395 980.175 489.657 980.473 489.133 981.069C488.609 981.665 488.28 982.473 488.145 983.492L494.535 983.492Z"/>
<path d="M501.659 971.666L505.77 971.666L505.77 992.924L501.659 992.924L501.659 971.666Z"/>
<path d="M523.235 988.309C523.129 989.242 522.644 990.189 521.778 991.15C520.432 992.679 518.548 993.443 516.125 993.443C514.125 993.443 512.361 992.799 510.832 991.511C509.303 990.222 508.539 988.126 508.539 985.223C508.539 982.502 509.229 980.415 510.608 978.963C511.988 977.512 513.779 976.786 515.981 976.786C517.288 976.786 518.466 977.031 519.514 977.521C520.562 978.012 521.427 978.786 522.11 979.843C522.725 980.776 523.124 981.857 523.307 983.088C523.413 983.809 523.456 984.848 523.437 986.203L512.678 986.203C512.736 987.78 513.231 988.886 514.163 989.521C514.731 989.915 515.413 990.112 516.211 990.112C517.057 990.112 517.745 989.872 518.274 989.391C518.562 989.131 518.817 988.771 519.038 988.309L523.235 988.309ZM519.168 983.492C519.101 982.406 518.771 981.581 518.18 981.019C517.589 980.456 516.856 980.175 515.981 980.175C515.029 980.175 514.291 980.473 513.767 981.069C513.243 981.665 512.913 982.473 512.779 983.492L519.168 983.492Z"/>
<path d="M537.037 977.925C538.268 978.713 538.975 980.069 539.157 981.992L535.047 981.992C534.989 981.463 534.84 981.045 534.6 980.737C534.148 980.18 533.379 979.901 532.292 979.901C531.398 979.901 530.761 980.04 530.381 980.319C530.002 980.598 529.812 980.925 529.812 981.3C529.812 981.771 530.014 982.112 530.417 982.324C530.821 982.545 532.249 982.925 534.701 983.463C536.335 983.848 537.561 984.429 538.379 985.208C539.186 985.997 539.59 986.982 539.59 988.165C539.59 989.722 539.011 990.994 537.852 991.98C536.693 992.965 534.903 993.458 532.48 993.458C530.009 993.458 528.184 992.936 527.006 991.893C525.829 990.85 525.24 989.521 525.24 987.905L529.408 987.905C529.494 988.636 529.682 989.155 529.97 989.463C530.48 990.011 531.422 990.285 532.797 990.285C533.605 990.285 534.247 990.165 534.722 989.924C535.198 989.684 535.436 989.323 535.436 988.843C535.436 988.381 535.244 988.03 534.859 987.79C534.475 987.55 533.047 987.136 530.576 986.55C528.797 986.107 527.543 985.554 526.812 984.891C526.081 984.237 525.716 983.295 525.716 982.064C525.716 980.612 526.285 979.365 527.425 978.322C528.564 977.278 530.167 976.757 532.235 976.757C534.196 976.757 535.797 977.146 537.037 977.925Z"/>
<path d="M549.83 989.997L549.83 993.068L547.883 993.141C545.941 993.208 544.614 992.871 543.902 992.131C543.441 991.66 543.21 990.934 543.21 989.953L543.21 980.276L541.018 980.276L541.018 977.348L543.21 977.348L543.21 972.964L547.277 972.964L547.277 977.348L549.83 977.348L549.83 980.276L547.277 980.276L547.277 988.583C547.277 989.227 547.359 989.629 547.522 989.787C547.686 989.946 548.186 990.025 549.022 990.025C549.147 990.025 549.279 990.023 549.419 990.018C549.558 990.013 549.695 990.006 549.83 989.997Z"/>
<path d="M556.695 977.204L556.695 992.924L552.527 992.924L552.527 977.204L556.695 977.204ZM556.695 971.536L556.695 975.329L552.527 975.329L552.527 971.536L556.695 971.536Z"/>
<path d="M561.267 978.906C562.353 977.521 564.219 976.829 566.863 976.829C568.584 976.829 570.113 977.17 571.449 977.853C572.785 978.536 573.454 979.824 573.454 981.718L573.454 988.929C573.454 989.429 573.463 990.035 573.483 990.746C573.511 991.285 573.593 991.65 573.728 991.843C573.862 992.035 574.064 992.194 574.333 992.319L574.333 992.924L569.863 992.924C569.738 992.607 569.651 992.309 569.603 992.03C569.555 991.751 569.516 991.434 569.488 991.078C568.92 991.694 568.266 992.218 567.526 992.65C566.642 993.16 565.642 993.415 564.526 993.415C563.103 993.415 561.928 993.008 561 992.196C560.072 991.383 559.608 990.232 559.608 988.742C559.608 986.809 560.353 985.41 561.844 984.545C562.661 984.074 563.863 983.737 565.449 983.535L566.848 983.362C567.608 983.266 568.151 983.146 568.478 983.002C569.065 982.752 569.358 982.362 569.358 981.833C569.358 981.189 569.134 980.745 568.687 980.499C568.24 980.254 567.584 980.132 566.718 980.132C565.747 980.132 565.06 980.372 564.656 980.853C564.368 981.208 564.175 981.689 564.079 982.295L560.113 982.295C560.2 980.92 560.584 979.79 561.267 978.906ZM564.324 989.953C564.709 990.271 565.18 990.429 565.738 990.429C566.622 990.429 567.437 990.17 568.182 989.65C568.927 989.131 569.314 988.184 569.343 986.809L569.343 985.28C569.084 985.444 568.822 985.576 568.557 985.677C568.293 985.778 567.93 985.872 567.468 985.958L566.545 986.131C565.68 986.285 565.06 986.473 564.685 986.694C564.05 987.069 563.733 987.65 563.733 988.439C563.733 989.141 563.93 989.646 564.324 989.953Z"/>
<path d="M577.189 971.666L581.299 971.666L581.299 992.924L577.189 992.924L577.189 971.666Z"/>
<path d="M602.875 985.28L598.361 985.28L598.361 992.924L593.948 992.924L593.948 971.666L603.207 971.666C605.342 971.666 607.043 972.214 608.313 973.31C609.582 974.406 610.216 976.103 610.216 978.401C610.216 980.91 609.582 982.684 608.313 983.723C607.043 984.761 605.231 985.28 602.875 985.28ZM604.952 980.853C605.529 980.343 605.818 979.535 605.818 978.43C605.818 977.324 605.527 976.536 604.945 976.064C604.363 975.593 603.548 975.358 602.5 975.358L598.361 975.358L598.361 981.617L602.5 981.617C603.548 981.617 604.366 981.362 604.952 980.853Z"/>
<path d="M626.326 979.194C627.653 980.858 628.316 982.824 628.316 985.093C628.316 987.4 627.653 989.374 626.326 991.013C624.999 992.653 622.985 993.472 620.283 993.472C617.581 993.472 615.567 992.653 614.24 991.013C612.913 989.374 612.25 987.4 612.25 985.093C612.25 982.824 612.913 980.858 614.24 979.194C615.567 977.531 617.581 976.699 620.283 976.699C622.985 976.699 624.999 977.531 626.326 979.194ZM620.269 980.175C619.067 980.175 618.141 980.6 617.492 981.451C616.843 982.302 616.519 983.516 616.519 985.093C616.519 986.67 616.843 987.886 617.492 988.742C618.141 989.597 619.067 990.025 620.269 990.025C621.471 990.025 622.394 989.597 623.038 988.742C623.682 987.886 624.004 986.67 624.004 985.093C624.004 983.516 623.682 982.302 623.038 981.451C622.394 980.6 621.471 980.175 620.269 980.175Z"/>
<path d="M631.345 971.666L635.455 971.666L635.455 992.924L631.345 992.924L631.345 971.666Z"/>
<path d="M652.921 988.309C652.815 989.242 652.33 990.189 651.464 991.15C650.118 992.679 648.234 993.443 645.811 993.443C643.811 993.443 642.046 992.799 640.518 991.511C638.989 990.222 638.225 988.126 638.225 985.223C638.225 982.502 638.914 980.415 640.294 978.963C641.674 977.512 643.465 976.786 645.667 976.786C646.974 976.786 648.152 977.031 649.2 977.521C650.248 978.012 651.113 978.786 651.796 979.843C652.411 980.776 652.81 981.857 652.993 983.088C653.099 983.809 653.142 984.848 653.123 986.203L642.364 986.203C642.421 987.78 642.917 988.886 643.849 989.521C644.417 989.915 645.099 990.112 645.897 990.112C646.743 990.112 647.431 989.872 647.96 989.391C648.248 989.131 648.503 988.771 648.724 988.309L652.921 988.309ZM648.854 983.492C648.787 982.406 648.457 981.581 647.866 981.019C647.275 980.456 646.541 980.175 645.667 980.175C644.715 980.175 643.977 980.473 643.453 981.069C642.929 981.665 642.599 982.473 642.465 983.492L648.854 983.492Z"/>
</g>
<path d="M512 363.656C489.217 363.656 466.844 364.391 444.781 365.5C437.58 368.972 430.624 372.877 424.094 377.375C425.371 377.289 426.594 377.144 427.875 377.062C455.244 375.314 483.401 374.406 512 374.406C540.599 374.406 568.755 375.314 596.125 377.062C597.406 377.144 598.629 377.289 599.906 377.375C593.376 372.877 586.42 368.972 579.219 365.5C557.156 364.391 534.783 363.656 512 363.656Z" fill="#eb493a" fill-rule="nonzero" opacity="0" stroke="none"/>
<g opacity="1">
<path d="M423.617 633.042C430.196 637.574 437.205 641.509 444.46 645.007C466.689 646.124 489.231 646.864 512.185 646.864C535.14 646.864 557.682 646.124 579.911 645.007C587.166 641.509 594.175 637.574 600.754 633.042C599.467 633.128 598.235 633.274 596.944 633.357C569.368 635.119 541 636.033 512.185 636.033C483.371 636.033 455.002 635.119 427.427 633.357C426.136 633.274 424.904 633.128 423.617 633.042Z" fill="#eb493a" fill-rule="nonzero" opacity="1" stroke="none"/>
<path d="M579.219 365.5C586.42 368.972 593.376 372.877 599.906 377.375C625.925 379.117 651.267 381.558 675.562 384.781C701.051 388.162 725.451 392.32 748.406 397.219C771.362 402.117 792.885 407.731 812.656 414.031C832.058 420.213 849.35 426.935 864.375 434.031C879.4 441.127 892.136 448.612 902.469 456.375C912.802 464.138 920.738 472.16 926.062 480.344C931.387 488.527 934.125 496.861 934.125 505.219C934.125 513.576 931.387 521.91 926.062 530.094C920.738 538.277 912.802 546.331 902.469 554.094C892.136 561.857 879.4 569.341 864.375 576.438C849.35 583.533 832.058 590.224 812.656 596.406C792.885 602.706 771.362 608.352 748.406 613.25C725.451 618.148 701.051 622.306 675.562 625.688C651.267 628.91 625.925 631.352 599.906 633.094C593.376 637.592 586.42 641.497 579.219 644.969C585.104 644.673 591.087 644.497 596.906 644.125C624.542 642.358 651.397 639.734 677.156 636.312C702.916 632.891 727.58 628.681 750.812 623.719C774.045 618.756 795.852 613.046 815.906 606.656C836.33 600.148 854.612 593.056 870.531 585.438C886.45 577.819 900.018 569.657 911.031 561.094C922.045 552.531 930.48 543.56 936.188 534.219C941.895 524.878 944.844 515.17 944.844 505.219C944.844 495.267 941.895 485.591 936.188 476.25C930.48 466.909 922.045 457.907 911.031 449.344C900.018 440.78 886.45 432.65 870.531 425.031C854.612 417.412 836.33 410.32 815.906 403.812C795.852 397.422 774.045 391.713 750.812 386.75C727.58 381.787 702.916 377.578 677.156 374.156C651.397 370.735 624.542 368.111 596.906 366.344C591.087 365.972 585.104 365.796 579.219 365.5Z" fill="#eb493a" fill-rule="nonzero" opacity="1" stroke="none"/>
</g>
<path d="M651.5 432.469C652.799 456.291 653.563 480.535 653.562 505.219C653.563 530.619 652.749 555.581 651.375 580.062C663.174 558.044 669.938 532.916 669.938 506.188C669.938 479.538 663.234 454.441 651.5 432.469Z" fill="#eb493a" fill-rule="nonzero" opacity="0" stroke="none"/>
<path d="M513.219 349.469C459.645 349.469 412.388 376.395 384.125 417.406C382.215 445.959 381.156 475.304 381.156 505.219C381.156 535.884 382.276 565.963 384.281 595.188C412.561 636.074 459.742 662.906 513.219 662.906C565.085 662.906 610.914 637.601 639.438 598.781C641.609 568.426 642.844 537.155 642.844 505.219C642.844 474.034 641.667 443.501 639.594 413.812C611.082 374.869 565.181 349.469 513.219 349.469Z" fill="#eb493a" fill-rule="nonzero" opacity="0" stroke="none"/>
<path d="M372.25 438.031C362.257 458.659 356.5 481.728 356.5 506.188C356.5 530.726 362.289 553.852 372.344 574.531C371.165 551.805 370.438 528.717 370.438 505.219C370.437 482.446 371.142 460.084 372.25 438.031Z" fill="#eb493a" fill-rule="nonzero" opacity="0" stroke="none"/>
<path d="M384.125 417.406C379.631 423.927 375.73 430.848 372.25 438.031C371.142 460.084 370.437 482.446 370.438 505.219C370.438 528.717 371.165 551.805 372.344 574.531C375.841 581.723 379.768 588.662 384.281 595.188C382.276 565.963 381.156 535.884 381.156 505.219C381.156 475.304 382.215 445.959 384.125 417.406Z" fill="#cdcf65" fill-rule="nonzero" opacity="0" stroke="none"/>
<g opacity="1">
<path d="M639.595 412.455C641.683 442.398 642.869 473.193 642.869 504.646C642.869 536.856 641.625 568.396 639.438 599.012C643.845 593.006 647.925 586.743 651.463 580.133C652.847 555.44 653.666 530.265 653.666 504.646C653.666 479.751 652.897 455.298 651.589 431.271C648.068 424.67 643.983 418.455 639.595 412.455Z" fill="#d4d657" fill-rule="nonzero" opacity="1" stroke="none"/>
<path d="M512 72.375C472.194 72.375 436.593 119.619 410.562 201.312C390.044 265.705 376.758 348.292 372.25 438.031C375.73 430.848 379.631 423.927 384.125 417.406C389.519 336.77 402.203 262.998 420.812 204.594C445.541 126.986 478.571 83.125 512 83.125C545.429 83.125 578.459 126.986 603.188 204.594C621.517 262.119 634.063 334.596 639.594 413.812C643.949 419.762 648.005 425.924 651.5 432.469C646.724 344.879 633.532 264.378 613.438 201.312C587.407 119.619 551.806 72.375 512 72.375Z" fill="#d4d657" fill-rule="nonzero" opacity="1" stroke="none"/>
<path d="M372.25 572.293C376.864 661.762 390.117 744.049 410.482 808.331C436.521 890.528 472.134 938.094 511.953 938.094C551.772 938.094 587.385 890.528 613.425 808.331C633.368 745.379 646.501 665.176 651.375 577.858C647.862 584.453 643.81 590.701 639.433 596.692C633.824 675.554 621.342 747.704 603.171 805.061C578.434 883.146 545.394 927.278 511.953 927.278C478.513 927.277 445.472 883.146 420.735 805.061C402.285 746.82 389.669 673.365 384.192 593.076C379.677 586.511 375.748 579.529 372.25 572.293Z" fill="#d4d657" fill-rule="nonzero" opacity="1" stroke="none"/>
</g>
<path d="M444.781 365.5C438.896 365.796 432.913 365.972 427.094 366.344C399.458 368.111 372.603 370.735 346.844 374.156C321.084 377.578 296.42 381.787 273.188 386.75C249.955 391.713 228.148 397.422 208.094 403.812C187.67 410.32 169.388 417.412 153.469 425.031C137.55 432.65 123.982 440.78 112.969 449.344C101.955 457.907 93.5196 466.909 87.8125 476.25C82.1054 485.591 79.1563 495.267 79.1563 505.219C79.1563 515.17 82.1054 524.878 87.8125 534.219C93.5196 543.559 101.955 552.531 112.969 561.094C123.982 569.657 137.55 577.819 153.469 585.438C169.388 593.056 187.67 600.149 208.094 606.656C228.148 613.046 249.955 618.756 273.188 623.719C296.42 628.681 321.084 632.891 346.844 636.312C372.603 639.734 399.458 642.358 427.094 644.125C432.913 644.497 438.896 644.673 444.781 644.969C437.58 641.497 430.624 637.592 424.094 633.094C398.075 631.352 372.733 628.911 348.438 625.688C322.949 622.306 298.549 618.148 275.594 613.25C252.638 608.352 231.115 602.706 211.344 596.406C191.942 590.224 174.65 583.534 159.625 576.438C144.6 569.341 131.864 561.857 121.531 554.094C111.198 546.331 103.262 538.277 97.9375 530.094C92.613 521.91 89.875 513.576 89.875 505.219C89.875 496.861 92.613 488.527 97.9375 480.344C103.262 472.16 111.198 464.138 121.531 456.375C131.864 448.612 144.6 441.127 159.625 434.031C174.65 426.935 191.942 420.213 211.344 414.031C231.115 407.731 252.638 402.117 275.594 397.219C298.549 392.32 322.949 388.163 348.438 384.781C372.733 381.558 398.075 379.117 424.094 377.375C430.624 372.877 437.58 368.972 444.781 365.5Z" fill="#eb493a" fill-rule="nonzero" opacity="1" stroke="none"/>
<g opacity="1">
<path d="M293.368 269.34L289.067 253.429L272.571 249.28L289.067 245.132L293.368 229.221L297.669 245.132L314.165 249.28L297.669 253.429L293.368 269.34Z" fill="#ffffff" fill-opacity="0.75" fill-rule="nonzero" opacity="1" stroke="none"/>
<path d="M191.744 490.083L187.894 475.84L173.128 472.126L187.894 468.412L191.744 454.17L195.595 468.412L210.361 472.126L195.595 475.84L191.744 490.083Z" fill="#ffffff" fill-opacity="0.75" fill-rule="nonzero" opacity="1" stroke="none"/>
<path d="M330.759 838.782L328.675 825.679L317.595 833.523L325.728 822.836L312.143 820.826L325.728 818.816L317.595 808.129L328.675 815.974L330.759 802.87L332.843 815.974L343.923 808.129L335.79 818.816L349.375 820.826L335.79 822.836L343.923 833.523L332.843 825.679L330.759 838.782Z" fill="#ffffff" fill-opacity="0.75" fill-rule="nonzero" opacity="1" stroke="none"/>
<path d="M815.031 542.095L811.181 527.852L796.415 524.138L811.181 520.425L815.031 506.182L818.881 520.425L833.647 524.138L818.881 527.852L815.031 542.095Z" fill="#ffffff" fill-opacity="0.75" fill-rule="nonzero" opacity="1" stroke="none"/>
<path d="M682.648 820.826L679.456 809.018L667.214 805.939L679.456 802.86L682.648 791.052L685.841 802.86L698.083 805.939L685.841 809.018L682.648 820.826Z" fill="#ffffff" fill-opacity="0.75" fill-rule="nonzero" opacity="1" stroke="none"/>
<path d="M796.415 713.873L793.692 700.465L780.293 704.895L790.97 695.917L780.293 686.939L793.692 691.368L796.415 677.96L799.137 691.368L812.537 686.939L801.86 695.917L812.537 704.895L799.137 700.465L796.415 713.873Z" fill="#ffffff" fill-opacity="0.75" fill-rule="nonzero" opacity="1" stroke="none"/>
<path d="M210.008 350.017L207.285 336.61L193.886 341.039L204.563 332.061L193.886 323.083L207.285 327.513L210.008 314.105L212.731 327.513L226.13 323.083L215.453 332.061L226.13 341.039L212.731 336.61L210.008 350.017Z" fill="#ffffff" fill-opacity="0.75" fill-rule="nonzero" opacity="1" stroke="none"/>
<path d="M661.879 181.179L658.029 166.937L643.263 163.223L658.029 159.509L661.879 145.266L665.73 159.509L680.496 163.223L665.73 166.937L661.879 181.179Z" fill="#ffffff" fill-opacity="0.75" fill-rule="nonzero" opacity="1" stroke="none"/>
<path d="M760.363 287.296L758.147 273.361L746.364 281.703L755.013 270.339L740.566 268.201L755.013 266.064L746.364 254.699L758.147 263.041L760.363 249.106L762.579 263.041L774.361 254.699L765.712 266.064L780.159 268.201L765.712 270.339L774.361 281.703L762.579 273.361L760.363 287.296Z" fill="#ffffff" fill-opacity="0.75" fill-rule="nonzero" opacity="1" stroke="none"/>
<path d="M223.642 684.317L219.627 669.463L204.228 665.59L219.627 661.717L223.642 646.864L227.658 661.717L243.057 665.59L227.658 669.463L223.642 684.317Z" fill="#ffffff" fill-opacity="0.75" fill-rule="nonzero" opacity="1" stroke="none"/>
</g>
<g fill="#d4d657" opacity="1" stroke="none">
<path d="M239.038 752.001L229.88 752.001L229.88 730.743L239.038 730.743C240.356 730.762 241.452 730.916 242.327 731.204C243.817 731.694 245.024 732.593 245.947 733.901C246.687 734.959 247.192 736.103 247.461 737.334C247.73 738.564 247.865 739.737 247.865 740.853C247.865 743.679 247.298 746.074 246.163 748.035C244.625 750.679 242.25 752.001 239.038 752.001ZM242.341 736.165C241.658 735.012 240.308 734.435 238.288 734.435L234.192 734.435L234.192 748.309L238.288 748.309C240.384 748.309 241.846 747.275 242.673 745.208C243.125 744.074 243.351 742.723 243.351 741.156C243.351 738.992 243.014 737.329 242.341 736.165Z"/>
<path d="M264.335 747.386C264.229 748.319 263.744 749.266 262.879 750.227C261.532 751.756 259.648 752.52 257.225 752.52C255.225 752.52 253.461 751.876 251.932 750.588C250.403 749.299 249.639 747.203 249.639 744.3C249.639 741.579 250.329 739.492 251.708 738.04C253.088 736.588 254.879 735.863 257.081 735.863C258.388 735.863 259.566 736.108 260.614 736.598C261.662 737.088 262.528 737.862 263.21 738.92C263.826 739.853 264.225 740.934 264.407 742.165C264.513 742.886 264.556 743.925 264.537 745.28L253.778 745.28C253.836 746.857 254.331 747.963 255.263 748.597C255.831 748.992 256.513 749.189 257.311 749.189C258.158 749.189 258.845 748.948 259.374 748.468C259.662 748.208 259.917 747.848 260.138 747.386L264.335 747.386ZM260.268 742.569C260.201 741.482 259.871 740.658 259.28 740.095C258.689 739.533 257.956 739.252 257.081 739.252C256.129 739.252 255.391 739.55 254.867 740.146C254.343 740.742 254.014 741.55 253.879 742.569L260.268 742.569Z"/>
<path d="M280.906 741.92L276.695 741.92C276.618 741.333 276.421 740.805 276.104 740.333C275.642 739.699 274.926 739.382 273.955 739.382C272.57 739.382 271.623 740.069 271.114 741.444C270.844 742.175 270.71 743.146 270.71 744.357C270.71 745.511 270.844 746.439 271.114 747.141C271.604 748.448 272.527 749.102 273.883 749.102C274.844 749.102 275.527 748.843 275.931 748.323C276.335 747.804 276.58 747.131 276.666 746.304L280.863 746.304C280.767 747.554 280.315 748.737 279.507 749.852C278.219 751.65 276.311 752.549 273.782 752.549C271.253 752.549 269.393 751.799 268.2 750.299C267.008 748.799 266.412 746.852 266.412 744.458C266.412 741.756 267.071 739.656 268.388 738.156C269.705 736.656 271.522 735.906 273.84 735.906C275.811 735.906 277.423 736.348 278.678 737.233C279.933 738.117 280.676 739.68 280.906 741.92Z"/>
<path d="M283.82 730.743L287.93 730.743L287.93 752.001L283.82 752.001L283.82 730.743Z"/>
<path d="M296.165 736.281L296.165 752.001L291.997 752.001L291.997 736.281L296.165 736.281ZM296.165 730.613L296.165 734.406L291.997 734.406L291.997 730.613L296.165 730.613Z"/>
<path d="M307.545 739.324C306.15 739.324 305.194 739.915 304.675 741.098C304.405 741.723 304.271 742.521 304.271 743.492L304.271 752.001L300.175 752.001L300.175 736.31L304.141 736.31L304.141 738.603C304.67 737.795 305.17 737.213 305.641 736.858C306.487 736.223 307.559 735.906 308.857 735.906C310.482 735.906 311.811 736.331 312.845 737.182C313.878 738.033 314.395 739.444 314.395 741.415L314.395 752.001L310.184 752.001L310.184 742.439C310.184 741.612 310.073 740.978 309.852 740.535C309.448 739.728 308.679 739.324 307.545 739.324Z"/>
<path d="M318.78 737.983C319.866 736.598 321.731 735.906 324.375 735.906C326.097 735.906 327.625 736.247 328.962 736.93C330.298 737.612 330.967 738.901 330.967 740.795L330.967 748.006C330.967 748.506 330.976 749.112 330.995 749.823C331.024 750.362 331.106 750.727 331.241 750.919C331.375 751.112 331.577 751.27 331.846 751.395L331.846 752.001L327.375 752.001C327.25 751.684 327.164 751.386 327.116 751.107C327.068 750.828 327.029 750.511 327 750.155C326.433 750.77 325.779 751.294 325.039 751.727C324.154 752.237 323.154 752.492 322.039 752.492C320.616 752.492 319.441 752.085 318.513 751.273C317.585 750.46 317.121 749.309 317.121 747.819C317.121 745.886 317.866 744.487 319.357 743.622C320.174 743.151 321.376 742.814 322.962 742.612L324.361 742.439C325.121 742.343 325.664 742.223 325.991 742.079C326.577 741.829 326.871 741.439 326.871 740.91C326.871 740.266 326.647 739.821 326.2 739.576C325.753 739.331 325.097 739.209 324.231 739.209C323.26 739.209 322.573 739.449 322.169 739.93C321.88 740.285 321.688 740.766 321.592 741.372L317.626 741.372C317.712 739.997 318.097 738.867 318.78 737.983ZM321.837 749.03C322.222 749.347 322.693 749.506 323.251 749.506C324.135 749.506 324.95 749.246 325.695 748.727C326.44 748.208 326.827 747.261 326.856 745.886L326.856 744.357C326.597 744.521 326.335 744.653 326.07 744.754C325.806 744.855 325.443 744.949 324.981 745.035L324.058 745.208C323.193 745.362 322.573 745.55 322.198 745.771C321.563 746.146 321.246 746.727 321.246 747.516C321.246 748.218 321.443 748.722 321.837 749.03Z"/>
<path d="M341.812 749.073L341.812 752.145L339.865 752.217C337.923 752.285 336.596 751.948 335.885 751.208C335.423 750.737 335.192 750.011 335.192 749.03L335.192 739.353L333 739.353L333 736.425L335.192 736.425L335.192 732.041L339.259 732.041L339.259 736.425L341.812 736.425L341.812 739.353L339.259 739.353L339.259 747.66C339.259 748.304 339.341 748.706 339.505 748.864C339.668 749.023 340.168 749.102 341.004 749.102C341.129 749.102 341.262 749.1 341.401 749.095C341.541 749.09 341.678 749.083 341.812 749.073Z"/>
<path d="M348.677 736.281L348.677 752.001L344.509 752.001L344.509 736.281L348.677 736.281ZM348.677 730.613L348.677 734.406L344.509 734.406L344.509 730.613L348.677 730.613Z"/>
<path d="M365.768 738.271C367.095 739.934 367.758 741.901 367.758 744.17C367.758 746.477 367.095 748.451 365.768 750.09C364.441 751.73 362.426 752.549 359.725 752.549C357.023 752.549 355.009 751.73 353.682 750.09C352.355 748.451 351.691 746.477 351.691 744.17C351.691 741.901 352.355 739.934 353.682 738.271C355.009 736.608 357.023 735.776 359.725 735.776C362.426 735.776 364.441 736.608 365.768 738.271ZM359.71 739.252C358.508 739.252 357.583 739.677 356.934 740.528C356.285 741.379 355.96 742.593 355.96 744.17C355.96 745.747 356.285 746.963 356.934 747.819C357.583 748.674 358.508 749.102 359.71 749.102C360.912 749.102 361.835 748.674 362.479 747.819C363.124 746.963 363.446 745.747 363.446 744.17C363.446 742.593 363.124 741.379 362.479 740.528C361.835 739.677 360.912 739.252 359.71 739.252Z"/>
<path d="M378.099 739.324C376.705 739.324 375.748 739.915 375.229 741.098C374.96 741.723 374.825 742.521 374.825 743.492L374.825 752.001L370.729 752.001L370.729 736.31L374.695 736.31L374.695 738.603C375.224 737.795 375.724 737.213 376.195 736.858C377.041 736.223 378.113 735.906 379.411 735.906C381.036 735.906 382.365 736.331 383.399 737.182C384.433 738.033 384.949 739.444 384.949 741.415L384.949 752.001L380.738 752.001L380.738 742.439C380.738 741.612 380.628 740.978 380.406 740.535C380.003 739.728 379.233 739.324 378.099 739.324Z"/>
</g>
</g>
</svg>
