<?xml version="1.0" encoding="UTF-8" standalone="no"?>
<!DOCTYPE svg PUBLIC "-//W3C//DTD SVG 1.1//EN" "http://www.w3.org/Graphics/SVG/1.1/DTD/svg11.dtd">
<!-- Created with Vectornator (http://vectornator.io/) -->
<svg height="100%" stroke-miterlimit="10" style="fill-rule:nonzero;clip-rule:evenodd;stroke-linecap:round;stroke-linejoin:round;" version="1.1" viewBox="0 0 1000 1000" width="100%" xml:space="preserve" xmlns="http://www.w3.org/2000/svg" xmlns:xlink="http://www.w3.org/1999/xlink">
<defs/>
<g id="Untitled">
<path d="M200 0L800 0C910.457 0 1000 89.5431 1000 200L1000 800C1000 910.457 910.457 1000 800 1000L200 1000C89.5431 1000 1.35271e-14 910.457 0 800L0 200C0 89.5431 89.5431 2.02906e-14 200 0Z" fill="#174567" fill-rule="nonzero" opacity="1" stroke="none"/>
<g opacity="1">
<clipPath clip-rule="nonzero" id="ClipPath">
<path d="M0 0L1000 0L1000 0L1000 1000L1000 1000L0 1000L0 1000L0 0L0 0Z"/>
</clipPath>
<g clip-path="url(#ClipPath)">
<path d="M929.348 88.62C928.292 88.5806 927.201 88.7049 926.146 89.0187C824.034 118 721.979 147.099 619.677 175.645C588.127 184.449 556.57 193.304 524.907 201.839C515.856 204.278 506.79 206.62 497.741 209.061C491.411 210.77 485.106 212.584 478.817 214.385C475.675 215.285 472.557 216.259 469.383 217.082C466.201 217.907 462.953 218.598 459.746 219.356C449.185 221.853 438.54 224.08 427.923 226.416C411.311 230.068 394.77 233.954 378.223 237.789C366.28 240.556 354.383 243.432 342.469 246.278C304.91 255.25 267.441 264.472 229.967 273.668C212.178 278.961 203.072 294.868 209.644 309.195C216.216 323.523 235.965 330.857 253.754 325.564C290.089 312.774 326.459 300.018 362.674 287.012C374.025 282.935 385.373 278.874 396.681 274.723C412.35 268.971 428.05 263.278 443.616 257.346C453.565 253.555 463.477 249.676 473.517 246.043C476.131 245.098 478.736 244.097 481.379 243.205C484.453 242.169 487.612 241.283 490.725 240.322C496.958 238.397 503.199 236.452 509.387 234.435C518.234 231.552 527.037 228.597 535.883 225.712C567.274 215.472 598.81 205.526 630.333 195.554C730.662 163.817 831.259 132.639 931.794 101.33C936.013 100.075 938.157 96.3094 936.598 92.9114C935.43 90.363 932.519 88.7383 929.348 88.62Z" fill="#ffffff" fill-rule="nonzero" opacity="1" stroke="none"/>
<path d="M928.935 88.6144C926.89 88.6518 924.863 89.3898 923.334 90.8163C867.312 141.029 811.415 191.329 754.996 241.184C737.595 256.56 720.203 271.986 702.56 287.142C697.516 291.474 692.399 295.737 687.358 300.071C683.833 303.102 680.398 306.207 676.957 309.315C675.24 310.865 673.57 312.488 671.785 313.974C669.991 315.467 668.062 316.864 666.212 318.301C660.109 323.041 653.787 327.552 647.553 332.152C638.072 339.147 628.772 346.332 619.435 353.48C612.24 358.986 605.129 364.571 598.003 370.148C576.378 387.071 554.972 404.214 533.536 421.328C520.647 433.359 521.081 452.485 534.508 464.034C547.935 475.584 569.282 475.194 582.172 463.164C600.606 443.034 619.083 422.931 637.294 402.638C643.004 396.275 648.722 389.931 654.353 383.512C662.161 374.614 670.025 365.736 677.643 356.705C682.513 350.932 687.292 345.107 692.331 339.449C693.639 337.98 694.909 336.448 696.274 335.019C697.858 333.361 699.587 331.806 701.246 330.207C704.571 326.999 707.897 323.808 711.133 320.528C715.761 315.839 720.309 311.088 724.935 306.395C741.347 289.749 758.069 273.315 774.741 256.879C827.804 204.57 881.403 152.694 934.879 100.725C937.935 97.8718 937.835 93.3504 934.651 90.6115C933.058 89.242 930.98 88.5771 928.935 88.6144Z" fill="#ffffff" fill-rule="nonzero" opacity="1" stroke="none"/>
<path d="M929.142 88.6273C926.232 88.8215 923.585 90.7971 922.562 93.8532C888.126 192.002 853.831 290.2 818.901 388.158C808.129 418.369 797.394 448.614 786.319 478.705C783.153 487.306 779.878 495.87 776.715 504.472C774.502 510.489 772.402 516.551 770.294 522.61C769.242 525.635 768.277 528.701 767.137 531.692C765.996 534.69 764.688 537.64 763.473 540.607C759.471 550.376 755.185 560.01 751.007 569.699C744.471 584.858 738.165 600.143 731.826 615.392C727.251 626.397 722.806 637.436 718.317 648.481C704.167 683.296 690.302 718.244 676.398 753.168C670.648 770.351 679.318 789.164 695.766 795.172C712.214 801.18 730.222 792.122 735.973 774.939C746.049 738.129 756.171 701.325 765.988 664.438C769.064 652.878 772.15 641.315 775.136 629.728C779.274 613.674 783.469 597.635 787.389 581.521C789.893 571.221 792.315 560.915 795.012 550.668C795.714 548.001 796.358 545.294 797.126 542.647C798.019 539.566 799.087 536.532 800.068 533.481C802.034 527.371 803.988 521.266 805.846 515.12C808.504 506.333 811.084 497.497 813.738 488.711C823.155 457.526 832.926 426.476 842.656 395.397C873.625 296.479 905.219 197.769 936.686 99.0234C938.05 94.9485 935.985 90.4991 932.085 89.0744C931.11 88.7182 930.113 88.5625 929.142 88.6273Z" fill="#ffffff" fill-rule="nonzero" opacity="1" stroke="none"/>
<path d="M227.222 297.843L409.585 488.793L641.704 362.938L516.452 595.383L707.877 777.249L448.104 729.958L334.292 968.213L298.994 706.54L37.2303 671.923L275.188 557.492L227.222 297.843Z" fill="#ffffff" fill-rule="nonzero" opacity="1" stroke="#ffffff" stroke-linecap="butt" stroke-linejoin="round" stroke-width="42.9688"/>
</g>
</g>
</g>
</svg>
