<?xml version="1.0" encoding="UTF-8" standalone="no"?>
<!DOCTYPE svg PUBLIC "-//W3C//DTD SVG 1.1//EN" "http://www.w3.org/Graphics/SVG/1.1/DTD/svg11.dtd">
<!-- Created with Vectornator (http://vectornator.io/) -->
<svg height="1000.0pt" stroke-miterlimit="10" style="fill-rule:nonzero;clip-rule:evenodd;stroke-linecap:round;stroke-linejoin:round;" version="1.1" viewBox="0 0 1000 1000" width="1000.0pt" xml:space="preserve" xmlns="http://www.w3.org/2000/svg" xmlns:xlink="http://www.w3.org/1999/xlink">
<defs/>
<g id="Untitled">
<path d="M200 0L800 0C910.457 0 1000 89.5431 1000 200L1000 800C1000 910.457 910.457 1000 800 1000L200 1000C89.5431 1000 0 910.457 0 800L0 200C0 89.5431 89.5431 0 200 0Z" fill="#174567" fill-rule="nonzero" opacity="1" stroke="none"/>
<g opacity="1">
<clipPath clip-rule="nonzero" id="ClipPath">
<path d="M0 0L1000 0L1000 0L1000 1000L1000 1000L0 1000L0 1000L0 0L0 0Z"/>
</clipPath>
<g clip-path="url(#ClipPath)">
<path d="M929.348 88.62C928.292 88.5806 927.201 88.7049 926.146 89.0187C824.034 118 721.979 147.099 619.677 175.645C588.127 184.449 556.57 193.304 524.907 201.839C515.856 204.278 506.79 206.62 497.741 209.061C491.411 210.77 485.106 212.584 478.817 214.385C475.675 215.285 472.557 216.259 469.383 217.082C466.201 217.907 462.953 218.598 459.746 219.356C449.185 221.853 438.54 224.08 427.923 226.416C411.311 230.068 394.77 233.954 378.223 237.789C366.28 240.556 354.383 243.432 342.469 246.278C304.91 255.25 267.441 264.472 229.967 273.668C223.693 275.535 216.002 278.571 212.195 282.544C205.208 289.834 205.39 299.921 209.644 309.195C216.216 323.523 235.965 330.857 253.754 325.564C290.089 312.774 326.459 300.018 362.674 287.012C374.025 282.935 385.373 278.874 396.681 274.723C412.35 268.971 428.05 263.278 443.616 257.346C453.565 253.555 463.477 249.676 473.517 246.043C476.131 245.098 478.736 244.097 481.379 243.205C484.453 242.169 487.612 241.283 490.725 240.322C496.958 238.397 503.199 236.452 509.387 234.435C518.234 231.552 527.037 228.597 535.883 225.712C567.274 215.472 598.81 205.526 630.333 195.554C730.662 163.817 831.259 132.639 931.794 101.33C936.013 100.075 938.157 96.3094 936.598 92.9114C935.43 90.363 932.519 88.7383 929.348 88.62Z" fill="#ffffff" fill-rule="nonzero" opacity="1" stroke="none"/>
<path d="M928.935 88.6144C926.89 88.6518 924.863 89.3898 923.334 90.8163C867.312 141.029 811.415 191.329 754.996 241.184C737.595 256.56 720.203 271.986 702.56 287.142C697.516 291.474 692.399 295.737 687.358 300.071C683.833 303.102 680.398 306.207 676.957 309.315C675.24 310.865 668.062 316.864 666.212 318.301C660.109 323.041 653.787 327.552 647.553 332.152C642.371 335.976 626.551 346.266 621.441 350.166C617.203 353.4 605.129 364.571 598.003 370.148C576.378 387.071 554.972 404.214 533.536 421.328C520.647 433.359 521.081 452.485 534.508 464.034C547.935 475.584 569.282 475.194 582.172 463.164C600.606 443.034 619.083 422.931 637.294 402.638C643.004 396.275 658.38 380.379 659.757 378.813C666.199 371.483 671.366 364.146 677.643 356.705C682.513 350.932 687.292 345.107 692.331 339.449C693.639 337.98 699.587 331.806 701.246 330.207C704.571 326.999 707.897 323.808 711.133 320.528C715.761 315.839 720.309 311.088 724.935 306.395C741.347 289.749 758.069 273.315 774.741 256.879C827.804 204.57 881.403 152.694 934.879 100.725C937.935 97.8718 937.835 93.3504 934.651 90.6115C933.058 89.242 930.98 88.5771 928.935 88.6144Z" fill="#ffffff" fill-rule="nonzero" opacity="1" stroke="none"/>
<path d="M929.103 88.6273C926.178 88.8218 923.518 90.7998 922.49 93.8596C887.884 192.129 853.419 290.448 818.317 388.526C807.491 418.774 796.703 449.056 785.574 479.184C782.392 487.796 779.101 496.37 775.922 504.983C773.698 511.007 771.588 517.077 769.469 523.143C768.412 526.172 767.442 529.242 766.297 532.236C765.15 535.238 763.836 538.192 762.615 541.162C758.593 550.943 754.286 560.589 750.087 570.29C743.519 585.468 737.182 600.771 730.811 616.039C726.214 627.058 721.747 638.11 717.235 649.169C703.016 684.026 689.082 719.017 675.109 753.984C669.331 771.188 678.044 790.025 694.573 796.04C699.861 797.964 705.484 798.941 710.764 798.439C713.773 798.152 716.671 797.385 719.333 796.04C726.602 792.365 732.102 784.347 734.979 775.782C745.105 738.927 755.277 702.078 765.142 665.145C768.233 653.571 771.335 641.994 774.335 630.393C778.494 614.319 782.71 598.26 786.649 582.126C789.165 571.814 791.599 561.495 794.31 551.236C795.015 548.565 795.662 545.855 796.434 543.205C797.331 540.12 798.405 537.082 799.391 534.027C801.366 527.91 803.33 521.797 805.197 515.644C807.868 506.846 810.461 497.999 813.128 489.202C822.592 457.979 832.411 426.891 842.189 395.774C873.311 296.734 905.061 197.903 936.684 99.0362C938.055 94.9563 935.979 90.5014 932.06 89.075C931.08 88.7183 930.078 88.5624 929.103 88.6273Z" fill="#ffffff" fill-rule="nonzero" opacity="1" stroke="none"/>
<path d="M227.222 297.843L409.585 488.793L636.97 364.809L642.89 361.212L650.275 356.866L646.642 363.342L516.452 595.383L707.877 777.249L448.104 729.958L334.292 968.213L298.994 706.54L37.2303 671.923L275.188 557.492L227.222 297.843Z" fill="#ffffff" fill-rule="nonzero" opacity="1" stroke="#ffffff" stroke-linecap="butt" stroke-linejoin="round" stroke-width="42.9688"/>
</g>
</g>
</g>
</svg>
