<?xml version="1.0" encoding="UTF-8" standalone="no"?>
<!DOCTYPE svg PUBLIC "-//W3C//DTD SVG 1.1//EN" "http://www.w3.org/Graphics/SVG/1.1/DTD/svg11.dtd">
<!-- Created with Vectornator (http://vectornator.io/) -->
<svg height="922.2396259480129pt" stroke-miterlimit="10" style="fill-rule:nonzero;clip-rule:evenodd;stroke-linecap:round;stroke-linejoin:round;" version="1.1" viewBox="0 0 949.491 922.24" width="949.4906694219068pt" xml:space="preserve" xmlns="http://www.w3.org/2000/svg" xmlns:xlink="http://www.w3.org/1999/xlink">
<defs/>
<clipPath id="ArtboardFrame">
<rect height="922.24" width="949.491" x="0" y="0"/>
</clipPath>
<g clip-path="url(#ArtboardFrame)" id="Untitled">
<g opacity="1">
<clipPath clip-rule="nonzero" id="ClipPath">
<path d="M0-77.7604L1000-77.7604L1000-77.7604L1000 922.24L1000 922.24L0 922.24L0 922.24L0-77.7604L0-77.7604Z"/>
</clipPath>
<g clip-path="url(#ClipPath)">
<path d="M929.348 10.8596C928.292 10.8202 927.201 10.9445 926.146 11.2583C824.034 40.2396 721.979 69.3386 619.677 97.8846C588.127 106.689 556.57 115.544 524.907 124.079C515.856 126.518 506.79 128.86 497.741 131.301C491.411 133.01 485.106 134.824 478.817 136.625C475.675 137.525 472.557 138.499 469.383 139.322C466.201 140.147 462.953 140.838 459.746 141.596C449.185 144.093 438.54 146.32 427.923 148.656C411.311 152.308 394.77 156.194 378.223 160.029C366.28 162.796 354.383 165.672 342.469 168.518C304.91 177.49 267.441 186.712 229.967 195.908C223.693 197.774 216.002 200.811 212.195 204.783C205.208 212.074 205.39 222.161 209.644 231.435C216.216 245.763 235.965 253.097 253.754 247.804C290.089 235.014 326.459 222.258 362.674 209.252C374.025 205.175 385.373 201.114 396.681 196.963C412.35 191.211 428.05 185.518 443.616 179.586C453.565 175.795 463.477 171.916 473.517 168.283C476.131 167.338 478.736 166.337 481.379 165.445C484.453 164.409 487.612 163.523 490.725 162.562C496.958 160.637 503.199 158.692 509.387 156.675C518.234 153.792 527.037 150.837 535.883 147.952C567.274 137.712 598.81 127.766 630.333 117.794C730.662 86.0566 831.259 54.8786 931.794 23.5696C936.013 22.3146 938.157 18.549 936.598 15.151C935.43 12.6026 932.519 10.9779 929.348 10.8596Z" fill="#ffffff" fill-rule="nonzero" opacity="1" stroke="none"/>
<path d="M928.935 10.854C926.89 10.8914 924.863 11.6294 923.334 13.0559C867.312 63.2686 811.415 113.569 754.996 163.424C737.595 178.8 720.203 194.226 702.56 209.382C697.516 213.714 692.399 217.977 687.358 222.311C683.833 225.342 680.398 228.447 676.957 231.555C675.24 233.105 668.062 239.104 666.212 240.541C660.109 245.281 653.787 249.792 647.553 254.392C642.371 258.215 626.551 268.505 621.441 272.405C617.203 275.64 605.129 286.811 598.003 292.388C576.378 309.311 554.972 326.454 533.536 343.568C520.647 355.599 521.081 374.725 534.508 386.274C547.935 397.824 569.282 397.434 582.172 385.404C600.606 365.274 619.083 345.171 637.294 324.878C643.004 318.515 658.38 302.619 659.757 301.052C666.199 293.722 671.366 286.385 677.643 278.945C682.513 273.172 687.292 267.347 692.331 261.689C693.639 260.22 699.587 254.046 701.246 252.447C704.571 249.239 707.897 246.048 711.133 242.768C715.761 238.079 720.309 233.328 724.935 228.635C741.347 211.989 758.069 195.555 774.741 179.119C827.804 126.81 881.403 74.9336 934.879 22.9646C937.935 20.1114 937.835 15.59 934.651 12.8511C933.058 11.4816 930.98 10.8167 928.935 10.854Z" fill="#ffffff" fill-rule="nonzero" opacity="1" stroke="none"/>
<path d="M929.103 10.8669C926.178 11.0614 923.518 13.0394 922.49 16.0993C887.884 114.369 853.419 212.687 818.317 310.766C807.491 341.014 796.703 371.296 785.574 401.424C782.392 410.035 779.101 418.61 775.922 427.222C773.698 433.247 771.588 439.316 769.469 445.383C768.412 448.411 767.442 451.481 766.297 454.476C765.15 457.478 763.836 460.431 762.615 463.402C758.593 473.183 754.286 482.829 750.087 492.53C743.519 507.707 737.182 523.011 730.811 538.279C726.214 549.297 721.747 560.35 717.235 571.408C703.016 606.266 689.082 641.257 675.109 676.224C669.331 693.428 678.044 712.264 694.573 718.28C699.861 720.204 705.484 721.181 710.764 720.678C713.773 720.392 716.671 719.625 719.333 718.28C726.602 714.604 732.102 706.586 734.979 698.022C745.105 661.166 755.277 624.317 765.142 587.385C768.233 575.811 771.335 564.234 774.335 552.632C778.494 536.559 782.71 520.5 786.649 504.366C789.165 494.053 791.599 483.735 794.31 473.475C795.015 470.805 795.662 468.095 796.434 465.444C797.331 462.36 798.405 459.322 799.391 456.267C801.366 450.15 803.33 444.037 805.197 437.884C807.868 429.086 810.461 420.239 813.128 411.442C822.592 380.219 832.411 349.131 842.189 318.013C873.311 218.974 905.061 120.143 936.684 21.2758C938.055 17.1959 935.979 12.741 932.06 11.3146C931.08 10.958 930.078 10.8021 929.103 10.8669Z" fill="#ffffff" fill-rule="nonzero" opacity="1" stroke="none"/>
<path d="M227.222 220.083L409.585 411.033L636.97 287.049L642.89 283.452L650.275 279.106L646.642 285.581L516.452 517.623L707.877 699.489L448.104 652.198L334.292 890.453L298.994 628.78L37.2303 594.163L275.188 479.732L227.222 220.083Z" fill="#ffffff" fill-rule="nonzero" opacity="1" stroke="#ffffff" stroke-linecap="butt" stroke-linejoin="round" stroke-width="42.9688"/>
</g>
</g>
</g>
</svg>
