<?xml version="1.0" encoding="UTF-8" standalone="no"?>
<!DOCTYPE svg PUBLIC "-//W3C//DTD SVG 1.1//EN" "http://www.w3.org/Graphics/SVG/1.1/DTD/svg11.dtd">
<!-- Created with Vectornator (http://vectornator.io/) -->
<svg height="100%" stroke-miterlimit="10" style="fill-rule:nonzero;clip-rule:evenodd;stroke-linecap:round;stroke-linejoin:round;" version="1.1" viewBox="0 0 1024 1024" width="100%" xml:space="preserve" xmlns="http://www.w3.org/2000/svg" xmlns:xlink="http://www.w3.org/1999/xlink">
<defs/>
<clipPath id="ArtboardFrame">
<rect height="1024" width="1024" x="0" y="0"/>
</clipPath>
<g clip-path="url(#ArtboardFrame)" id="Layer-1">
<g opacity="1">
<path d="M986.281 23.8125C985.147 23.76 983.976 23.9256 982.844 24.3438C873.246 62.9647 763.708 101.741 653.906 139.781C620.043 151.513 586.173 163.314 552.188 174.688C542.474 177.938 532.743 181.059 523.031 184.312C516.237 186.589 509.47 189.006 502.719 191.406C499.347 192.605 496 193.904 492.594 195C489.179 196.099 485.692 197.021 482.25 198.031C470.915 201.358 459.49 204.326 448.094 207.438C430.264 212.305 412.511 217.484 394.75 222.594C381.932 226.281 369.163 230.114 356.375 233.906C316.063 245.862 275.847 258.152 235.625 270.406C216.532 277.46 206.759 298.657 213.812 317.75C220.866 336.843 242.063 346.616 261.156 339.562C300.155 322.519 339.191 305.52 378.062 288.188C390.245 282.755 402.425 277.344 414.562 271.812C431.38 264.147 448.23 256.561 464.938 248.656C475.616 243.604 486.255 238.435 497.031 233.594C499.836 232.334 502.633 231 505.469 229.812C508.769 228.431 512.159 227.25 515.5 225.969C522.19 223.404 528.889 220.812 535.531 218.125C545.026 214.283 554.475 210.345 563.969 206.5C597.661 192.855 631.51 179.601 665.344 166.312C773.028 124.019 881 82.4718 988.906 40.75C993.434 39.0773 995.735 34.0593 994.062 29.5312C992.808 26.1352 989.684 23.9701 986.281 23.8125Z" fill="#ffffff" stroke="none"/>
</g>
<g opacity="1">
<path d="M985.688 23.8125C983.451 23.8581 981.234 24.7589 979.562 26.5C918.297 87.7867 857.168 149.181 795.469 210.031C776.439 228.799 757.419 247.627 738.125 266.125C732.609 271.413 727.013 276.616 721.5 281.906C717.645 285.605 713.888 289.395 710.125 293.188C708.248 295.08 706.421 297.061 704.469 298.875C702.507 300.697 700.398 302.403 698.375 304.156C691.7 309.942 684.787 315.448 677.969 321.062C667.601 329.6 657.43 338.37 647.219 347.094C639.351 353.815 631.574 360.631 623.781 367.438C600.133 388.093 576.723 409.017 553.281 429.906C539.185 444.59 539.66 467.935 554.344 482.031C569.027 496.128 592.372 495.652 606.469 480.969C626.628 456.399 646.835 431.863 666.75 407.094C672.994 399.328 679.248 391.584 685.406 383.75C693.944 372.889 702.545 362.053 710.875 351.031C716.201 343.984 721.428 336.874 726.938 329.969C728.369 328.175 729.758 326.306 731.25 324.562C732.983 322.538 734.873 320.64 736.688 318.688C740.324 314.773 743.961 310.878 747.5 306.875C752.561 301.151 757.535 295.352 762.594 289.625C780.542 269.307 798.829 249.249 817.062 229.188C875.091 165.342 933.707 102.025 992.188 38.5938C995.53 35.1116 995.42 29.593 991.938 26.25C990.196 24.5785 987.924 23.7669 985.688 23.8125Z" fill="#ffffff" stroke="none"/>
</g>
<g opacity="1">
<path d="M985.312 23.8125C981.913 24.0297 978.82 26.2388 977.625 29.6562C937.398 139.407 897.336 249.212 856.531 358.75C843.947 392.532 831.407 426.352 818.469 460C814.771 469.617 810.945 479.194 807.25 488.812C804.665 495.541 802.212 502.319 799.75 509.094C798.521 512.477 797.393 515.906 796.062 519.25C794.729 522.603 793.201 525.901 791.781 529.219C787.106 540.143 782.099 550.916 777.219 561.75C769.584 578.701 762.217 595.792 754.812 612.844C749.468 625.15 744.275 637.494 739.031 649.844C722.501 688.775 706.305 727.854 690.062 766.906C683.345 786.12 693.473 807.157 712.688 813.875C731.902 820.593 752.938 810.464 759.656 791.25C771.427 750.089 783.251 708.935 794.719 667.688C798.313 654.761 801.918 641.831 805.406 628.875C810.24 610.923 815.14 592.988 819.719 574.969C822.645 563.452 825.474 551.927 828.625 540.469C829.445 537.487 830.197 534.46 831.094 531.5C832.137 528.055 833.385 524.662 834.531 521.25C836.827 514.418 839.11 507.592 841.281 500.719C844.385 490.894 847.4 481.013 850.5 471.188C861.501 436.317 872.915 401.597 884.281 366.844C920.458 256.233 957.366 145.855 994.125 35.4375C995.718 30.8809 993.306 25.9056 988.75 24.3125C987.611 23.9142 986.446 23.7401 985.312 23.8125Z" fill="#ffffff" stroke="none"/>
</g>
<path d="M232.675 304.991L419.415 500.524L657.105 371.648L528.847 609.672L724.866 795.903L458.858 747.477L342.315 991.45L306.17 723.497L38.1238 688.049L281.793 570.872L232.675 304.991Z" fill="#ffffff" fill-rule="nonzero" opacity="1" stroke="#ffffff" stroke-linecap="butt" stroke-linejoin="round" stroke-width="44"/>
</g>
</svg>
