<?xml version="1.0" encoding="UTF-8" standalone="no"?>
<!DOCTYPE svg PUBLIC "-//W3C//DTD SVG 1.1//EN" "http://www.w3.org/Graphics/SVG/1.1/DTD/svg11.dtd">
<!-- Created with Vectornator (http://vectornator.io/) -->
<svg height="1000.0pt" stroke-miterlimit="10" style="fill-rule:nonzero;clip-rule:evenodd;stroke-linecap:round;stroke-linejoin:round;" version="1.1" viewBox="0 0 6000 1000" width="6000.0pt" xml:space="preserve" xmlns="http://www.w3.org/2000/svg" xmlns:xlink="http://www.w3.org/1999/xlink">
<defs/>
<clipPath id="ArtboardFrame">
<rect height="1000" width="6000" x="0" y="0"/>
</clipPath>
<g clip-path="url(#ArtboardFrame)" id="Untitled">
<g opacity="1">
<path d="M200-5.68434e-14L800-5.68434e-14C910.457-5.68434e-14 1000 89.5431 1000 200L1000 800C1000 910.457 910.457 1000 800 1000L200 1000C89.5431 1000-5.68434e-14 910.457-5.68434e-14 800L-5.68434e-14 200C-5.68434e-14 89.5431 89.5431-5.68434e-14 200-5.68434e-14Z" fill="#174567" fill-rule="nonzero" opacity="1" stroke="none"/>
<g opacity="1">
<clipPath clip-rule="nonzero" id="ClipPath">
<path d="M-5.68434e-14-5.68434e-14L1000-5.68434e-14L1000-5.68434e-14L1000 1000L1000 1000L-5.68434e-14 1000L-5.68434e-14 1000L-5.68434e-14-5.68434e-14L-5.68434e-14-5.68434e-14Z"/>
</clipPath>
<g clip-path="url(#ClipPath)">
<path d="M929.348 88.62C928.292 88.5806 927.201 88.7049 926.146 89.0187C824.034 118 721.979 147.099 619.677 175.645C588.127 184.449 556.57 193.304 524.907 201.839C515.856 204.278 506.79 206.62 497.741 209.061C491.411 210.77 485.106 212.584 478.817 214.385C475.675 215.285 472.557 216.259 469.383 217.082C466.201 217.907 462.953 218.598 459.746 219.356C449.185 221.853 438.54 224.08 427.923 226.416C411.311 230.068 394.77 233.954 378.223 237.789C366.28 240.556 354.383 243.432 342.469 246.278C304.91 255.25 267.441 264.472 229.967 273.668C223.693 275.535 216.002 278.571 212.195 282.544C205.208 289.834 205.39 299.921 209.644 309.195C216.216 323.523 235.965 330.857 253.754 325.564C290.089 312.774 326.459 300.018 362.674 287.012C374.025 282.935 385.373 278.874 396.681 274.723C412.35 268.971 428.05 263.278 443.616 257.346C453.565 253.555 463.477 249.676 473.517 246.043C476.131 245.098 478.736 244.097 481.379 243.205C484.453 242.169 487.612 241.283 490.725 240.322C496.958 238.397 503.199 236.452 509.387 234.435C518.234 231.552 527.037 228.597 535.883 225.712C567.274 215.472 598.81 205.526 630.333 195.554C730.662 163.817 831.259 132.639 931.794 101.33C936.013 100.075 938.157 96.3094 936.598 92.9114C935.43 90.363 932.519 88.7383 929.348 88.62Z" fill="#ffffff" fill-rule="nonzero" opacity="1" stroke="none"/>
<path d="M928.935 88.6144C926.89 88.6518 924.863 89.3898 923.334 90.8163C867.312 141.029 811.415 191.329 754.996 241.184C737.595 256.56 720.203 271.986 702.56 287.142C697.516 291.474 692.399 295.737 687.358 300.071C683.833 303.102 680.398 306.207 676.957 309.315C675.24 310.865 668.062 316.864 666.212 318.301C660.109 323.041 653.787 327.552 647.553 332.152C642.371 335.976 626.551 346.266 621.441 350.166C617.203 353.4 605.129 364.571 598.003 370.148C576.378 387.071 554.972 404.214 533.536 421.328C520.647 433.359 521.081 452.485 534.508 464.034C547.935 475.584 569.282 475.194 582.172 463.164C600.606 443.034 619.083 422.931 637.294 402.638C643.004 396.275 658.38 380.379 659.757 378.813C666.199 371.483 671.366 364.146 677.643 356.705C682.513 350.932 687.292 345.107 692.331 339.449C693.639 337.98 699.587 331.806 701.246 330.207C704.571 326.999 707.897 323.808 711.133 320.528C715.761 315.839 720.309 311.088 724.935 306.395C741.347 289.749 758.069 273.315 774.741 256.879C827.804 204.57 881.403 152.694 934.879 100.725C937.935 97.8718 937.835 93.3504 934.651 90.6115C933.058 89.242 930.98 88.5771 928.935 88.6144Z" fill="#ffffff" fill-rule="nonzero" opacity="1" stroke="none"/>
<path d="M929.103 88.6273C926.178 88.8218 923.518 90.7998 922.49 93.8596C887.884 192.129 853.419 290.448 818.317 388.526C807.491 418.774 796.703 449.056 785.574 479.184C782.392 487.796 779.101 496.37 775.922 504.983C773.698 511.007 771.588 517.077 769.469 523.143C768.412 526.172 767.442 529.242 766.297 532.236C765.15 535.238 763.836 538.192 762.615 541.162C758.593 550.943 754.286 560.589 750.087 570.29C743.519 585.468 737.182 600.771 730.811 616.039C726.214 627.058 721.747 638.11 717.235 649.169C703.016 684.026 689.082 719.017 675.109 753.984C669.331 771.188 678.044 790.025 694.573 796.04C699.861 797.964 705.484 798.941 710.764 798.439C713.773 798.152 716.671 797.385 719.333 796.04C726.602 792.365 732.102 784.347 734.979 775.782C745.105 738.927 755.277 702.078 765.142 665.145C768.233 653.571 771.335 641.994 774.335 630.393C778.494 614.319 782.71 598.26 786.649 582.126C789.165 571.814 791.599 561.495 794.31 551.236C795.015 548.565 795.662 545.855 796.434 543.205C797.331 540.12 798.405 537.082 799.391 534.027C801.366 527.91 803.33 521.797 805.197 515.644C807.868 506.846 810.461 497.999 813.128 489.202C822.592 457.979 832.411 426.891 842.189 395.774C873.311 296.734 905.061 197.903 936.684 99.0362C938.055 94.9563 935.979 90.5014 932.06 89.075C931.08 88.7183 930.078 88.5624 929.103 88.6273Z" fill="#ffffff" fill-rule="nonzero" opacity="1" stroke="none"/>
<path d="M227.222 297.843L409.585 488.793L636.97 364.809L642.89 361.212L650.275 356.866L646.642 363.342L516.452 595.383L707.877 777.249L448.104 729.958L334.292 968.213L298.994 706.54L37.2303 671.923L275.188 557.492L227.222 297.843Z" fill="#ffffff" fill-rule="nonzero" opacity="1" stroke="#ffffff" stroke-linecap="butt" stroke-linejoin="round" stroke-width="42.9688"/>
</g>
</g>
</g>
<g fill="#174567" opacity="1" stroke="none">
<path d="M1488.89 798.703C1411.35 798.703 1350.67 779.737 1306.86 741.804C1263.04 703.871 1241.14 651.451 1241.14 584.543L1349.9 584.543C1350.46 622.336 1362.99 651.87 1387.48 673.146C1411.98 694.423 1446.06 705.061 1489.73 705.061C1528.65 705.061 1560 696.872 1583.8 680.495C1607.59 664.118 1619.49 642.212 1619.49 614.777C1619.49 592.661 1610.53 574.675 1592.61 560.817C1574.7 546.96 1544.88 535.272 1503.17 525.754L1435.98 510.637C1373.55 496.359 1327.5 475.223 1297.83 447.229C1268.15 419.234 1253.32 383.26 1253.32 339.309C1253.32 302.076 1262.9 269.462 1282.08 241.467C1301.26 213.472 1328.13 191.706 1362.71 176.169C1397.28 160.632 1437.52 152.863 1483.43 152.863C1553.42 152.863 1608.92 170.64 1649.93 206.193C1690.95 241.747 1712.29 290.598 1713.97 352.746L1608.57 352.746C1606.33 319.712 1594.01 293.817 1571.62 275.061C1549.22 256.304 1519.69 246.926 1483.01 246.926C1448.3 246.926 1419.89 255.044 1397.77 271.281C1375.65 287.518 1364.6 308.374 1364.6 333.85C1364.6 354.846 1373.34 371.853 1390.84 384.87C1408.34 397.888 1437.52 409.016 1478.39 418.254L1541.8 432.951C1606.75 447.229 1654.34 468.505 1684.58 496.779C1714.81 525.054 1729.93 562.147 1729.93 608.059C1729.93 646.971 1720.13 680.705 1700.53 709.26C1680.94 737.814 1653.08 759.86 1616.97 775.397C1580.86 790.935 1538.16 798.703 1488.89 798.703Z"/>
<path d="M2070.51 345.188L2070.51 430.432L1980.23 430.432L1980.23 661.389C1980.23 677.346 1983.45 688.334 1989.88 694.353C1996.32 700.371 2008.08 703.381 2025.16 703.381L2070.51 703.381L2070.51 788.625L2006.68 788.625C1961.61 788.625 1928.23 779.527 1906.53 761.33C1884.83 743.133 1873.99 714.999 1873.99 676.926L1873.99 430.432L1796.72 430.432L1796.72 345.188L1873.99 345.188L1873.99 224.25L1980.23 224.25L1980.23 345.188L2070.51 345.188Z"/>
<path d="M2311.15 795.764C2266.92 795.764 2230.32 784.636 2201.34 762.38C2172.37 740.124 2157.88 706.88 2157.88 662.648C2157.88 629.055 2166.07 603.09 2182.44 584.753C2198.82 566.416 2220.24 553.049 2246.69 544.65C2273.15 536.252 2301.63 530.513 2332.15 527.434C2373.3 522.674 2401.99 518.475 2418.23 514.836C2434.47 511.197 2442.59 501.818 2442.59 486.701L2442.59 483.342C2442.59 464.305 2435.38 448.768 2420.96 436.73C2406.54 424.693 2386.74 418.674 2361.54 418.674C2335.79 418.674 2314.86 424.693 2298.76 436.73C2282.67 448.768 2273.92 464.165 2272.52 482.922L2170.48 482.922C2173 438.97 2191.33 403.557 2225.49 376.682C2259.64 349.807 2305.69 336.369 2363.64 336.369C2421.31 336.369 2466.38 349.807 2498.86 376.682C2531.33 403.557 2547.57 440.09 2547.57 486.281L2547.57 788.625L2443.43 788.625L2443.43 726.057L2441.75 726.057C2431.11 745.653 2415.71 762.17 2395.55 775.607C2375.4 789.045 2347.26 795.764 2311.15 795.764ZM2337.19 717.238C2371.9 717.238 2398.21 708.21 2416.13 690.153C2434.05 672.097 2443.01 650.191 2443.01 624.436L2443.01 576.564C2436.57 580.764 2424.11 584.613 2405.63 588.112C2387.16 591.612 2367 595.041 2345.16 598.4C2322.49 601.76 2302.82 608.129 2286.17 617.507C2269.51 626.885 2261.18 641.652 2261.18 661.809C2261.18 679.165 2268.04 692.743 2281.76 702.541C2295.47 712.339 2313.95 717.238 2337.19 717.238Z"/>
<path d="M2670.21 788.625L2670.21 345.188L2772.25 345.188L2772.25 418.674L2773.51 418.674C2781.63 393.479 2794.44 374.232 2811.93 360.935C2829.43 347.637 2852.46 340.988 2881.01 340.988C2888.29 340.988 2894.8 341.198 2900.54 341.618C2906.28 342.038 2911.24 342.388 2915.44 342.668L2915.44 436.73C2911.52 436.171 2904.81 435.471 2895.29 434.631C2885.77 433.791 2875.83 433.371 2865.47 433.371C2840.28 433.371 2819.07 442.049 2801.85 459.406C2784.64 476.763 2776.03 502.798 2776.03 537.512L2776.03 788.625L2670.21 788.625Z"/>
<path d="M3009.95 964.152L3009.95 345.188L3114.09 345.188L3114.09 406.916L3115.35 406.916C3129.35 383.4 3148.11 365.764 3171.62 354.006C3195.14 342.248 3221.17 336.369 3249.73 336.369C3287.8 336.369 3321.18 346.097 3349.88 365.554C3378.57 385.01 3400.97 412.025 3417.07 446.599C3433.16 481.172 3441.21 521.135 3441.21 566.486C3441.21 612.678 3433.3 653.06 3417.49 687.634C3401.67 722.207 3379.34 749.152 3350.51 768.469C3321.67 787.785 3287.94 797.443 3249.31 797.443C3220.19 797.443 3194.37 791.145 3171.83 778.547C3149.3 765.949 3131.03 747.053 3117.03 721.857L3115.77 721.857L3115.77 964.152L3009.95 964.152ZM3224.53 708.84C3257.29 708.84 3283.74 696.592 3303.9 672.097C3324.05 647.601 3334.13 612.398 3334.13 566.486C3334.13 520.855 3324.05 485.721 3303.9 461.086C3283.74 436.451 3257.29 424.133 3224.53 424.133C3189.82 424.133 3162.03 437.08 3141.18 462.976C3120.32 488.871 3109.89 523.374 3109.89 566.486C3109.89 609.598 3120.32 644.102 3141.18 669.997C3162.03 695.892 3189.82 708.84 3224.53 708.84Z"/>
<path d="M3649.52 162.941L3649.52 788.625L3543.7 788.625L3543.7 162.941L3649.52 162.941Z"/>
<path d="M3970.78 798.703C3927.11 798.703 3888.9 788.975 3856.14 769.519C3823.39 750.062 3797.85 722.977 3779.51 688.264C3761.17 653.55 3752 613.238 3752 567.326C3752 521.415 3761.17 481.032 3779.51 446.179C3797.85 411.325 3823.39 384.1 3856.14 364.504C3888.9 344.908 3927.11 335.109 3970.78 335.109C4014.18 335.109 4052.32 344.908 4085.21 364.504C4118.11 384.1 4143.72 411.325 4162.06 446.179C4180.39 481.032 4189.56 521.415 4189.56 567.326C4189.56 613.238 4180.39 653.55 4162.06 688.264C4143.72 722.977 4118.11 750.062 4085.21 769.519C4052.32 788.975 4014.18 798.703 3970.78 798.703ZM3970.78 710.1C4004.66 710.1 4031.67 697.362 4051.83 671.887C4071.98 646.411 4082.06 611.558 4082.06 567.326C4082.06 523.094 4071.98 488.101 4051.83 462.346C4031.67 436.59 4004.66 423.713 3970.78 423.713C3936.63 423.713 3909.47 436.521 3889.32 462.136C3869.16 487.751 3859.08 522.814 3859.08 567.326C3859.08 611.558 3869.16 646.411 3889.32 671.887C3909.47 697.362 3936.63 710.1 3970.78 710.1Z"/>
<path d="M4525.53 345.188L4525.53 430.432L4435.24 430.432L4435.24 661.389C4435.24 677.346 4438.46 688.334 4444.9 694.353C4451.34 700.371 4463.1 703.381 4480.17 703.381L4525.53 703.381L4525.53 788.625L4461.7 788.625C4416.63 788.625 4383.24 779.527 4361.55 761.33C4339.85 743.133 4329 714.999 4329 676.926L4329 430.432L4251.74 430.432L4251.74 345.188L4329 345.188L4329 224.25L4435.24 224.25L4435.24 345.188L4525.53 345.188Z"/>
</g>
</g>
</svg>
