<?xml version="1.0" encoding="UTF-8" standalone="no"?>
<!DOCTYPE svg PUBLIC "-//W3C//DTD SVG 1.1//EN" "http://www.w3.org/Graphics/SVG/1.1/DTD/svg11.dtd">
<!-- Created with Vectornator (http://vectornator.io/) -->
<svg height="1000.0pt" stroke-miterlimit="10" style="fill-rule:nonzero;clip-rule:evenodd;stroke-linecap:round;stroke-linejoin:round;" version="1.1" viewBox="0 0 6000 1000" width="6000.0pt" xml:space="preserve" xmlns="http://www.w3.org/2000/svg" xmlns:xlink="http://www.w3.org/1999/xlink">
<defs/>
<clipPath id="ArtboardFrame">
<rect height="1000" width="6000" x="0" y="0"/>
</clipPath>
<g clip-path="url(#ArtboardFrame)" id="Untitled">
<g opacity="1">
<path d="M200-5.68434e-14L800-5.68434e-14C910.457-5.68434e-14 1000 89.5431 1000 200L1000 800C1000 910.457 910.457 1000 800 1000L200 1000C89.5431 1000-5.68434e-14 910.457-5.68434e-14 800L-5.68434e-14 200C-5.68434e-14 89.5431 89.5431-5.68434e-14 200-5.68434e-14Z" fill="#174567" fill-rule="nonzero" opacity="1" stroke="none"/>
<g opacity="1">
<clipPath clip-rule="nonzero" id="ClipPath">
<path d="M-5.68434e-14-5.68434e-14L1000-5.68434e-14L1000-5.68434e-14L1000 1000L1000 1000L-5.68434e-14 1000L-5.68434e-14 1000L-5.68434e-14-5.68434e-14L-5.68434e-14-5.68434e-14Z"/>
</clipPath>
<g clip-path="url(#ClipPath)">
<path d="M929.348 88.62C928.292 88.5806 927.201 88.7049 926.146 89.0187C824.034 118 721.979 147.099 619.677 175.645C588.127 184.449 556.57 193.304 524.907 201.839C515.856 204.278 506.79 206.62 497.741 209.061C491.411 210.77 485.106 212.584 478.817 214.385C475.675 215.285 472.557 216.259 469.383 217.082C466.201 217.907 462.953 218.598 459.746 219.356C449.185 221.853 438.54 224.08 427.923 226.416C411.311 230.068 394.77 233.954 378.223 237.789C366.28 240.556 354.383 243.432 342.469 246.278C304.91 255.25 267.441 264.472 229.967 273.668C223.693 275.535 216.002 278.571 212.195 282.544C205.208 289.834 205.39 299.921 209.644 309.195C216.216 323.523 235.965 330.857 253.754 325.564C290.089 312.774 326.459 300.018 362.674 287.012C374.025 282.935 385.373 278.874 396.681 274.723C412.35 268.971 428.05 263.278 443.616 257.346C453.565 253.555 463.477 249.676 473.517 246.043C476.131 245.098 478.736 244.097 481.379 243.205C484.453 242.169 487.612 241.283 490.725 240.322C496.958 238.397 503.199 236.452 509.387 234.435C518.234 231.552 527.037 228.597 535.883 225.712C567.274 215.472 598.81 205.526 630.333 195.554C730.662 163.817 831.259 132.639 931.794 101.33C936.013 100.075 938.157 96.3094 936.598 92.9114C935.43 90.363 932.519 88.7383 929.348 88.62Z" fill="#ffffff" fill-rule="nonzero" opacity="1" stroke="none"/>
<path d="M928.935 88.6144C926.89 88.6518 924.863 89.3898 923.334 90.8163C867.312 141.029 811.415 191.329 754.996 241.184C737.595 256.56 720.203 271.986 702.56 287.142C697.516 291.474 692.399 295.737 687.358 300.071C683.833 303.102 680.398 306.207 676.957 309.315C675.24 310.865 668.062 316.864 666.212 318.301C660.109 323.041 653.787 327.552 647.553 332.152C642.371 335.976 626.551 346.266 621.441 350.166C617.203 353.4 605.129 364.571 598.003 370.148C576.378 387.071 554.972 404.214 533.536 421.328C520.647 433.359 521.081 452.485 534.508 464.034C547.935 475.584 569.282 475.194 582.172 463.164C600.606 443.034 619.083 422.931 637.294 402.638C643.004 396.275 658.38 380.379 659.757 378.813C666.199 371.483 671.366 364.146 677.643 356.705C682.513 350.932 687.292 345.107 692.331 339.449C693.639 337.98 699.587 331.806 701.246 330.207C704.571 326.999 707.897 323.808 711.133 320.528C715.761 315.839 720.309 311.088 724.935 306.395C741.347 289.749 758.069 273.315 774.741 256.879C827.804 204.57 881.403 152.694 934.879 100.725C937.935 97.8718 937.835 93.3504 934.651 90.6115C933.058 89.242 930.98 88.5771 928.935 88.6144Z" fill="#ffffff" fill-rule="nonzero" opacity="1" stroke="none"/>
<path d="M929.103 88.6273C926.178 88.8218 923.518 90.7998 922.49 93.8596C887.884 192.129 853.419 290.448 818.317 388.526C807.491 418.774 796.703 449.056 785.574 479.184C782.392 487.796 779.101 496.37 775.922 504.983C773.698 511.007 771.588 517.077 769.469 523.143C768.412 526.172 767.442 529.242 766.297 532.236C765.15 535.238 763.836 538.192 762.615 541.162C758.593 550.943 754.286 560.589 750.087 570.29C743.519 585.468 737.182 600.771 730.811 616.039C726.214 627.058 721.747 638.11 717.235 649.169C703.016 684.026 689.082 719.017 675.109 753.984C669.331 771.188 678.044 790.025 694.573 796.04C699.861 797.964 705.484 798.941 710.764 798.439C713.773 798.152 716.671 797.385 719.333 796.04C726.602 792.365 732.102 784.347 734.979 775.782C745.105 738.927 755.277 702.078 765.142 665.145C768.233 653.571 771.335 641.994 774.335 630.393C778.494 614.319 782.71 598.26 786.649 582.126C789.165 571.814 791.599 561.495 794.31 551.236C795.015 548.565 795.662 545.855 796.434 543.205C797.331 540.12 798.405 537.082 799.391 534.027C801.366 527.91 803.33 521.797 805.197 515.644C807.868 506.846 810.461 497.999 813.128 489.202C822.592 457.979 832.411 426.891 842.189 395.774C873.311 296.734 905.061 197.903 936.684 99.0362C938.055 94.9563 935.979 90.5014 932.06 89.075C931.08 88.7183 930.078 88.5624 929.103 88.6273Z" fill="#ffffff" fill-rule="nonzero" opacity="1" stroke="none"/>
<path d="M227.222 297.843L409.585 488.793L636.97 364.809L642.89 361.212L650.275 356.866L646.642 363.342L516.452 595.383L707.877 777.249L448.104 729.958L334.292 968.213L298.994 706.54L37.2303 671.923L275.188 557.492L227.222 297.843Z" fill="#ffffff" fill-rule="nonzero" opacity="1" stroke="#ffffff" stroke-linecap="butt" stroke-linejoin="round" stroke-width="42.9688"/>
</g>
</g>
</g>
<g fill="#174567" opacity="1" stroke="none">
<path d="M1493.93 798.703C1413.87 798.703 1351.51 779.807 1306.86 742.014C1262.2 704.221 1239.88 651.311 1239.88 583.283L1364.6 583.283C1365.44 617.717 1377.33 644.522 1400.29 663.698C1423.24 682.875 1454.74 692.463 1494.77 692.463C1530.61 692.463 1559.44 685.184 1581.28 670.627C1603.11 656.07 1614.03 636.613 1614.03 612.258C1614.03 592.102 1605.28 575.725 1587.78 563.127C1570.29 550.529 1541.66 539.891 1501.91 531.213L1435.98 516.936C1313.37 490.34 1252.06 432.391 1252.06 343.088C1252.06 305.015 1261.99 271.771 1281.87 243.356C1301.75 214.942 1329.46 192.756 1365.02 176.799C1400.57 160.842 1442.14 152.863 1489.73 152.863C1561.68 152.863 1618.72 170.78 1660.85 206.613C1702.98 242.447 1725.03 291.857 1726.99 354.846L1606.05 354.846C1603.81 325.171 1592.33 301.796 1571.62 284.719C1550.9 267.642 1523.75 259.104 1490.15 259.104C1458.24 259.104 1432.13 266.382 1411.84 280.939C1391.54 295.497 1381.39 314.113 1381.39 336.789C1381.39 356.105 1389.79 371.643 1406.59 383.4C1423.38 395.158 1450.96 405.236 1489.31 413.635L1549.36 426.652C1615.99 440.93 1664.77 462.276 1695.7 490.69C1726.64 519.105 1742.11 556.828 1742.11 603.859C1742.11 664.048 1719.99 711.569 1675.76 746.423C1631.53 781.276 1570.92 798.703 1493.93 798.703Z"/>
<path d="M2099.06 345.188L2099.06 442.189L2008.36 442.189L2008.36 651.73C2008.36 666.848 2011.37 677.276 2017.39 683.015C2023.41 688.754 2034.82 691.623 2051.61 691.623L2099.06 691.623L2099.06 788.625L2026.84 788.625C1978.13 788.625 1942.22 779.107 1919.13 760.07C1896.03 741.034 1884.48 711.359 1884.48 671.047L1884.48 442.189L1808.06 442.189L1808.06 345.188L1884.48 345.188L1884.48 224.25L2008.36 224.25L2008.36 345.188L2099.06 345.188Z"/>
<path d="M2333.83 796.184C2289.59 796.184 2253.13 785.126 2224.44 763.01C2195.74 740.894 2181.39 707.72 2181.39 663.488C2181.39 630.174 2189.37 604.069 2205.33 585.173C2221.29 566.276 2242.42 552.489 2268.74 543.811C2295.05 535.132 2323.61 529.393 2354.4 526.594C2394.99 522.395 2423.41 518.195 2439.65 513.996C2455.88 509.797 2464 500.559 2464 486.281L2464 483.342C2464 467.105 2457.56 453.807 2444.69 443.449C2431.81 433.091 2414.03 427.912 2391.36 427.912C2368.4 427.912 2349.78 433.231 2335.51 443.869C2321.23 454.507 2313.39 468.365 2311.99 485.441L2195.67 485.441C2198.47 439.81 2217.23 403.487 2251.94 376.472C2286.66 349.457 2334.39 335.949 2395.13 335.949C2455.88 335.949 2502.91 349.457 2536.23 376.472C2569.54 403.487 2586.2 440.65 2586.2 487.961L2586.2 788.625L2465.26 788.625L2465.26 726.057L2463.58 726.057C2451.82 747.613 2435.73 764.689 2415.29 777.287C2394.86 789.885 2367.7 796.184 2333.83 796.184ZM2368.26 710.1C2397.93 710.1 2421.45 702.191 2438.81 686.374C2456.16 670.557 2464.84 650.611 2464.84 626.535L2464.84 582.023C2457.84 585.943 2446.23 589.512 2429.99 592.731C2413.75 595.951 2395.69 599.1 2375.82 602.18C2354.54 605.539 2336.56 611.628 2321.86 620.446C2307.16 629.265 2299.81 642.492 2299.81 660.129C2299.81 675.806 2306.04 688.054 2318.5 696.872C2330.96 705.69 2347.54 710.1 2368.26 710.1Z"/>
<path d="M2702.54 788.625L2702.54 345.188L2821.8 345.188L2821.8 420.773L2823.06 420.773C2831.18 394.178 2843.92 374.442 2861.27 361.564C2878.63 348.687 2902.01 342.248 2931.4 342.248C2938.68 342.248 2945.33 342.388 2951.35 342.668C2957.37 342.948 2962.89 343.088 2967.93 343.088L2967.93 448.488C2963.45 448.208 2956.04 447.788 2945.68 447.229C2935.32 446.669 2924.96 446.389 2914.6 446.389C2889.13 446.389 2868.06 455.067 2851.41 472.424C2834.75 489.781 2826.42 515.116 2826.42 548.43L2826.42 788.625L2702.54 788.625Z"/>
<path d="M3059.08 964.152L3059.08 345.188L3181.28 345.188L3181.28 405.236L3182.54 405.236C3196.26 382.281 3214.38 364.994 3236.92 353.376C3259.45 341.758 3285.14 335.949 3313.97 335.949C3351.77 335.949 3385.01 345.677 3413.71 365.134C3442.4 384.59 3464.8 411.675 3480.89 446.389C3496.99 481.102 3505.04 521.135 3505.04 566.486C3505.04 612.678 3497.06 653.13 3481.1 687.844C3465.15 722.557 3442.82 749.572 3414.13 768.889C3385.43 788.205 3351.77 797.863 3313.13 797.863C3252.95 797.863 3209.97 772.668 3184.22 722.277L3182.96 722.277L3182.96 964.152L3059.08 964.152ZM3281.22 697.082C3311.18 697.082 3335.18 685.674 3353.24 662.858C3371.29 640.043 3380.32 607.919 3380.32 566.486C3380.32 525.054 3371.29 492.93 3353.24 470.114C3335.18 447.299 3311.18 435.891 3281.22 435.891C3249.87 435.891 3224.67 447.788 3205.63 471.584C3186.6 495.38 3177.08 527.014 3177.08 566.486C3177.08 606.239 3186.6 637.943 3205.63 661.599C3224.67 685.254 3249.87 697.082 3281.22 697.082Z"/>
<path d="M3725.94 162.941L3725.94 788.625L3602.07 788.625L3602.07 162.941L3725.94 162.941Z"/>
<path d="M4048.05 798.703C4003.26 798.703 3963.99 789.045 3930.26 769.729C3896.53 750.412 3870.21 723.467 3851.32 688.894C3832.42 654.32 3822.97 613.798 3822.97 567.326C3822.97 520.855 3832.42 480.262 3851.32 445.549C3870.21 410.835 3896.53 383.75 3930.26 364.294C3963.99 344.838 4003.26 335.109 4048.05 335.109C4093.12 335.109 4132.52 344.838 4166.26 364.294C4199.99 383.75 4226.31 410.835 4245.2 445.549C4264.1 480.262 4273.55 520.855 4273.55 567.326C4273.55 613.518 4264.1 653.97 4245.2 688.684C4226.31 723.397 4199.99 750.412 4166.26 769.729C4132.52 789.045 4093.12 798.703 4048.05 798.703ZM4048.05 698.342C4078.28 698.342 4102.64 686.794 4121.12 663.698C4139.59 640.603 4148.83 608.479 4148.83 567.326C4148.83 525.894 4139.59 493.56 4121.12 470.324C4102.64 447.089 4078.28 435.471 4048.05 435.471C4018.09 435.471 3993.88 447.089 3975.4 470.324C3956.93 493.56 3947.69 525.894 3947.69 567.326C3947.69 608.479 3956.93 640.603 3975.4 663.698C3993.88 686.794 4018.09 698.342 4048.05 698.342Z"/>
<path d="M4625.47 345.188L4625.47 442.189L4534.76 442.189L4534.76 651.73C4534.76 666.848 4537.77 677.276 4543.79 683.015C4549.81 688.754 4561.22 691.623 4578.02 691.623L4625.47 691.623L4625.47 788.625L4553.24 788.625C4504.53 788.625 4468.63 779.107 4445.53 760.07C4422.43 741.034 4410.89 711.359 4410.89 671.047L4410.89 442.189L4334.46 442.189L4334.46 345.188L4410.89 345.188L4410.89 224.25L4534.76 224.25L4534.76 345.188L4625.47 345.188Z"/>
</g>
</g>
</svg>
