<?xml version="1.0" encoding="UTF-8" standalone="no"?>
<!DOCTYPE svg PUBLIC "-//W3C//DTD SVG 1.1//EN" "http://www.w3.org/Graphics/SVG/1.1/DTD/svg11.dtd">
<!-- Created with Vectornator (http://vectornator.io/) -->
<svg height="100%" stroke-miterlimit="10" style="fill-rule:nonzero;clip-rule:evenodd;stroke-linecap:round;stroke-linejoin:round;" version="1.1" viewBox="0 0 1536 260" width="100%" xml:space="preserve" xmlns="http://www.w3.org/2000/svg" xmlns:vectornator="http://vectornator.io" xmlns:xlink="http://www.w3.org/1999/xlink">
<defs>
<linearGradient gradientTransform="matrix(-1.99459e-16 1.08581 -1.08581 -1.99459e-16 260.593 3.32992e-14)" gradientUnits="userSpaceOnUse" id="LinearGradient" x1="0" x2="240" y1="120" y2="120">
<stop offset="0.430596" stop-color="#28597c"/>
<stop offset="1" stop-color="#0e3b5b"/>
</linearGradient>
</defs>
<g id="text" vectornator:layerName="text">
<path d="M0 0L1536 0L1536 260L0 260L0 0Z" fill="#e1f2ff" fill-rule="nonzero" opacity="1" stroke="none" vectornator:layerName="Rectangle 1"/>
<g fill="#1e4d70" opacity="1" stroke="none" vectornator:layerName="Text 1">
<path d="M380.312 123.82C377.912 121.54 375.092 119.62 371.852 118.06C368.612 116.5 365.192 115.72 361.592 115.72C358.832 115.72 356.282 116.26 353.942 117.34C351.602 118.42 350.432 120.28 350.432 122.92C350.432 125.44 351.722 127.24 354.302 128.32C356.882 129.4 361.052 130.6 366.812 131.92C370.172 132.64 373.562 133.66 376.982 134.98C380.402 136.3 383.492 138.04 386.252 140.2C389.012 142.36 391.232 145 392.912 148.12C394.592 151.24 395.432 154.96 395.432 159.28C395.432 164.92 394.292 169.69 392.012 173.59C389.732 177.49 386.762 180.64 383.102 183.04C379.442 185.44 375.332 187.18 370.772 188.26C366.212 189.34 361.652 189.88 357.092 189.88C349.772 189.88 342.602 188.71 335.582 186.37C328.562 184.03 322.712 180.58 318.032 176.02L334.592 158.56C337.232 161.44 340.472 163.84 344.312 165.76C348.152 167.68 352.232 168.64 356.552 168.64C358.952 168.64 361.322 168.07 363.662 166.93C366.002 165.79 367.172 163.78 367.172 160.9C367.172 158.14 365.732 156.1 362.852 154.78C359.972 153.46 355.472 152.08 349.352 150.64C346.232 149.92 343.112 148.96 339.992 147.76C336.872 146.56 334.082 144.94 331.622 142.9C329.162 140.86 327.152 138.34 325.592 135.34C324.032 132.34 323.252 128.74 323.252 124.54C323.252 119.14 324.392 114.55 326.672 110.77C328.952 106.99 331.892 103.9 335.492 101.5C339.092 99.1 343.082 97.33 347.462 96.19C351.842 95.05 356.192 94.48 360.512 94.48C367.232 94.48 373.802 95.53 380.222 97.63C386.642 99.73 392.072 102.88 396.512 107.08L380.312 123.82Z"/>
<path d="M444.572 119.5L444.572 153.7C444.572 157.9 445.382 161.05 447.002 163.15C448.622 165.25 451.532 166.3 455.732 166.3C457.172 166.3 458.702 166.18 460.322 165.94C461.942 165.7 463.292 165.34 464.372 164.86L464.732 186.46C462.692 187.18 460.112 187.81 456.992 188.35C453.872 188.89 450.752 189.16 447.632 189.16C441.632 189.16 436.592 188.41 432.512 186.91C428.432 185.41 425.162 183.25 422.702 180.43C420.242 177.61 418.472 174.25 417.392 170.35C416.312 166.45 415.772 162.1 415.772 157.3L415.772 119.5L401.372 119.5L401.372 97.36L415.592 97.36L415.592 73.78L444.572 73.78L444.572 97.36L465.632 97.36L465.632 119.5L444.572 119.5Z"/>
<path d="M532.412 147.94L528.632 147.94C525.392 147.94 522.122 148.09 518.822 148.39C515.522 148.69 512.582 149.26 510.002 150.1C507.422 150.94 505.292 152.17 503.612 153.79C501.932 155.41 501.092 157.54 501.092 160.18C501.092 161.86 501.482 163.3 502.262 164.5C503.042 165.7 504.032 166.66 505.232 167.38C506.432 168.1 507.812 168.61 509.372 168.91C510.932 169.21 512.432 169.36 513.872 169.36C519.872 169.36 524.462 167.71 527.642 164.41C530.822 161.11 532.412 156.64 532.412 151L532.412 147.94ZM478.232 109.6C483.512 104.56 489.662 100.78 496.682 98.26C503.702 95.74 510.872 94.48 518.192 94.48C525.752 94.48 532.142 95.41 537.362 97.27C542.582 99.13 546.812 102.01 550.052 105.91C553.292 109.81 555.662 114.73 557.162 120.67C558.662 126.61 559.412 133.66 559.412 141.82L559.412 187L532.412 187L532.412 177.46L531.872 177.46C529.592 181.18 526.142 184.06 521.522 186.1C516.902 188.14 511.892 189.16 506.492 189.16C502.892 189.16 499.172 188.68 495.332 187.72C491.492 186.76 487.982 185.2 484.802 183.04C481.622 180.88 479.012 178 476.972 174.4C474.932 170.8 473.912 166.36 473.912 161.08C473.912 154.6 475.682 149.38 479.222 145.42C482.762 141.46 487.322 138.4 492.902 136.24C498.482 134.08 504.692 132.64 511.532 131.92C518.372 131.2 525.032 130.84 531.512 130.84L531.512 129.4C531.512 124.96 529.952 121.69 526.832 119.59C523.712 117.49 519.872 116.44 515.312 116.44C511.112 116.44 507.062 117.34 503.162 119.14C499.262 120.94 495.932 123.1 493.172 125.62L478.232 109.6Z"/>
<path d="M639.512 121.48C638.192 121.12 636.902 120.88 635.642 120.76C634.382 120.64 633.152 120.58 631.952 120.58C627.992 120.58 624.662 121.3 621.962 122.74C619.262 124.18 617.102 125.92 615.482 127.96C613.862 130 612.692 132.22 611.972 134.62C611.252 137.02 610.892 139.12 610.892 140.92L610.892 187L581.372 187L581.372 97.36L609.812 97.36L609.812 110.32L610.172 110.32C612.452 105.76 615.692 102.04 619.892 99.16C624.092 96.28 628.952 94.84 634.472 94.84C635.672 94.84 636.842 94.9 637.982 95.02C639.122 95.14 640.052 95.32 640.772 95.56L639.512 121.48Z"/>
<path d="M752.372 141.82C752.372 148.06 751.412 154.06 749.492 159.82C747.572 165.58 744.782 170.65 741.122 175.03C737.462 179.41 732.992 182.92 727.712 185.56C722.432 188.2 716.432 189.52 709.712 189.52C704.192 189.52 698.972 188.41 694.052 186.19C689.132 183.97 685.292 180.94 682.532 177.1L682.172 177.1L682.172 230.2L652.652 230.2L652.652 97.36L680.732 97.36L680.732 108.34L681.272 108.34C684.032 104.74 687.842 101.59 692.702 98.89C697.562 96.19 703.292 94.84 709.892 94.84C716.372 94.84 722.252 96.1 727.532 98.62C732.812 101.14 737.282 104.56 740.942 108.88C744.602 113.2 747.422 118.21 749.402 123.91C751.382 129.61 752.372 135.58 752.372 141.82ZM723.752 141.82C723.752 138.94 723.302 136.12 722.402 133.36C721.502 130.6 720.182 128.17 718.442 126.07C716.702 123.97 714.512 122.26 711.872 120.94C709.232 119.62 706.172 118.96 702.692 118.96C699.332 118.96 696.332 119.62 693.692 120.94C691.052 122.26 688.802 124 686.942 126.16C685.082 128.32 683.642 130.78 682.622 133.54C681.602 136.3 681.092 139.12 681.092 142C681.092 144.88 681.602 147.7 682.622 150.46C683.642 153.22 685.082 155.68 686.942 157.84C688.802 160 691.052 161.74 693.692 163.06C696.332 164.38 699.332 165.04 702.692 165.04C706.172 165.04 709.232 164.38 711.872 163.06C714.512 161.74 716.702 160 718.442 157.84C720.182 155.68 721.502 153.19 722.402 150.37C723.302 147.55 723.752 144.7 723.752 141.82Z"/>
<path d="M771.272 187L771.272 50.92L801.152 50.92L801.152 187L771.272 187Z"/>
<path d="M919.592 141.82C919.592 149.14 918.272 155.77 915.632 161.71C912.992 167.65 909.392 172.69 904.832 176.83C900.272 180.97 894.992 184.18 888.992 186.46C882.992 188.74 876.572 189.88 869.732 189.88C863.012 189.88 856.622 188.74 850.562 186.46C844.502 184.18 839.222 180.97 834.722 176.83C830.222 172.69 826.652 167.65 824.012 161.71C821.372 155.77 820.052 149.14 820.052 141.82C820.052 134.5 821.372 127.9 824.012 122.02C826.652 116.14 830.222 111.16 834.722 107.08C839.222 103 844.502 99.88 850.562 97.72C856.622 95.56 863.012 94.48 869.732 94.48C876.572 94.48 882.992 95.56 888.992 97.72C894.992 99.88 900.272 103 904.832 107.08C909.392 111.16 912.992 116.14 915.632 122.02C918.272 127.9 919.592 134.5 919.592 141.82ZM891.152 141.82C891.152 138.94 890.672 136.12 889.712 133.36C888.752 130.6 887.372 128.17 885.572 126.07C883.772 123.97 881.552 122.26 878.912 120.94C876.272 119.62 873.212 118.96 869.732 118.96C866.252 118.96 863.192 119.62 860.552 120.94C857.912 122.26 855.722 123.97 853.982 126.07C852.242 128.17 850.922 130.6 850.022 133.36C849.122 136.12 848.672 138.94 848.672 141.82C848.672 144.7 849.122 147.52 850.022 150.28C850.922 153.04 852.272 155.53 854.072 157.75C855.872 159.97 858.092 161.74 860.732 163.06C863.372 164.38 866.432 165.04 869.912 165.04C873.392 165.04 876.452 164.38 879.092 163.06C881.732 161.74 883.952 159.97 885.752 157.75C887.552 155.53 888.902 153.04 889.802 150.28C890.702 147.52 891.152 144.7 891.152 141.82Z"/>
<path d="M970.352 119.5L970.352 153.7C970.352 157.9 971.162 161.05 972.782 163.15C974.402 165.25 977.312 166.3 981.512 166.3C982.952 166.3 984.482 166.18 986.102 165.94C987.722 165.7 989.072 165.34 990.152 164.86L990.512 186.46C988.472 187.18 985.892 187.81 982.772 188.35C979.652 188.89 976.532 189.16 973.412 189.16C967.412 189.16 962.372 188.41 958.292 186.91C954.212 185.41 950.942 183.25 948.482 180.43C946.022 177.61 944.252 174.25 943.172 170.35C942.092 166.45 941.552 162.1 941.552 157.3L941.552 119.5L927.152 119.5L927.152 97.36L941.372 97.36L941.372 73.78L970.352 73.78L970.352 97.36L991.412 97.36L991.412 119.5L970.352 119.5Z"/>
</g>
</g>
<clipPath id="ArtboardFrame">
<rect height="260" width="1536" x="0" y="0"/>
</clipPath>
<g clip-path="url(#ArtboardFrame)" id="logo" vectornator:layerName="logo">
<path d="M260.593 3.32992e-14L260.593 260.593L-2.84217e-14 260.593L2.43874e-15-2.84217e-14L260.593 3.32992e-14Z" fill="url(#LinearGradient)" fill-rule="nonzero" opacity="1" stroke="none" vectornator:layerName="Rectangle 1"/>
<g opacity="1" vectornator:layerName="Line 1">
<path d="M239.812 12.5C212.667 21.5359 185.532 30.6223 158.344 39.5312C145.436 43.7607 132.527 47.8833 119.594 52.0312C115.899 53.2161 112.255 54.561 108.562 55.75C105.33 56.7908 102.066 57.8002 98.8438 58.875C86.8884 62.8634 75.0399 67.1167 63.1562 71.3125C60.3242 72.3483 58.8705 75.4805 59.9062 78.3125C60.942 81.1445 64.0742 82.5983 66.9062 81.5625C78.6928 77.1013 90.48 72.666 102.188 68C105.343 66.7426 108.484 65.4154 111.625 64.125C115.214 62.6508 118.85 61.3533 122.438 59.875C134.995 54.6999 147.566 49.5022 160.156 44.4062C186.677 33.6721 213.242 23.1101 239.812 12.5Z" fill="#50d5ee" stroke="none"/>
</g>
<g opacity="1" vectornator:layerName="Line 2">
<path d="M239.812 12.5C226.459 25.1344 213.146 37.8214 199.688 50.3438C193.402 56.1917 187.002 61.9019 180.719 67.75C179.373 69.0029 178.124 70.3369 176.781 71.5938C174.99 73.2707 173.123 74.8721 171.344 76.5625C165.574 82.0449 159.997 87.7111 154.375 93.3438C152.283 95.5156 152.328 98.9706 154.5 101.062C156.672 103.154 160.127 103.109 162.219 100.938C167.637 95.1088 173.112 89.283 178.375 83.3125C179.998 81.4716 181.516 79.5713 183.125 77.7188C184.331 76.3303 185.611 75.0172 186.812 73.625C192.421 67.1268 197.923 60.4998 203.531 54C215.541 40.0818 227.687 26.317 239.812 12.5Z" fill="#50d5ee" stroke="none"/>
</g>
<g opacity="1" vectornator:layerName="Line 3">
<path d="M239.812 12.5C229.609 39.4853 219.453 66.4684 209.125 93.4062C204.222 106.195 199.233 118.961 194.25 131.719C192.827 135.363 191.575 139.073 190.156 142.719C188.914 145.91 187.615 149.077 186.406 152.281C181.92 164.172 177.687 176.159 173.406 188.125C172.422 190.975 173.931 194.078 176.781 195.062C179.632 196.047 182.766 194.538 183.75 191.688C187.763 179.63 191.82 167.595 195.625 155.469C196.65 152.201 197.603 148.903 198.594 145.625C199.726 141.88 201.028 138.184 202.156 134.438C206.105 121.323 210.031 108.215 214.062 95.125C222.554 67.5529 231.194 40.0323 239.812 12.5Z" fill="#50d5ee" stroke="none"/>
</g>
<path d="M63.0775 76.4274L106.898 122.311L162.674 92.0693L132.577 147.924L178.575 191.625L116.154 180.261L88.8056 237.512L80.3239 174.634L17.4241 166.316L74.6036 138.819L63.0775 76.4274Z" fill="#ffed73" fill-rule="nonzero" opacity="1" stroke="#ffed73" stroke-linecap="butt" stroke-linejoin="round" stroke-width="10" vectornator:layerName="Star 1"/>
</g>
</svg>
