<?xml version="1.0" encoding="UTF-8" standalone="no"?>
<!DOCTYPE svg PUBLIC "-//W3C//DTD SVG 1.1//EN" "http://www.w3.org/Graphics/SVG/1.1/DTD/svg11.dtd">
<!-- Created with Vectornator (http://vectornator.io/) -->
<svg height="100%" stroke-miterlimit="10" style="fill-rule:nonzero;clip-rule:evenodd;stroke-linecap:round;stroke-linejoin:round;" version="1.1" viewBox="0 0 1536 300" width="100%" xml:space="preserve" xmlns="http://www.w3.org/2000/svg" xmlns:vectornator="http://vectornator.io" xmlns:xlink="http://www.w3.org/1999/xlink">
<defs>
<linearGradient gradientTransform="matrix(-2.29678e-16 1.25031 -1.25031 -2.29678e-16 300.074 4.265e-14)" gradientUnits="userSpaceOnUse" id="LinearGradient" x1="0" x2="240" y1="120" y2="120">
<stop offset="0.430596" stop-color="#28597c"/>
<stop offset="1" stop-color="#0e3b5b"/>
</linearGradient>
</defs>
<g id="text" vectornator:layerName="text">
<path d="M0 0L1536 0L1536 300L0 300L0 0Z" fill="#e1f2ff" fill-rule="nonzero" opacity="1" stroke="none" vectornator:layerName="Rectangle 1"/>
<g fill="#1e4d70" opacity="1" stroke="none" vectornator:layerName="Text 1">
<path d="M617.982 143.3C615.315 140.767 612.182 138.633 608.582 136.9C604.982 135.167 601.182 134.3 597.182 134.3C594.115 134.3 591.282 134.9 588.682 136.1C586.082 137.3 584.782 139.367 584.782 142.3C584.782 145.1 586.215 147.1 589.082 148.3C591.949 149.5 596.582 150.833 602.982 152.3C606.715 153.1 610.482 154.233 614.282 155.7C618.082 157.167 621.515 159.1 624.582 161.5C627.649 163.9 630.115 166.833 631.982 170.3C633.849 173.767 634.782 177.9 634.782 182.7C634.782 188.967 633.515 194.267 630.982 198.6C628.449 202.933 625.149 206.433 621.082 209.1C617.015 211.767 612.449 213.7 607.382 214.9C602.315 216.1 597.249 216.7 592.182 216.7C584.049 216.7 576.082 215.4 568.282 212.8C560.482 210.2 553.982 206.367 548.782 201.3L567.182 181.9C570.115 185.1 573.715 187.767 577.982 189.9C582.249 192.033 586.782 193.1 591.582 193.1C594.249 193.1 596.882 192.467 599.482 191.2C602.082 189.933 603.382 187.7 603.382 184.5C603.382 181.433 601.782 179.167 598.582 177.7C595.382 176.233 590.382 174.7 583.582 173.1C580.115 172.3 576.649 171.233 573.182 169.9C569.715 168.567 566.615 166.767 563.882 164.5C561.149 162.233 558.915 159.433 557.182 156.1C555.449 152.767 554.582 148.767 554.582 144.1C554.582 138.1 555.849 133 558.382 128.8C560.915 124.6 564.182 121.167 568.182 118.5C572.182 115.833 576.615 113.867 581.482 112.6C586.349 111.333 591.182 110.7 595.982 110.7C603.449 110.7 610.749 111.867 617.882 114.2C625.015 116.533 631.049 120.033 635.982 124.7L617.982 143.3Z"/>
<path d="M689.382 138.5L689.382 176.5C689.382 181.167 690.282 184.667 692.082 187C693.882 189.333 697.115 190.5 701.782 190.5C703.382 190.5 705.082 190.367 706.882 190.1C708.682 189.833 710.182 189.433 711.382 188.9L711.782 212.9C709.515 213.7 706.649 214.4 703.182 215C699.715 215.6 696.249 215.9 692.782 215.9C686.115 215.9 680.515 215.067 675.982 213.4C671.449 211.733 667.815 209.333 665.082 206.2C662.349 203.067 660.382 199.333 659.182 195C657.982 190.667 657.382 185.833 657.382 180.5L657.382 138.5L641.382 138.5L641.382 113.9L657.182 113.9L657.182 87.7L689.382 87.7L689.382 113.9L712.782 113.9L712.782 138.5L689.382 138.5Z"/>
<path d="M786.982 170.1L782.782 170.1C779.182 170.1 775.549 170.267 771.882 170.6C768.215 170.933 764.949 171.567 762.082 172.5C759.215 173.433 756.849 174.8 754.982 176.6C753.115 178.4 752.182 180.767 752.182 183.7C752.182 185.567 752.615 187.167 753.482 188.5C754.349 189.833 755.449 190.9 756.782 191.7C758.115 192.5 759.649 193.067 761.382 193.4C763.115 193.733 764.782 193.9 766.382 193.9C773.049 193.9 778.149 192.067 781.682 188.4C785.215 184.733 786.982 179.767 786.982 173.5L786.982 170.1ZM726.782 127.5C732.649 121.9 739.482 117.7 747.282 114.9C755.082 112.1 763.049 110.7 771.182 110.7C779.582 110.7 786.682 111.733 792.482 113.8C798.282 115.867 802.982 119.067 806.582 123.4C810.182 127.733 812.815 133.2 814.482 139.8C816.149 146.4 816.982 154.233 816.982 163.3L816.982 213.5L786.982 213.5L786.982 202.9L786.382 202.9C783.849 207.033 780.015 210.233 774.882 212.5C769.749 214.767 764.182 215.9 758.182 215.9C754.182 215.9 750.049 215.367 745.782 214.3C741.515 213.233 737.615 211.5 734.082 209.1C730.549 206.7 727.649 203.5 725.382 199.5C723.115 195.5 721.982 190.567 721.982 184.7C721.982 177.5 723.949 171.7 727.882 167.3C731.815 162.9 736.882 159.5 743.082 157.1C749.282 154.7 756.182 153.1 763.782 152.3C771.382 151.5 778.782 151.1 785.982 151.1L785.982 149.5C785.982 144.567 784.249 140.933 780.782 138.6C777.315 136.267 773.049 135.1 767.982 135.1C763.315 135.1 758.815 136.1 754.482 138.1C750.149 140.1 746.449 142.5 743.382 145.3L726.782 127.5Z"/>
<path d="M905.982 140.7C904.515 140.3 903.082 140.033 901.682 139.9C900.282 139.767 898.915 139.7 897.582 139.7C893.182 139.7 889.482 140.5 886.482 142.1C883.482 143.7 881.082 145.633 879.282 147.9C877.482 150.167 876.182 152.633 875.382 155.3C874.582 157.967 874.182 160.3 874.182 162.3L874.182 213.5L841.382 213.5L841.382 113.9L872.982 113.9L872.982 128.3L873.382 128.3C875.915 123.233 879.515 119.1 884.182 115.9C888.849 112.7 894.249 111.1 900.382 111.1C901.715 111.1 903.015 111.167 904.282 111.3C905.549 111.433 906.582 111.633 907.382 111.9L905.982 140.7Z"/>
<path d="M1031.38 163.3C1031.38 170.233 1030.32 176.9 1028.18 183.3C1026.05 189.7 1022.95 195.333 1018.88 200.2C1014.82 205.067 1009.85 208.967 1003.98 211.9C998.115 214.833 991.449 216.3 983.982 216.3C977.849 216.3 972.049 215.067 966.582 212.6C961.115 210.133 956.849 206.767 953.782 202.5L953.382 202.5L953.382 261.5L920.582 261.5L920.582 113.9L951.782 113.9L951.782 126.1L952.382 126.1C955.449 122.1 959.682 118.6 965.082 115.6C970.482 112.6 976.849 111.1 984.182 111.1C991.382 111.1 997.915 112.5 1003.78 115.3C1009.65 118.1 1014.62 121.9 1018.68 126.7C1022.75 131.5 1025.88 137.067 1028.08 143.4C1030.28 149.733 1031.38 156.367 1031.38 163.3ZM999.582 163.3C999.582 160.1 999.082 156.967 998.082 153.9C997.082 150.833 995.615 148.133 993.682 145.8C991.749 143.467 989.315 141.567 986.382 140.1C983.449 138.633 980.049 137.9 976.182 137.9C972.449 137.9 969.115 138.633 966.182 140.1C963.249 141.567 960.749 143.5 958.682 145.9C956.615 148.3 955.015 151.033 953.882 154.1C952.749 157.167 952.182 160.3 952.182 163.5C952.182 166.7 952.749 169.833 953.882 172.9C955.015 175.967 956.615 178.7 958.682 181.1C960.749 183.5 963.249 185.433 966.182 186.9C969.115 188.367 972.449 189.1 976.182 189.1C980.049 189.1 983.449 188.367 986.382 186.9C989.315 185.433 991.749 183.5 993.682 181.1C995.615 178.7 997.082 175.933 998.082 172.8C999.082 169.667 999.582 166.5 999.582 163.3Z"/>
<path d="M1052.38 213.5L1052.38 62.3L1085.58 62.3L1085.58 213.5L1052.38 213.5Z"/>
<path d="M1217.18 163.3C1217.18 171.433 1215.72 178.8 1212.78 185.4C1209.85 192 1205.85 197.6 1200.78 202.2C1195.72 206.8 1189.85 210.367 1183.18 212.9C1176.52 215.433 1169.38 216.7 1161.78 216.7C1154.32 216.7 1147.22 215.433 1140.48 212.9C1133.75 210.367 1127.88 206.8 1122.88 202.2C1117.88 197.6 1113.92 192 1110.98 185.4C1108.05 178.8 1106.58 171.433 1106.58 163.3C1106.58 155.167 1108.05 147.833 1110.98 141.3C1113.92 134.767 1117.88 129.233 1122.88 124.7C1127.88 120.167 1133.75 116.7 1140.48 114.3C1147.22 111.9 1154.32 110.7 1161.78 110.7C1169.38 110.7 1176.52 111.9 1183.18 114.3C1189.85 116.7 1195.72 120.167 1200.78 124.7C1205.85 129.233 1209.85 134.767 1212.78 141.3C1215.72 147.833 1217.18 155.167 1217.18 163.3ZM1185.58 163.3C1185.58 160.1 1185.05 156.967 1183.98 153.9C1182.92 150.833 1181.38 148.133 1179.38 145.8C1177.38 143.467 1174.92 141.567 1171.98 140.1C1169.05 138.633 1165.65 137.9 1161.78 137.9C1157.92 137.9 1154.52 138.633 1151.58 140.1C1148.65 141.567 1146.22 143.467 1144.28 145.8C1142.35 148.133 1140.88 150.833 1139.88 153.9C1138.88 156.967 1138.38 160.1 1138.38 163.3C1138.38 166.5 1138.88 169.633 1139.88 172.7C1140.88 175.767 1142.38 178.533 1144.38 181C1146.38 183.467 1148.85 185.433 1151.78 186.9C1154.72 188.367 1158.12 189.1 1161.98 189.1C1165.85 189.1 1169.25 188.367 1172.18 186.9C1175.12 185.433 1177.58 183.467 1179.58 181C1181.58 178.533 1183.08 175.767 1184.08 172.7C1185.08 169.633 1185.58 166.5 1185.58 163.3Z"/>
<path d="M1273.58 138.5L1273.58 176.5C1273.58 181.167 1274.48 184.667 1276.28 187C1278.08 189.333 1281.32 190.5 1285.98 190.5C1287.58 190.5 1289.28 190.367 1291.08 190.1C1292.88 189.833 1294.38 189.433 1295.58 188.9L1295.98 212.9C1293.72 213.7 1290.85 214.4 1287.38 215C1283.92 215.6 1280.45 215.9 1276.98 215.9C1270.32 215.9 1264.72 215.067 1260.18 213.4C1255.65 211.733 1252.02 209.333 1249.28 206.2C1246.55 203.067 1244.58 199.333 1243.38 195C1242.18 190.667 1241.58 185.833 1241.58 180.5L1241.58 138.5L1225.58 138.5L1225.58 113.9L1241.38 113.9L1241.38 87.7L1273.58 87.7L1273.58 113.9L1296.98 113.9L1296.98 138.5L1273.58 138.5Z"/>
</g>
</g>
<clipPath id="ArtboardFrame">
<rect height="300" width="1536" x="0" y="0"/>
</clipPath>
<g clip-path="url(#ArtboardFrame)" id="logo" vectornator:layerName="logo">
<path d="M300.074 4.265e-14L300.074 300.074L-2.84217e-14 300.074L7.11413e-15-2.84217e-14L300.074 4.265e-14Z" fill="url(#LinearGradient)" fill-rule="nonzero" opacity="1" stroke="none" vectornator:layerName="Rectangle 1"/>
<g opacity="1" vectornator:layerName="Line 1">
<path d="M276.156 14.375C244.941 24.8991 213.726 35.4777 182.469 45.875C167.631 50.8106 152.771 55.6458 137.906 60.5C133.66 61.8867 129.495 63.4529 125.25 64.8438C121.535 66.0611 117.798 67.2174 114.094 68.4688C100.345 73.1131 86.6767 78.0234 73 82.875C70.168 83.9108 68.7142 87.043 69.75 89.875C70.7858 92.707 73.918 94.1608 76.75 93.125C90.3297 88.0079 103.936 82.947 117.438 77.625C121.075 76.1911 124.688 74.6857 128.312 73.2188C132.453 71.5428 136.642 70.0239 140.781 68.3438C155.27 62.4624 169.76 56.5833 184.281 50.7812C214.871 38.5587 245.517 26.4732 276.156 14.375Z" fill="#50d5ee" stroke="none"/>
</g>
<g opacity="1" vectornator:layerName="Line 2">
<path d="M276.156 14.375C261.128 28.769 246.121 43.2027 231 57.5C223.819 64.2897 216.583 71.0231 209.344 77.75C207.276 79.6712 205.346 81.7007 203.281 83.625C201.474 85.31 199.627 86.9763 197.844 88.6875C191.232 95.0321 184.802 101.562 178.344 108.062C176.252 110.234 176.328 113.689 178.5 115.781C180.672 117.873 184.127 117.797 186.219 115.625C192.473 108.928 198.751 102.282 204.844 95.4375C206.487 93.5913 208.071 91.6819 209.688 89.8125C211.533 87.6776 213.501 85.6691 215.344 83.5312C221.795 76.0456 228.234 68.5549 234.75 61.125C248.471 45.4796 262.335 29.9318 276.156 14.375Z" fill="#50d5ee" stroke="none"/>
</g>
<g opacity="1" vectornator:layerName="Line 3">
<path d="M276.156 14.375C264.528 45.4899 252.941 76.6196 241.188 107.688C235.608 122.435 229.941 137.158 224.281 151.875C222.665 156.079 221.206 160.357 219.594 164.562C218.182 168.244 216.722 171.9 215.344 175.594C210.229 189.304 205.378 203.121 200.469 216.906C199.485 219.757 200.993 222.86 203.844 223.844C206.694 224.828 209.797 223.319 210.781 220.469C215.423 206.591 220.129 192.727 224.562 178.781C225.757 175.024 226.871 171.237 228.031 167.469C229.357 163.164 230.835 158.9 232.156 154.594C236.782 139.52 241.418 124.455 246.125 109.406C256.042 77.7041 266.112 46.0369 276.156 14.375Z" fill="#50d5ee" stroke="none"/>
</g>
<path d="M72.6338 88.0063L123.093 140.842L187.32 106.018L152.663 170.335L205.63 220.657L133.751 207.571L102.26 273.496L92.4931 201.091L20.0638 191.513L85.9061 159.85L72.6338 88.0063Z" fill="#ffed73" fill-rule="nonzero" opacity="1" stroke="#ffed73" stroke-linecap="butt" stroke-linejoin="round" stroke-width="10" vectornator:layerName="Star 1"/>
</g>
</svg>
