<?xml version="1.0" encoding="UTF-8" standalone="no"?>
<!DOCTYPE svg PUBLIC "-//W3C//DTD SVG 1.1//EN" "http://www.w3.org/Graphics/SVG/1.1/DTD/svg11.dtd">
<!-- Created with Vectornator (http://vectornator.io/) -->
<svg height="100%" stroke-miterlimit="10" style="fill-rule:nonzero;clip-rule:evenodd;stroke-linecap:round;stroke-linejoin:round;" version="1.1" viewBox="0 0 1536 396" width="100%" xml:space="preserve" xmlns="http://www.w3.org/2000/svg" xmlns:xlink="http://www.w3.org/1999/xlink">
<defs>
<linearGradient gradientTransform="matrix(-3.02742e-16 1.64805 -1.64805 -3.02742e-16 395.533 6.52592e-14)" gradientUnits="userSpaceOnUse" id="LinearGradient" x1="0" x2="240" y1="120" y2="120">
<stop offset="0.430596" stop-color="#28597c"/>
<stop offset="1" stop-color="#0e3b5b"/>
</linearGradient>
</defs>
<g id="text">
<path d="M0 0L1536 0L1536 395.533L0 395.533L0 0Z" fill="#e1f2ff" fill-rule="nonzero" opacity="1" stroke="none"/>
<g fill="#1e4d70" opacity="1" stroke="none">
<path d="M547.069 189.144C543.656 185.901 539.645 183.171 535.037 180.952C530.429 178.733 525.565 177.624 520.445 177.624C516.52 177.624 512.893 178.392 509.565 179.928C506.237 181.464 504.573 184.109 504.573 187.864C504.573 191.448 506.408 194.008 510.077 195.544C513.747 197.08 519.677 198.787 527.869 200.664C532.648 201.688 537.469 203.139 542.333 205.016C547.197 206.893 551.592 209.368 555.517 212.44C559.443 215.512 562.6 219.267 564.989 223.704C567.379 228.141 568.573 233.432 568.573 239.576C568.573 247.597 566.952 254.381 563.709 259.928C560.467 265.475 556.243 269.955 551.037 273.368C545.832 276.781 539.987 279.256 533.501 280.792C527.016 282.328 520.531 283.096 514.045 283.096C503.635 283.096 493.437 281.432 483.453 278.104C473.469 274.776 465.149 269.869 458.493 263.384L482.045 238.552C485.8 242.648 490.408 246.061 495.869 248.792C501.331 251.523 507.133 252.888 513.277 252.888C516.691 252.888 520.061 252.077 523.389 250.456C526.717 248.835 528.381 245.976 528.381 241.88C528.381 237.955 526.333 235.053 522.237 233.176C518.141 231.299 511.741 229.336 503.037 227.288C498.6 226.264 494.163 224.899 489.725 223.192C485.288 221.485 481.32 219.181 477.821 216.28C474.323 213.379 471.464 209.795 469.245 205.528C467.027 201.261 465.917 196.141 465.917 190.168C465.917 182.488 467.539 175.96 470.781 170.584C474.024 165.208 478.205 160.813 483.325 157.4C488.445 153.987 494.12 151.469 500.349 149.848C506.579 148.227 512.765 147.416 518.909 147.416C528.467 147.416 537.811 148.909 546.941 151.896C556.072 154.883 563.795 159.363 570.109 165.336L547.069 189.144Z"/>
<path d="M638.461 183L638.461 231.64C638.461 237.613 639.613 242.093 641.917 245.08C644.221 248.067 648.36 249.56 654.333 249.56C656.381 249.56 658.557 249.389 660.861 249.048C663.165 248.707 665.085 248.195 666.621 247.512L667.133 278.232C664.232 279.256 660.563 280.152 656.125 280.92C651.688 281.688 647.251 282.072 642.813 282.072C634.28 282.072 627.112 281.005 621.309 278.872C615.507 276.739 610.856 273.667 607.357 269.656C603.859 265.645 601.341 260.867 599.805 255.32C598.269 249.773 597.501 243.587 597.501 236.76L597.501 183L577.021 183L577.021 151.512L597.245 151.512L597.245 117.976L638.461 117.976L638.461 151.512L668.413 151.512L668.413 183L638.461 183Z"/>
<path d="M763.389 223.448L758.013 223.448C753.405 223.448 748.755 223.661 744.061 224.088C739.368 224.515 735.187 225.325 731.517 226.52C727.848 227.715 724.819 229.464 722.429 231.768C720.04 234.072 718.845 237.101 718.845 240.856C718.845 243.245 719.4 245.293 720.509 247C721.619 248.707 723.027 250.072 724.733 251.096C726.44 252.12 728.403 252.845 730.621 253.272C732.84 253.699 734.973 253.912 737.021 253.912C745.555 253.912 752.083 251.565 756.605 246.872C761.128 242.179 763.389 235.821 763.389 227.8L763.389 223.448ZM686.333 168.92C693.843 161.752 702.589 156.376 712.573 152.792C722.557 149.208 732.755 147.416 743.165 147.416C753.917 147.416 763.005 148.739 770.429 151.384C777.853 154.029 783.869 158.125 788.477 163.672C793.085 169.219 796.456 176.216 798.589 184.664C800.723 193.112 801.789 203.139 801.789 214.744L801.789 279L763.389 279L763.389 265.432L762.621 265.432C759.379 270.723 754.472 274.819 747.901 277.72C741.331 280.621 734.205 282.072 726.525 282.072C721.405 282.072 716.115 281.389 710.653 280.024C705.192 278.659 700.2 276.44 695.677 273.368C691.155 270.296 687.443 266.2 684.541 261.08C681.64 255.96 680.189 249.645 680.189 242.136C680.189 232.92 682.707 225.496 687.741 219.864C692.776 214.232 699.261 209.88 707.197 206.808C715.133 203.736 723.965 201.688 733.693 200.664C743.421 199.64 752.893 199.128 762.109 199.128L762.109 197.08C762.109 190.765 759.891 186.115 755.453 183.128C751.016 180.141 745.555 178.648 739.069 178.648C733.096 178.648 727.336 179.928 721.789 182.488C716.243 185.048 711.507 188.12 707.581 191.704L686.333 168.92Z"/>
<path d="M915.709 185.816C913.832 185.304 911.997 184.963 910.205 184.792C908.413 184.621 906.664 184.536 904.957 184.536C899.325 184.536 894.589 185.56 890.749 187.608C886.909 189.656 883.837 192.131 881.533 195.032C879.229 197.933 877.565 201.091 876.541 204.504C875.517 207.917 875.005 210.904 875.005 213.464L875.005 279L833.021 279L833.021 151.512L873.469 151.512L873.469 169.944L873.981 169.944C877.224 163.459 881.832 158.168 887.805 154.072C893.779 149.976 900.691 147.928 908.541 147.928C910.248 147.928 911.912 148.013 913.533 148.184C915.155 148.355 916.477 148.611 917.501 148.952L915.709 185.816Z"/>
<path d="M1076.22 214.744C1076.22 223.619 1074.86 232.152 1072.13 240.344C1069.39 248.536 1065.43 255.747 1060.22 261.976C1055.02 268.205 1048.66 273.197 1041.15 276.952C1033.64 280.707 1025.11 282.584 1015.55 282.584C1007.7 282.584 1000.27 281.005 993.277 277.848C986.28 274.691 980.819 270.381 976.893 264.92L976.381 264.92L976.381 340.44L934.397 340.44L934.397 151.512L974.333 151.512L974.333 167.128L975.101 167.128C979.027 162.008 984.445 157.528 991.357 153.688C998.269 149.848 1006.42 147.928 1015.81 147.928C1025.02 147.928 1033.38 149.72 1040.89 153.304C1048.4 156.888 1054.76 161.752 1059.97 167.896C1065.17 174.04 1069.18 181.165 1072 189.272C1074.81 197.379 1076.22 205.869 1076.22 214.744ZM1035.52 214.744C1035.52 210.648 1034.88 206.637 1033.6 202.712C1032.32 198.787 1030.44 195.331 1027.97 192.344C1025.49 189.357 1022.38 186.925 1018.62 185.048C1014.87 183.171 1010.51 182.232 1005.57 182.232C1000.79 182.232 996.52 183.171 992.765 185.048C989.011 186.925 985.811 189.4 983.165 192.472C980.52 195.544 978.472 199.043 977.021 202.968C975.571 206.893 974.845 210.904 974.845 215C974.845 219.096 975.571 223.107 977.021 227.032C978.472 230.957 980.52 234.456 983.165 237.528C985.811 240.6 989.011 243.075 992.765 244.952C996.52 246.829 1000.79 247.768 1005.57 247.768C1010.51 247.768 1014.87 246.829 1018.62 244.952C1022.38 243.075 1025.49 240.6 1027.97 237.528C1030.44 234.456 1032.32 230.915 1033.6 226.904C1034.88 222.893 1035.52 218.84 1035.52 214.744Z"/>
<path d="M1103.1 279L1103.1 85.464L1145.6 85.464L1145.6 279L1103.1 279Z"/>
<path d="M1314.05 214.744C1314.05 225.155 1312.17 234.584 1308.41 243.032C1304.66 251.48 1299.54 258.648 1293.05 264.536C1286.57 270.424 1279.06 274.989 1270.53 278.232C1261.99 281.475 1252.86 283.096 1243.13 283.096C1233.58 283.096 1224.49 281.475 1215.87 278.232C1207.25 274.989 1199.74 270.424 1193.34 264.536C1186.94 258.648 1181.86 251.48 1178.11 243.032C1174.35 234.584 1172.48 225.155 1172.48 214.744C1172.48 204.333 1174.35 194.947 1178.11 186.584C1181.86 178.221 1186.94 171.139 1193.34 165.336C1199.74 159.533 1207.25 155.096 1215.87 152.024C1224.49 148.952 1233.58 147.416 1243.13 147.416C1252.86 147.416 1261.99 148.952 1270.53 152.024C1279.06 155.096 1286.57 159.533 1293.05 165.336C1299.54 171.139 1304.66 178.221 1308.41 186.584C1312.17 194.947 1314.05 204.333 1314.05 214.744ZM1273.6 214.744C1273.6 210.648 1272.91 206.637 1271.55 202.712C1270.18 198.787 1268.22 195.331 1265.66 192.344C1263.1 189.357 1259.94 186.925 1256.19 185.048C1252.43 183.171 1248.08 182.232 1243.13 182.232C1238.18 182.232 1233.83 183.171 1230.08 185.048C1226.32 186.925 1223.21 189.357 1220.73 192.344C1218.26 195.331 1216.38 198.787 1215.1 202.712C1213.82 206.637 1213.18 210.648 1213.18 214.744C1213.18 218.84 1213.82 222.851 1215.1 226.776C1216.38 230.701 1218.3 234.243 1220.86 237.4C1223.42 240.557 1226.58 243.075 1230.33 244.952C1234.09 246.829 1238.44 247.768 1243.39 247.768C1248.34 247.768 1252.69 246.829 1256.45 244.952C1260.2 243.075 1263.36 240.557 1265.92 237.4C1268.48 234.243 1270.4 230.701 1271.68 226.776C1272.96 222.851 1273.6 218.84 1273.6 214.744Z"/>
<path d="M1386.24 183L1386.24 231.64C1386.24 237.613 1387.39 242.093 1389.69 245.08C1392 248.067 1396.14 249.56 1402.11 249.56C1404.16 249.56 1406.33 249.389 1408.64 249.048C1410.94 248.707 1412.86 248.195 1414.4 247.512L1414.91 278.232C1412.01 279.256 1408.34 280.152 1403.9 280.92C1399.46 281.688 1395.03 282.072 1390.59 282.072C1382.06 282.072 1374.89 281.005 1369.09 278.872C1363.28 276.739 1358.63 273.667 1355.13 269.656C1351.63 265.645 1349.12 260.867 1347.58 255.32C1346.05 249.773 1345.28 243.587 1345.28 236.76L1345.28 183L1324.8 183L1324.8 151.512L1345.02 151.512L1345.02 117.976L1386.24 117.976L1386.24 151.512L1416.19 151.512L1416.19 183L1386.24 183Z"/>
</g>
</g>
<clipPath id="ArtboardFrame">
<rect height="396" width="1536" x="0" y="0"/>
</clipPath>
<g clip-path="url(#ArtboardFrame)" id="logo">
<path d="M395.533 6.52592e-14L395.533 395.533L-2.84217e-14 395.533L1.84188e-14-2.84217e-14L395.533 6.52592e-14Z" fill="url(#LinearGradient)" fill-rule="nonzero" opacity="1" stroke="none"/>
<g opacity="1">
<path d="M364 18.9688C322.947 33.091 281.91 47.2589 240.812 61.25C221.305 67.8909 201.785 74.4414 182.25 81C177.018 82.7566 171.848 84.6537 166.625 86.4375C161.053 88.3405 155.439 90.1683 149.875 92.0938C132.146 98.2288 114.479 104.561 96.8125 110.875C93.9805 111.911 92.5267 115.043 93.5625 117.875C94.5983 120.707 97.7305 122.161 100.562 121.125C118.134 114.551 135.715 108.001 153.219 101.25C158.712 99.1312 164.172 96.922 169.656 94.7812C174.797 92.7746 179.994 90.8772 185.125 88.8438C204.282 81.2516 223.436 73.6366 242.625 66.125C283.052 50.2995 323.523 34.6651 364 18.9688Z" fill="#50d5ee" stroke="none"/>
</g>
<g opacity="1">
<path d="M364 18.9688C344.383 38.1263 324.804 57.3133 305.094 76.375C295.736 85.4247 286.323 94.3873 276.906 103.375C274.216 105.942 271.655 108.648 268.969 111.219C266.617 113.469 264.234 115.693 261.906 117.969C253.271 126.414 244.824 135.056 236.344 143.656C234.252 145.828 234.297 149.283 236.469 151.375C238.641 153.467 242.096 153.391 244.188 151.219C252.464 142.423 260.791 133.664 268.906 124.719C271.093 122.308 273.215 119.841 275.375 117.406C277.843 114.625 280.441 111.972 282.906 109.188C291.535 99.441 300.151 89.6898 308.844 80C327.154 59.59 345.59 39.2891 364 18.9688Z" fill="#50d5ee" stroke="none"/>
</g>
<g opacity="1">
<path d="M364 18.9688C348.924 60.0685 333.893 101.198 318.688 142.25C311.47 161.735 304.174 181.17 296.875 200.625C294.92 205.836 293.115 211.092 291.188 216.312C289.131 221.882 286.972 227.422 284.938 233C278.455 250.773 272.179 268.633 265.875 286.469C264.891 289.319 266.4 292.422 269.25 293.406C272.1 294.39 275.235 292.882 276.219 290.031C282.261 272.105 288.325 254.174 294.188 236.188C296.027 230.543 297.745 224.871 299.562 219.219C301.266 213.921 303.105 208.651 304.781 203.344C311.04 183.53 317.284 163.725 323.625 143.938C336.985 102.248 350.508 60.6155 364 18.9688Z" fill="#50d5ee" stroke="none"/>
</g>
<path d="M95.74 116.003L162.252 185.646L246.91 139.744L201.228 224.521L271.044 290.852L176.3 273.603L134.79 360.5L121.917 265.063L26.4465 252.437L113.235 210.702L95.74 116.003Z" fill="#ffed73" fill-rule="nonzero" opacity="1" stroke="#ffed73" stroke-linecap="butt" stroke-linejoin="round" stroke-width="10"/>
</g>
</svg>
