<?xml version="1.0" encoding="UTF-8" standalone="no"?>
<!DOCTYPE svg PUBLIC "-//W3C//DTD SVG 1.1//EN" "http://www.w3.org/Graphics/SVG/1.1/DTD/svg11.dtd">
<!-- Created with Vectornator (http://vectornator.io/) -->
<svg height="100%" stroke-miterlimit="10" style="fill-rule:nonzero;clip-rule:evenodd;stroke-linecap:round;stroke-linejoin:round;" version="1.1" viewBox="0 0 1536 180" width="100%" xml:space="preserve" xmlns="http://www.w3.org/2000/svg" xmlns:vectornator="http://vectornator.io" xmlns:xlink="http://www.w3.org/1999/xlink">
<defs>
<linearGradient gradientTransform="matrix(-1.37764e-16 0.749954 -0.749954 -1.37764e-16 179.989 1.42083e-14)" gradientUnits="userSpaceOnUse" id="LinearGradient" x1="0" x2="240" y1="120" y2="120">
<stop offset="0.430596" stop-color="#28597c"/>
<stop offset="1" stop-color="#0e3b5b"/>
</linearGradient>
</defs>
<g id="text" vectornator:layerName="text">
<path d="M0 0L1536 0L1536 180L0 180L0 0Z" fill="#e1f2ff" fill-rule="nonzero" opacity="1" stroke="none" vectornator:layerName="Rectangle 1"/>
<g fill="#1e4d70" opacity="1" stroke="none" vectornator:layerName="Text 1">
<path d="M268.401 79.9419C266.534 78.1686 264.341 76.6753 261.821 75.4619C259.301 74.2486 256.641 73.6419 253.841 73.6419C251.694 73.6419 249.711 74.0619 247.891 74.9019C246.071 75.7419 245.161 77.1886 245.161 79.2419C245.161 81.2019 246.164 82.6019 248.171 83.4419C250.178 84.2819 253.421 85.2153 257.901 86.2419C260.514 86.8019 263.151 87.5953 265.811 88.6219C268.471 89.6486 270.874 91.0019 273.021 92.6819C275.168 94.3619 276.894 96.4153 278.201 98.8419C279.508 101.269 280.161 104.162 280.161 107.522C280.161 111.909 279.274 115.619 277.501 118.652C275.728 121.685 273.418 124.135 270.571 126.002C267.724 127.869 264.528 129.222 260.981 130.062C257.434 130.902 253.888 131.322 250.341 131.322C244.648 131.322 239.071 130.412 233.611 128.592C228.151 126.772 223.601 124.089 219.961 120.542L232.841 106.962C234.894 109.202 237.414 111.069 240.401 112.562C243.388 114.055 246.561 114.802 249.921 114.802C251.788 114.802 253.631 114.359 255.451 113.472C257.271 112.585 258.181 111.022 258.181 108.782C258.181 106.635 257.061 105.049 254.821 104.022C252.581 102.995 249.081 101.922 244.321 100.802C241.894 100.242 239.468 99.4953 237.041 98.5619C234.614 97.6286 232.444 96.3686 230.531 94.7819C228.618 93.1953 227.054 91.2353 225.841 88.9019C224.628 86.5686 224.021 83.7686 224.021 80.5019C224.021 76.3019 224.908 72.7319 226.681 69.7919C228.454 66.8519 230.741 64.4486 233.541 62.5819C236.341 60.7153 239.444 59.3386 242.851 58.4519C246.258 57.5653 249.641 57.1219 253.001 57.1219C258.228 57.1219 263.338 57.9386 268.331 59.5719C273.324 61.2053 277.548 63.6553 281.001 66.9219L268.401 79.9419Z"/>
<path d="M318.381 76.5819L318.381 103.182C318.381 106.449 319.011 108.899 320.271 110.532C321.531 112.165 323.794 112.982 327.061 112.982C328.181 112.982 329.371 112.889 330.631 112.702C331.891 112.515 332.941 112.235 333.781 111.862L334.061 128.662C332.474 129.222 330.468 129.712 328.041 130.132C325.614 130.552 323.188 130.762 320.761 130.762C316.094 130.762 312.174 130.179 309.001 129.012C305.828 127.845 303.284 126.165 301.371 123.972C299.458 121.779 298.081 119.165 297.241 116.132C296.401 113.099 295.981 109.715 295.981 105.982L295.981 76.5819L284.781 76.5819L284.781 59.3619L295.841 59.3619L295.841 41.0219L318.381 41.0219L318.381 59.3619L334.761 59.3619L334.761 76.5819L318.381 76.5819Z"/>
<path d="M386.701 98.7019L383.761 98.7019C381.241 98.7019 378.698 98.8186 376.131 99.0519C373.564 99.2853 371.278 99.7286 369.271 100.382C367.264 101.035 365.608 101.992 364.301 103.252C362.994 104.512 362.341 106.169 362.341 108.222C362.341 109.529 362.644 110.649 363.251 111.582C363.858 112.515 364.628 113.262 365.561 113.822C366.494 114.382 367.568 114.779 368.781 115.012C369.994 115.245 371.161 115.362 372.281 115.362C376.948 115.362 380.518 114.079 382.991 111.512C385.464 108.945 386.701 105.469 386.701 101.082L386.701 98.7019ZM344.561 68.8819C348.668 64.9619 353.451 62.0219 358.911 60.0619C364.371 58.1019 369.948 57.1219 375.641 57.1219C381.521 57.1219 386.491 57.8453 390.551 59.2919C394.611 60.7386 397.901 62.9786 400.421 66.0119C402.941 69.0453 404.784 72.8719 405.951 77.4919C407.118 82.1119 407.701 87.5953 407.701 93.9419L407.701 129.082L386.701 129.082L386.701 121.662L386.281 121.662C384.508 124.555 381.824 126.795 378.231 128.382C374.638 129.969 370.741 130.762 366.541 130.762C363.741 130.762 360.848 130.389 357.861 129.642C354.874 128.895 352.144 127.682 349.671 126.002C347.198 124.322 345.168 122.082 343.581 119.282C341.994 116.482 341.201 113.029 341.201 108.922C341.201 103.882 342.578 99.8219 345.331 96.7419C348.084 93.6619 351.631 91.2819 355.971 89.6019C360.311 87.9219 365.141 86.8019 370.461 86.2419C375.781 85.6819 380.961 85.4019 386.001 85.4019L386.001 84.2819C386.001 80.8286 384.788 78.2853 382.361 76.6519C379.934 75.0186 376.948 74.2019 373.401 74.2019C370.134 74.2019 366.984 74.9019 363.951 76.3019C360.918 77.7019 358.328 79.3819 356.181 81.3419L344.561 68.8819Z"/>
<path d="M470.001 78.1219C468.974 77.8419 467.971 77.6553 466.991 77.5619C466.011 77.4686 465.054 77.4219 464.121 77.4219C461.041 77.4219 458.451 77.9819 456.351 79.1019C454.251 80.2219 452.571 81.5753 451.311 83.1619C450.051 84.7486 449.141 86.4753 448.581 88.3419C448.021 90.2086 447.741 91.8419 447.741 93.2419L447.741 129.082L424.781 129.082L424.781 59.3619L446.901 59.3619L446.901 69.4419L447.181 69.4419C448.954 65.8953 451.474 63.0019 454.741 60.7619C458.008 58.5219 461.788 57.4019 466.081 57.4019C467.014 57.4019 467.924 57.4486 468.811 57.5419C469.698 57.6353 470.421 57.7753 470.981 57.9619L470.001 78.1219Z"/>
<path d="M557.781 93.9419C557.781 98.7953 557.034 103.462 555.541 107.942C554.048 112.422 551.878 116.365 549.031 119.772C546.184 123.179 542.708 125.909 538.601 127.962C534.494 130.015 529.828 131.042 524.601 131.042C520.308 131.042 516.248 130.179 512.421 128.452C508.594 126.725 505.608 124.369 503.461 121.382L503.181 121.382L503.181 162.682L480.221 162.682L480.221 59.3619L502.061 59.3619L502.061 67.9019L502.481 67.9019C504.628 65.1019 507.591 62.6519 511.371 60.5519C515.151 58.4519 519.608 57.4019 524.741 57.4019C529.781 57.4019 534.354 58.3819 538.461 60.3419C542.568 62.3019 546.044 64.9619 548.891 68.3219C551.738 71.6819 553.931 75.5786 555.471 80.0119C557.011 84.4453 557.781 89.0886 557.781 93.9419ZM535.521 93.9419C535.521 91.7019 535.171 89.5086 534.471 87.3619C533.771 85.2153 532.744 83.3253 531.391 81.6919C530.038 80.0586 528.334 78.7286 526.281 77.7019C524.228 76.6753 521.848 76.1619 519.141 76.1619C516.528 76.1619 514.194 76.6753 512.141 77.7019C510.088 78.7286 508.338 80.0819 506.891 81.7619C505.444 83.4419 504.324 85.3553 503.531 87.5019C502.738 89.6486 502.341 91.8419 502.341 94.0819C502.341 96.3219 502.738 98.5153 503.531 100.662C504.324 102.809 505.444 104.722 506.891 106.402C508.338 108.082 510.088 109.435 512.141 110.462C514.194 111.489 516.528 112.002 519.141 112.002C521.848 112.002 524.228 111.489 526.281 110.462C528.334 109.435 530.038 108.082 531.391 106.402C532.744 104.722 533.771 102.785 534.471 100.592C535.171 98.3986 535.521 96.1819 535.521 93.9419Z"/>
<path d="M572.481 129.082L572.481 23.2419L595.721 23.2419L595.721 129.082L572.481 129.082Z"/>
<path d="M687.841 93.9419C687.841 99.6353 686.814 104.792 684.761 109.412C682.708 114.032 679.908 117.952 676.361 121.172C672.814 124.392 668.708 126.889 664.041 128.662C659.374 130.435 654.381 131.322 649.061 131.322C643.834 131.322 638.864 130.435 634.151 128.662C629.438 126.889 625.331 124.392 621.831 121.172C618.331 117.952 615.554 114.032 613.501 109.412C611.448 104.792 610.421 99.6353 610.421 93.9419C610.421 88.2486 611.448 83.1153 613.501 78.5419C615.554 73.9686 618.331 70.0953 621.831 66.9219C625.331 63.7486 629.438 61.3219 634.151 59.6419C638.864 57.9619 643.834 57.1219 649.061 57.1219C654.381 57.1219 659.374 57.9619 664.041 59.6419C668.708 61.3219 672.814 63.7486 676.361 66.9219C679.908 70.0953 682.708 73.9686 684.761 78.5419C686.814 83.1153 687.841 88.2486 687.841 93.9419ZM665.721 93.9419C665.721 91.7019 665.348 89.5086 664.601 87.3619C663.854 85.2153 662.781 83.3253 661.381 81.6919C659.981 80.0586 658.254 78.7286 656.201 77.7019C654.148 76.6753 651.768 76.1619 649.061 76.1619C646.354 76.1619 643.974 76.6753 641.921 77.7019C639.868 78.7286 638.164 80.0586 636.811 81.6919C635.458 83.3253 634.431 85.2153 633.731 87.3619C633.031 89.5086 632.681 91.7019 632.681 93.9419C632.681 96.1819 633.031 98.3753 633.731 100.522C634.431 102.669 635.481 104.605 636.881 106.332C638.281 108.059 640.008 109.435 642.061 110.462C644.114 111.489 646.494 112.002 649.201 112.002C651.908 112.002 654.288 111.489 656.341 110.462C658.394 109.435 660.121 108.059 661.521 106.332C662.921 104.605 663.971 102.669 664.671 100.522C665.371 98.3753 665.721 96.1819 665.721 93.9419Z"/>
<path d="M727.321 76.5819L727.321 103.182C727.321 106.449 727.951 108.899 729.211 110.532C730.471 112.165 732.734 112.982 736.001 112.982C737.121 112.982 738.311 112.889 739.571 112.702C740.831 112.515 741.881 112.235 742.721 111.862L743.001 128.662C741.414 129.222 739.408 129.712 736.981 130.132C734.554 130.552 732.128 130.762 729.701 130.762C725.034 130.762 721.114 130.179 717.941 129.012C714.768 127.845 712.224 126.165 710.311 123.972C708.398 121.779 707.021 119.165 706.181 116.132C705.341 113.099 704.921 109.715 704.921 105.982L704.921 76.5819L693.721 76.5819L693.721 59.3619L704.781 59.3619L704.781 41.0219L727.321 41.0219L727.321 59.3619L743.701 59.3619L743.701 76.5819L727.321 76.5819Z"/>
</g>
</g>
<clipPath id="ArtboardFrame">
<rect height="180" width="1536" x="0" y="0"/>
</clipPath>
<g clip-path="url(#ArtboardFrame)" id="logo" vectornator:layerName="logo">
<path d="M179.989 1.42083e-14L179.989 179.989L-2.84217e-14 179.989L-7.10673e-15-2.84217e-14L179.989 1.42083e-14Z" fill="url(#LinearGradient)" fill-rule="nonzero" opacity="1" stroke="none" vectornator:layerName="Rectangle 1"/>
<g opacity="1" vectornator:layerName="Line 1">
<path d="M165.656 8.625C146.817 14.6227 127.973 20.6609 109.094 26.5312C100.127 29.3192 91.147 32.0127 82.1562 34.7188C79.5886 35.4915 77.0662 36.4418 74.5 37.2188C72.2527 37.8991 69.9871 38.5354 67.75 39.25C59.4573 41.899 51.2538 44.7994 43.0312 47.6562C40.1992 48.692 38.7455 51.8242 39.7812 54.6562C40.817 57.4883 43.9492 58.942 46.7812 57.9062C54.9068 54.784 63.0488 51.7013 71.0938 48.375C73.264 47.4777 75.4065 46.5238 77.5625 45.5938C80.0244 44.5317 82.5709 43.6286 85.0312 42.5625C93.6464 38.8294 102.226 35.0922 110.875 31.4375C129.087 23.7423 147.393 16.1969 165.656 8.625Z" fill="#50d5ee" stroke="none"/>
</g>
<g opacity="1" vectornator:layerName="Line 2">
<path d="M165.656 8.625C156.243 17.1691 146.86 25.7576 137.344 34.1875C132.896 38.1274 128.321 41.9665 123.875 45.9062C122.923 46.7501 122.073 47.6521 121.125 48.5C119.859 49.6321 118.536 50.6978 117.281 51.8438C113.221 55.5519 109.321 59.4525 105.406 63.3125C103.314 65.4843 103.359 68.9393 105.531 71.0312C107.703 73.1232 111.189 73.0468 113.281 70.875C116.992 66.8189 120.728 62.7896 124.281 58.5938C125.379 57.2971 126.385 55.9328 127.469 54.625C128.281 53.6455 129.161 52.7331 129.969 51.75C133.739 47.16 137.386 42.467 141.156 37.875C149.224 28.0498 157.471 18.3518 165.656 8.625Z" fill="#50d5ee" stroke="none"/>
</g>
<g opacity="1" vectornator:layerName="Line 3">
<path d="M165.656 8.625C158.364 27.1794 151.104 45.7448 143.688 64.25C140.165 73.0385 136.539 81.8066 132.938 90.5625C131.909 93.063 131.056 95.623 130.031 98.125C129.134 100.316 128.208 102.483 127.344 104.688C124.141 112.861 121.185 121.125 118.188 129.375C117.203 132.225 118.712 135.328 121.562 136.312C124.413 137.297 127.516 135.788 128.5 132.938C131.231 124.595 134.01 116.283 136.531 107.875C137.211 105.607 137.823 103.309 138.469 101.031C139.206 98.4301 140.11 95.8837 140.844 93.2812C143.411 84.1685 145.944 75.0585 148.594 65.9688C154.174 46.8294 159.948 27.7264 165.656 8.625Z" fill="#50d5ee" stroke="none"/>
</g>
<path d="M43.5669 52.7876L73.8333 84.4792L112.357 63.5913L91.5698 102.17L123.34 132.353L80.2261 124.505L61.3371 164.047L55.4789 120.618L12.0346 114.873L51.5279 95.8809L43.5669 52.7876Z" fill="#ffed73" fill-rule="nonzero" opacity="1" stroke="#ffed73" stroke-linecap="butt" stroke-linejoin="round" stroke-width="10" vectornator:layerName="Star 1"/>
</g>
</svg>
