<svg id="figure" xmlns="http://www.w3.org/2000/svg" height="4142.8825" width="4118.5413" viewBox="0 0 4118.5413 4142.8825">
  <rect x="0" y="0" height="4142.8825" width="4118.5413" fill="none" stroke="#000" stroke-width="0.0" stroke-linecap="round" />
  <svg id="axes" xmlns="http://www.w3.org/2000/svg" x="11.2706" y="11.2707" height="3952.3411" width="4096" viewBox="0 0 4096 3952.3411">
    <defs>
      <clipPath id="axes-clip-path">
        <polygon id="axes-background" points="1461.4481,3952.3411 -0.0,2210.6238 2634.5209,-0.0001 4096.0,1741.733 1461.4481,3952.3411" fill="#1a1a1a" stroke="#000" stroke-width="0.0" stroke-linecap="round" />
      </clipPath>
    </defs>
    <g id="axes" clip-path="url(#axes-clip-path)">
      <polygon id="axes-background" points="1461.4481,3952.3411 -0.0,2210.6238 2634.5209,-0.0001 4096.0,1741.733 1461.4481,3952.3411" fill="#1a1a1a" stroke="#000" stroke-width="0.0" stroke-linecap="round" />
      <g id="stars" fill="#ebebeb" stroke="#1a1a1a" stroke-width="1.0" stroke-opacity="1.0" stroke-linecap="square">
        <circle cx="1983.8769" cy="2074.7316" r="40.7148" fill="#ebebeb" />
        <circle cx="2023.3695" cy="1572.9858" r="30.5361" fill="#ebebeb" />
        <circle cx="2388.8893" cy="1565.0514" r="30.5361" fill="#ebebeb" />
        <circle cx="1761.2837" cy="2433.9124" r="30.5361" fill="#ebebeb" />
        <circle cx="2299.8126" cy="1959.6217" r="20.3574" fill="#ebebeb" />
        <circle cx="2036.3912" cy="1384.8205" r="20.3574" fill="#ebebeb" />
        <circle cx="2250.8549" cy="1429.3612" r="16.2859" fill="#ebebeb" />
        <circle cx="1687.053" cy="2380.7533" r="16.2859" fill="#ebebeb" />
        <circle cx="2424.4119" cy="2716.4477" r="16.2859" fill="#ebebeb" />
        <circle cx="1728.13" cy="1119.0697" r="16.2859" fill="#ebebeb" />
        <circle cx="1852.4941" cy="1459.4379" r="16.2859" fill="#ebebeb" />
        <circle cx="293.6012" cy="1590.4613" r="16.2859" fill="#ebebeb" />
        <circle cx="3059.6222" cy="2414.5779" r="12.2145" fill="#ebebeb" />
        <circle cx="1805.4487" cy="2731.729" r="12.2145" fill="#ebebeb" />
        <circle cx="1565.8779" cy="2827.195" r="12.2145" fill="#ebebeb" />
        <circle cx="1619.7141" cy="2103.5459" r="12.2145" fill="#ebebeb" />
        <circle cx="1827.9616" cy="1948.7466" r="12.2145" fill="#ebebeb" />
        <circle cx="2260.3675" cy="2257.9869" r="12.2145" fill="#ebebeb" />
        <circle cx="2335.4238" cy="2298.5142" r="12.2145" fill="#ebebeb" />
        <circle cx="1995.6374" cy="2041.1177" r="12.2145" fill="#ebebeb" />
        <circle cx="1960.6007" cy="2529.702" r="12.2145" fill="#ebebeb" />
        <circle cx="1959.3662" cy="2780.4237" r="12.2145" fill="#ebebeb" />
        <circle cx="348.1041" cy="2236.9762" r="12.2145" fill="#ebebeb" />
        <circle cx="468.6446" cy="2090.9639" r="12.2145" fill="#ebebeb" />
        <circle cx="1453.2839" cy="2244.1669" r="12.2145" fill="#ebebeb" />
        <circle cx="1711.1446" cy="1691.6385" r="12.2145" fill="#ebebeb" />
        <circle cx="1139.1744" cy="1580.8573" r="12.2145" fill="#ebebeb" />
        <circle cx="1852.9324" cy="1504.8684" r="12.2145" fill="#ebebeb" />
        <circle cx="3059.1022" cy="2413.6239" r="12.2145" fill="#ebebeb" />
        <circle cx="1806.4404" cy="2731.3665" r="12.2145" fill="#ebebeb" />
        <circle cx="1808.4517" cy="2730.8246" r="12.2145" fill="#ebebeb" />
        <circle cx="2296.7325" cy="1806.9203" r="6.1072" fill="#ebebeb" />
        <circle cx="2081.7337" cy="1557.1844" r="6.1072" fill="#ebebeb" />
        <circle cx="2969.5328" cy="1655.1061" r="6.1072" fill="#ebebeb" />
        <circle cx="3928.9897" cy="1969.4952" r="6.1072" fill="#ebebeb" />
        <circle cx="3466.8813" cy="2698.5534" r="6.1072" fill="#ebebeb" />
        <circle cx="2849.0835" cy="3627.0767" r="6.1072" fill="#ebebeb" />
        <circle cx="2974.6304" cy="3444.6009" r="6.1072" fill="#ebebeb" />
        <circle cx="2454.6694" cy="3967.7748" r="6.1072" fill="#ebebeb" />
        <circle cx="1554.372" cy="2350.6803" r="6.1072" fill="#ebebeb" />
        <circle cx="1387.9966" cy="2377.9219" r="6.1072" fill="#ebebeb" />
        <circle cx="2157.0278" cy="2191.9836" r="6.1072" fill="#ebebeb" />
        <circle cx="2350.5087" cy="2363.77" r="6.1072" fill="#ebebeb" />
        <circle cx="2019.8831" cy="1772.2197" r="6.1072" fill="#ebebeb" />
        <circle cx="2186.089" cy="258.2311" r="6.1072" fill="#ebebeb" />
        <circle cx="1817.173" cy="85.883" r="6.1072" fill="#ebebeb" />
        <circle cx="1748.5374" cy="675.2001" r="6.1072" fill="#ebebeb" />
        <circle cx="1181.2776" cy="2376.0928" r="6.1072" fill="#ebebeb" />
        <circle cx="1453.6193" cy="2217.8308" r="6.1072" fill="#ebebeb" />
        <circle cx="224.3702" cy="2078.3886" r="6.1072" fill="#ebebeb" />
        <circle cx="1588.5932" cy="1723.2386" r="6.1072" fill="#ebebeb" />
        <circle cx="2366.9336" cy="1727.2894" r="4.0715" fill="#ebebeb" />
        <circle cx="2348.5808" cy="1161.2494" r="4.0715" fill="#ebebeb" />
        <circle cx="2422.4658" cy="1285.5953" r="4.0715" fill="#ebebeb" />
        <circle cx="3562.9657" cy="1267.8055" r="4.0715" fill="#ebebeb" />
        <circle cx="3431.1364" cy="1023.7875" r="4.0715" fill="#ebebeb" />
        <circle cx="3374.0329" cy="1891.1936" r="4.0715" fill="#ebebeb" />
        <circle cx="2703.7526" cy="1889.5818" r="4.0715" fill="#ebebeb" />
        <circle cx="2448.4659" cy="1458.0924" r="4.0715" fill="#ebebeb" />
        <circle cx="2998.921" cy="739.2826" r="4.0715" fill="#ebebeb" />
        <circle cx="3334.1777" cy="918.9998" r="4.0715" fill="#ebebeb" />
        <circle cx="2224.8358" cy="1506.3931" r="4.0715" fill="#ebebeb" />
        <circle cx="2841.8762" cy="1777.6163" r="4.0715" fill="#ebebeb" />
        <circle cx="3887.003" cy="1863.6661" r="4.0715" fill="#ebebeb" />
        <circle cx="2843.8531" cy="1912.2715" r="4.0715" fill="#ebebeb" />
        <circle cx="3319.4281" cy="1435.2328" r="4.0715" fill="#ebebeb" />
        <circle cx="2700.6581" cy="796.5778" r="4.0715" fill="#ebebeb" />
        <circle cx="2585.9601" cy="1047.0806" r="4.0715" fill="#ebebeb" />
        <circle cx="2978.4568" cy="1514.4906" r="4.0715" fill="#ebebeb" />
        <circle cx="3325.5346" cy="1975.5821" r="4.0715" fill="#ebebeb" />
        <circle cx="3260.2117" cy="2522.7859" r="4.0715" fill="#ebebeb" />
        <circle cx="3075.7286" cy="1720.7392" r="4.0715" fill="#ebebeb" />
        <circle cx="3622.3182" cy="2664.6237" r="4.0715" fill="#ebebeb" />
        <circle cx="3172.4626" cy="2318.6223" r="4.0715" fill="#ebebeb" />
        <circle cx="3080.9834" cy="2288.5626" r="4.0715" fill="#ebebeb" />
        <circle cx="3577.7573" cy="1298.0786" r="4.0715" fill="#ebebeb" />
        <circle cx="2896.0306" cy="1350.5155" r="4.0715" fill="#ebebeb" />
        <circle cx="3012.2372" cy="1696.9284" r="4.0715" fill="#ebebeb" />
        <circle cx="3323.5741" cy="1841.8884" r="4.0715" fill="#ebebeb" />
        <circle cx="3544.7655" cy="2554.2538" r="4.0715" fill="#ebebeb" />
        <circle cx="3305.3485" cy="1981.6371" r="4.0715" fill="#ebebeb" />
        <circle cx="3108.7552" cy="2143.5233" r="4.0715" fill="#ebebeb" />
        <circle cx="3528.5772" cy="2732.41" r="4.0715" fill="#ebebeb" />
        <circle cx="4169.2127" cy="2101.2795" r="4.0715" fill="#ebebeb" />
        <circle cx="2725.7576" cy="1550.3068" r="4.0715" fill="#ebebeb" />
        <circle cx="3471.0245" cy="1316.1415" r="4.0715" fill="#ebebeb" />
        <circle cx="3896.7951" cy="1883.2166" r="4.0715" fill="#ebebeb" />
        <circle cx="3526.1188" cy="2866.125" r="4.0715" fill="#ebebeb" />
        <circle cx="3182.9205" cy="1125.3616" r="4.0715" fill="#ebebeb" />
        <circle cx="3322.9585" cy="2427.4296" r="4.0715" fill="#ebebeb" />
        <circle cx="3712.2119" cy="2093.8822" r="4.0715" fill="#ebebeb" />
        <circle cx="3778.8825" cy="2244.7511" r="4.0715" fill="#ebebeb" />
        <circle cx="3779.3692" cy="2244.4973" r="4.0715" fill="#ebebeb" />
        <circle cx="3317.0001" cy="1324.2158" r="4.0715" fill="#ebebeb" />
        <circle cx="2293.7611" cy="4256.293" r="4.0715" fill="#ebebeb" />
        <circle cx="2217.5534" cy="4372.2891" r="4.0715" fill="#ebebeb" />
        <circle cx="2523.638" cy="3998.558" r="4.0715" fill="#ebebeb" />
        <circle cx="2360.0135" cy="3867.536" r="4.0715" fill="#ebebeb" />
        <circle cx="2569.2424" cy="3790.8627" r="4.0715" fill="#ebebeb" />
        <circle cx="2200.1579" cy="4242.3008" r="4.0715" fill="#ebebeb" />
        <circle cx="2733.2705" cy="3617.8247" r="4.0715" fill="#ebebeb" />
        <circle cx="2733.0722" cy="3618.0624" r="4.0715" fill="#ebebeb" />
        <circle cx="2722.358" cy="3678.5606" r="4.0715" fill="#ebebeb" />
        <circle cx="2873.5932" cy="3365.8912" r="4.0715" fill="#ebebeb" />
        <circle cx="2055.9102" cy="3425.1596" r="4.0715" fill="#ebebeb" />
        <circle cx="2421.4229" cy="2984.3835" r="4.0715" fill="#ebebeb" />
        <circle cx="1926.5847" cy="3555.2331" r="4.0715" fill="#ebebeb" />
        <circle cx="2069.0817" cy="3477.7736" r="4.0715" fill="#ebebeb" />
        <circle cx="2340.3399" cy="3166.2482" r="4.0715" fill="#ebebeb" />
        <circle cx="1980.3974" cy="3874.5475" r="4.0715" fill="#ebebeb" />
        <circle cx="1567.5461" cy="3613.7006" r="4.0715" fill="#ebebeb" />
        <circle cx="2523.1519" cy="3225.4017" r="4.0715" fill="#ebebeb" />
        <circle cx="2278.2413" cy="3030.3225" r="4.0715" fill="#ebebeb" />
        <circle cx="2241.2215" cy="3397.0907" r="4.0715" fill="#ebebeb" />
        <circle cx="1986.5954" cy="3232.9464" r="4.0715" fill="#ebebeb" />
        <circle cx="2298.4742" cy="2890.4323" r="4.0715" fill="#ebebeb" />
        <circle cx="1870.8462" cy="3891.2066" r="4.0715" fill="#ebebeb" />
        <circle cx="2267.4366" cy="2976.8169" r="4.0715" fill="#ebebeb" />
        <circle cx="1775.3468" cy="3994.4318" r="4.0715" fill="#ebebeb" />
        <circle cx="1502.8886" cy="2462.74" r="4.0715" fill="#ebebeb" />
        <circle cx="1137.7922" cy="2881.4204" r="4.0715" fill="#ebebeb" />
        <circle cx="973.6347" cy="3042.265" r="4.0715" fill="#ebebeb" />
        <circle cx="752.3405" cy="3156.6366" r="4.0715" fill="#ebebeb" />
        <circle cx="2085.8832" cy="2937.9842" r="4.0715" fill="#ebebeb" />
        <circle cx="1399.4827" cy="3197.5148" r="4.0715" fill="#ebebeb" />
        <circle cx="1278.3112" cy="3331.5573" r="4.0715" fill="#ebebeb" />
        <circle cx="1682.6972" cy="3328.1966" r="4.0715" fill="#ebebeb" />
        <circle cx="1895.2452" cy="2557.8201" r="4.0715" fill="#ebebeb" />
        <circle cx="1444.1065" cy="3075.0792" r="4.0715" fill="#ebebeb" />
        <circle cx="1790.2724" cy="3137.9955" r="4.0715" fill="#ebebeb" />
        <circle cx="1686.3091" cy="2069.3381" r="4.0715" fill="#ebebeb" />
        <circle cx="3120.5315" cy="2732.9538" r="4.0715" fill="#ebebeb" />
        <circle cx="2142.4345" cy="2070.9967" r="4.0715" fill="#ebebeb" />
        <circle cx="1980.7878" cy="2019.8918" r="4.0715" fill="#ebebeb" />
        <circle cx="2518.2326" cy="2322.6148" r="4.0715" fill="#ebebeb" />
        <circle cx="2388.0834" cy="2129.2451" r="4.0715" fill="#ebebeb" />
        <circle cx="2535.8115" cy="2231.4162" r="4.0715" fill="#ebebeb" />
        <circle cx="2818.0763" cy="2550.8921" r="4.0715" fill="#ebebeb" />
        <circle cx="2955.1592" cy="2606.1032" r="4.0715" fill="#ebebeb" />
        <circle cx="3047.5267" cy="2992.5213" r="4.0715" fill="#ebebeb" />
        <circle cx="2694.8949" cy="2274.2934" r="4.0715" fill="#ebebeb" />
        <circle cx="2423.6934" cy="2505.9836" r="4.0715" fill="#ebebeb" />
        <circle cx="3101.9813" cy="2764.6231" r="4.0715" fill="#ebebeb" />
        <circle cx="2683.4505" cy="2795.9225" r="4.0715" fill="#ebebeb" />
        <circle cx="2837.7014" cy="2575.9023" r="4.0715" fill="#ebebeb" />
        <circle cx="1745.8523" cy="2233.0105" r="4.0715" fill="#ebebeb" />
        <circle cx="2468.6504" cy="2454.1136" r="4.0715" fill="#ebebeb" />
        <circle cx="3000.1428" cy="2875.8924" r="4.0715" fill="#ebebeb" />
        <circle cx="3012.0855" cy="2504.9527" r="4.0715" fill="#ebebeb" />
        <circle cx="2840.0805" cy="2350.0891" r="4.0715" fill="#ebebeb" />
        <circle cx="1888.9364" cy="1894.6107" r="4.0715" fill="#ebebeb" />
        <circle cx="2816.6179" cy="2406.871" r="4.0715" fill="#ebebeb" />
        <circle cx="2104.7321" cy="1780.8887" r="4.0715" fill="#ebebeb" />
        <circle cx="2104.8383" cy="1781.1044" r="4.0715" fill="#ebebeb" />
        <circle cx="2104.8139" cy="1768.831" r="4.0715" fill="#ebebeb" />
        <circle cx="3150.9765" cy="2595.2782" r="4.0715" fill="#ebebeb" />
        <circle cx="2858.8295" cy="3258.5861" r="4.0715" fill="#ebebeb" />
        <circle cx="3163.202" cy="3320.6165" r="4.0715" fill="#ebebeb" />
        <circle cx="2499.2282" cy="2903.3255" r="4.0715" fill="#ebebeb" />
        <circle cx="3073.1791" cy="3437.2827" r="4.0715" fill="#ebebeb" />
        <circle cx="3160.5522" cy="3274.1715" r="4.0715" fill="#ebebeb" />
        <circle cx="2997.5457" cy="3077.6467" r="4.0715" fill="#ebebeb" />
        <circle cx="2381.9925" cy="2444.6648" r="4.0715" fill="#ebebeb" />
        <circle cx="1997.1961" cy="2018.5211" r="4.0715" fill="#ebebeb" />
        <circle cx="2297.9614" cy="320.388" r="4.0715" fill="#ebebeb" />
        <circle cx="2140.6285" cy="506.2534" r="4.0715" fill="#ebebeb" />
        <circle cx="2220.3892" cy="1284.4617" r="4.0715" fill="#ebebeb" />
        <circle cx="1826.8595" cy="935.4146" r="4.0715" fill="#ebebeb" />
        <circle cx="2185.336" cy="1137.5646" r="4.0715" fill="#ebebeb" />
        <circle cx="1628.835" cy="1097.5731" r="4.0715" fill="#ebebeb" />
        <circle cx="2386.5552" cy="829.7461" r="4.0715" fill="#ebebeb" />
        <circle cx="1650.8522" cy="1133.0469" r="4.0715" fill="#ebebeb" />
        <circle cx="2373.3437" cy="924.5338" r="4.0715" fill="#ebebeb" />
        <circle cx="2149.0929" cy="1090.5864" r="4.0715" fill="#ebebeb" />
        <circle cx="2485.2112" cy="828.5001" r="4.0715" fill="#ebebeb" />
        <circle cx="1821.3996" cy="1040.4781" r="4.0715" fill="#ebebeb" />
        <circle cx="1894.2688" cy="989.4295" r="4.0715" fill="#ebebeb" />
        <circle cx="1833.8278" cy="765.0513" r="4.0715" fill="#ebebeb" />
        <circle cx="1013.7722" cy="659.2208" r="4.0715" fill="#ebebeb" />
        <circle cx="994.5679" cy="709.4928" r="4.0715" fill="#ebebeb" />
        <circle cx="2715.0233" cy="563.0087" r="4.0715" fill="#ebebeb" />
        <circle cx="1924.5511" cy="981.295" r="4.0715" fill="#ebebeb" />
        <circle cx="1771.1167" cy="805.1894" r="4.0715" fill="#ebebeb" />
        <circle cx="1366.3182" cy="244.8429" r="4.0715" fill="#ebebeb" />
        <circle cx="2398.0249" cy="911.2078" r="4.0715" fill="#ebebeb" />
        <circle cx="1586.9643" cy="1176.833" r="4.0715" fill="#ebebeb" />
        <circle cx="1456.7352" cy="457.2073" r="4.0715" fill="#ebebeb" />
        <circle cx="1388.059" cy="811.8069" r="4.0715" fill="#ebebeb" />
        <circle cx="1549.7119" cy="565.143" r="4.0715" fill="#ebebeb" />
        <circle cx="1127.1465" cy="618.1846" r="4.0715" fill="#ebebeb" />
        <circle cx="1316.2067" cy="216.3171" r="4.0715" fill="#ebebeb" />
        <circle cx="1569.032" cy="569.556" r="4.0715" fill="#ebebeb" />
        <circle cx="1642.0001" cy="616.5616" r="4.0715" fill="#ebebeb" />
        <circle cx="1981.6462" cy="326.4645" r="4.0715" fill="#ebebeb" />
        <circle cx="1125.1393" cy="890.6202" r="4.0715" fill="#ebebeb" />
        <circle cx="1418.1405" cy="1131.2573" r="4.0715" fill="#ebebeb" />
        <circle cx="1212.5527" cy="2107.8389" r="4.0715" fill="#ebebeb" />
        <circle cx="1004.9532" cy="2548.5046" r="4.0715" fill="#ebebeb" />
        <circle cx="542.2108" cy="2848.483" r="4.0715" fill="#ebebeb" />
        <circle cx="1137.9508" cy="2621.4479" r="4.0715" fill="#ebebeb" />
        <circle cx="1069.8863" cy="2216.6231" r="4.0715" fill="#ebebeb" />
        <circle cx="971.3976" cy="2790.513" r="4.0715" fill="#ebebeb" />
        <circle cx="610.5272" cy="2684.5615" r="4.0715" fill="#ebebeb" />
        <circle cx="1180.9808" cy="2488.6153" r="4.0715" fill="#ebebeb" />
        <circle cx="620.4562" cy="2878.3312" r="4.0715" fill="#ebebeb" />
        <circle cx="984.1385" cy="2445.6499" r="4.0715" fill="#ebebeb" />
        <circle cx="304.2488" cy="1460.0433" r="4.0715" fill="#ebebeb" />
        <circle cx="81.656" cy="1748.5931" r="4.0715" fill="#ebebeb" />
        <circle cx="563.9019" cy="1631.974" r="4.0715" fill="#ebebeb" />
        <circle cx="23.3797" cy="2236.1989" r="4.0715" fill="#ebebeb" />
        <circle cx="464.693" cy="1725.5792" r="4.0715" fill="#ebebeb" />
        <circle cx="664.9622" cy="1463.1353" r="4.0715" fill="#ebebeb" />
        <circle cx="474.7336" cy="1352.4962" r="4.0715" fill="#ebebeb" />
        <circle cx="309.0011" cy="1863.1351" r="4.0715" fill="#ebebeb" />
        <circle cx="155.8504" cy="1729.1057" r="4.0715" fill="#ebebeb" />
        <circle cx="182.8582" cy="2134.9043" r="4.0715" fill="#ebebeb" />
        <circle cx="398.2854" cy="2634.0661" r="4.0715" fill="#ebebeb" />
        <circle cx="454.2488" cy="2218.0465" r="4.0715" fill="#ebebeb" />
        <circle cx="89.7604" cy="2480.0251" r="4.0715" fill="#ebebeb" />
        <circle cx="915.4219" cy="2189.024" r="4.0715" fill="#ebebeb" />
        <circle cx="590.0369" cy="2212.3523" r="4.0715" fill="#ebebeb" />
        <circle cx="431.8109" cy="2403.7669" r="4.0715" fill="#ebebeb" />
        <circle cx="920.5059" cy="1456.559" r="4.0715" fill="#ebebeb" />
        <circle cx="1522.6552" cy="1682.3229" r="4.0715" fill="#ebebeb" />
        <circle cx="1005.4428" cy="902.9258" r="4.0715" fill="#ebebeb" />
        <circle cx="991.0078" cy="801.9699" r="4.0715" fill="#ebebeb" />
        <circle cx="1446.6547" cy="1497.0481" r="4.0715" fill="#ebebeb" />
        <circle cx="1485.8894" cy="1361.2491" r="4.0715" fill="#ebebeb" />
        <circle cx="734.7136" cy="1375.0548" r="4.0715" fill="#ebebeb" />
        <circle cx="1012.7448" cy="1209.1409" r="4.0715" fill="#ebebeb" />
        <circle cx="804.4165" cy="1062.7337" r="4.0715" fill="#ebebeb" />
        <circle cx="804.954" cy="1411.6706" r="4.0715" fill="#ebebeb" />
        <circle cx="1489.234" cy="1485.6858" r="4.0715" fill="#ebebeb" />
        <circle cx="855.0497" cy="1242.4945" r="4.0715" fill="#ebebeb" />
        <circle cx="1601.0291" cy="1623.5777" r="4.0715" fill="#ebebeb" />
        <circle cx="1182.6282" cy="1717.9678" r="4.0715" fill="#ebebeb" />
        <circle cx="771.3704" cy="1437.737" r="4.0715" fill="#ebebeb" />
        <circle cx="849.8355" cy="1323.7561" r="4.0715" fill="#ebebeb" />
        <circle cx="1104.456" cy="1044.745" r="4.0715" fill="#ebebeb" />
        <circle cx="1377.5811" cy="1239.0268" r="4.0715" fill="#ebebeb" />
        <circle cx="1430.1656" cy="1176.7936" r="4.0715" fill="#ebebeb" />
        <circle cx="1141.1445" cy="1535.1938" r="4.0715" fill="#ebebeb" />
        <circle cx="1217.0601" cy="1247.2483" r="4.0715" fill="#ebebeb" />
        <circle cx="1451.3708" cy="1192.0563" r="4.0715" fill="#ebebeb" />
        <circle cx="1274.3723" cy="1162.6928" r="4.0715" fill="#ebebeb" />
        <circle cx="1051.7062" cy="1442.4225" r="4.0715" fill="#ebebeb" />
        <circle cx="1393.3745" cy="1320.8855" r="4.0715" fill="#ebebeb" />
        <circle cx="773.8734" cy="910.146" r="4.0715" fill="#ebebeb" />
        <circle cx="1006.9223" cy="1284.5654" r="4.0715" fill="#ebebeb" />
        <circle cx="999.0111" cy="1615.7233" r="4.0715" fill="#ebebeb" />
        <circle cx="1216.663" cy="1101.3915" r="4.0715" fill="#ebebeb" />
        <circle cx="2387.7111" cy="1335.0787" r="4.0715" fill="#ebebeb" />
        <circle cx="2349.34" cy="1340.1059" r="4.0715" fill="#ebebeb" />
        <circle cx="2498.4969" cy="1371.4337" r="4.0715" fill="#ebebeb" />
        <circle cx="2548.7376" cy="1702.6731" r="4.0715" fill="#ebebeb" />
        <circle cx="2300.8655" cy="1725.2381" r="4.0715" fill="#ebebeb" />
        <circle cx="2111.9638" cy="1601.9468" r="4.0715" fill="#ebebeb" />
        <circle cx="3086.1988" cy="2306.8719" r="4.0715" fill="#ebebeb" />
        <circle cx="1502.9794" cy="2415.4782" r="4.0715" fill="#ebebeb" />
        <circle cx="1290.8858" cy="2497.5562" r="4.0715" fill="#ebebeb" />
        <circle cx="1691.9209" cy="2543.1295" r="4.0715" fill="#ebebeb" />
        <circle cx="2002.2708" cy="2610.613" r="4.0715" fill="#ebebeb" />
        <circle cx="1585.3756" cy="2902.6291" r="4.0715" fill="#ebebeb" />
        <circle cx="1720.4312" cy="2655.2067" r="4.0715" fill="#ebebeb" />
        <circle cx="1621.6895" cy="2806.833" r="4.0715" fill="#ebebeb" />
        <circle cx="1851.5518" cy="2171.7825" r="4.0715" fill="#ebebeb" />
        <circle cx="1734.0313" cy="1932.3754" r="4.0715" fill="#ebebeb" />
        <circle cx="2059.9865" cy="2264.2937" r="4.0715" fill="#ebebeb" />
        <circle cx="2953.311" cy="2420.7079" r="4.0715" fill="#ebebeb" />
        <circle cx="1880.055" cy="2297.1943" r="4.0715" fill="#ebebeb" />
        <circle cx="2037.4102" cy="2377.9686" r="4.0715" fill="#ebebeb" />
        <circle cx="2116.5237" cy="1916.2641" r="4.0715" fill="#ebebeb" />
        <circle cx="2479.8307" cy="2622.047" r="4.0715" fill="#ebebeb" />
        <circle cx="2500.3219" cy="2691.6155" r="4.0715" fill="#ebebeb" />
        <circle cx="2307.3844" cy="2236.2352" r="4.0715" fill="#ebebeb" />
        <circle cx="2253.7141" cy="2553.987" r="4.0715" fill="#ebebeb" />
        <circle cx="1909.5719" cy="2172.8596" r="4.0715" fill="#ebebeb" />
        <circle cx="2269.5541" cy="2724.8099" r="4.0715" fill="#ebebeb" />
        <circle cx="2376.8442" cy="2750.3117" r="4.0715" fill="#ebebeb" />
        <circle cx="1982.1334" cy="1458.3543" r="4.0715" fill="#ebebeb" />
        <circle cx="1828.5464" cy="1363.5195" r="4.0715" fill="#ebebeb" />
        <circle cx="2107.5073" cy="1355.5907" r="4.0715" fill="#ebebeb" />
        <circle cx="2245.9719" cy="1237.6119" r="4.0715" fill="#ebebeb" />
        <circle cx="1604.1807" cy="1163.0475" r="4.0715" fill="#ebebeb" />
        <circle cx="1263.9217" cy="2033.9224" r="4.0715" fill="#ebebeb" />
        <circle cx="1222.2193" cy="2376.6038" r="4.0715" fill="#ebebeb" />
        <circle cx="245.8111" cy="2044.2657" r="4.0715" fill="#ebebeb" />
        <circle cx="1327.1046" cy="1962.0433" r="4.0715" fill="#ebebeb" />
        <circle cx="1766.048" cy="1538.2493" r="4.0715" fill="#ebebeb" />
        <circle cx="1602.5693" cy="1760.62" r="4.0715" fill="#ebebeb" />
      </g>
      <g id="stars-labels">
        <text x="2029.5917" y="2147.57731875" font-size="58.0" font-family="Inter, sans-serif" font-weight="700" font-style="normal" fill="#c7c7c7" fill-opacity="1.0">Alcyone</text>
        <text x="2058.9056" y="1631.093178125" font-size="58.0" font-family="Inter, sans-serif" font-weight="700" font-style="normal" fill="#c7c7c7" fill-opacity="1.0">Maia</text>
        <text x="2424.4253999999996" y="1621.9977125" font-size="58.0" font-family="Inter, sans-serif" font-weight="700" font-style="normal" fill="#c7c7c7" fill-opacity="1.0">Electra</text>
        <text x="1796.8198" y="2490.8587125000004" font-size="58.0" font-family="Inter, sans-serif" font-weight="700" font-style="normal" fill="#c7c7c7" fill-opacity="1.0">Atlas</text>
        <text x="2325.17" y="2011.99665625" font-size="58.0" font-family="Inter, sans-serif" font-weight="700" font-style="normal" fill="#c7c7c7" fill-opacity="1.0">Merope</text>
        <text x="2011.0338" y="1386.8205" font-size="58.0" font-family="Inter, sans-serif" font-weight="700" font-style="normal" fill="#c7c7c7" fill-opacity="1.0" text-anchor="end">Taygeta</text>
        <text x="2272.1407999999997" y="1472.34051875" font-size="58.0" font-family="Inter, sans-serif" font-weight="700" font-style="normal" fill="#c7c7c7" fill-opacity="1.0">Celaeno</text>
        <text x="1708.3389000000002" y="2382.0387" font-size="58.0" font-family="Inter, sans-serif" font-weight="700" font-style="normal" fill="#c7c7c7" fill-opacity="1.0">Pleione</text>
        <text x="1873.78" y="1507.7414562499998" font-size="58.0" font-family="Inter, sans-serif" font-weight="700" font-style="normal" fill="#c7c7c7" fill-opacity="1.0">Asterope</text>
      </g>
    </g>
  </svg>
  <g transform="translate(11.2706, 11.2707)">
    <polyline points="1460.955,3957.9764 4101.6353,1742.2261 2635.0139,-5.6354 -5.6353,2210.1307 1460.955,3957.9764" fill="none" stroke="#000" stroke-width="8.0" stroke-opacity="1.0" stroke-linecap="square" />
  </g>
  <g transform="translate(1011.1847, 3974.8825)">
    <line x1="290.59375" y1="24" x2="290.59375" y2="168.0" fill="none" stroke="#c5c5c5" stroke-width="1.0" stroke-opacity="1.0" stroke-linecap="square" />
    <line x1="605.8125" y1="24" x2="605.8125" y2="168.0" fill="none" stroke="#c5c5c5" stroke-width="1.0" stroke-opacity="1.0" stroke-linecap="square" />
    <line x1="939.8125" y1="24" x2="939.8125" y2="168.0" fill="none" stroke="#c5c5c5" stroke-width="1.0" stroke-opacity="1.0" stroke-linecap="square" />
    <line x1="1414.5" y1="24" x2="1414.5" y2="168.0" fill="none" stroke="#c5c5c5" stroke-width="1.0" stroke-opacity="1.0" stroke-linecap="square" />
    <line x1="0" y1="96.0" x2="2096.171875" y2="96.0" fill="none" stroke="#c5c5c5" stroke-width="1.0" stroke-opacity="1.0" stroke-linecap="square" />
    <rect x="0" y="24" height="144.0" width="2096.171875" fill="none" stroke="#c5c5c5" stroke-width="1.0" stroke-opacity="1.0" stroke-linecap="square" />
    <text x="28" y="71.63636363636364" font-size="32.0" font-family="Inter, Inter" font-weight="700" font-style="normal" fill="#000" fill-opacity="1.0">Target (Alt/Az)</text>
    <text x="318.59375" y="71.63636363636364" font-size="32.0" font-family="Inter, Inter" font-weight="700" font-style="normal" fill="#000" fill-opacity="1.0">Target (RA/DEC)</text>
    <text x="633.8125" y="71.63636363636364" font-size="32.0" font-family="Inter, Inter" font-weight="700" font-style="normal" fill="#000" fill-opacity="1.0">Observer Lat, Lon</text>
    <text x="967.8125" y="71.63636363636364" font-size="32.0" font-family="Inter, Inter" font-weight="700" font-style="normal" fill="#000" fill-opacity="1.0">Observer Date/Time</text>
    <text x="1442.5" y="71.63636363636364" font-size="32.0" font-family="Inter, Inter" font-weight="700" font-style="normal" fill="#000" fill-opacity="1.0">Optic - Camera</text>
    <text x="28" y="143.63636363636363" font-size="32.0" font-family="Inter, Inter" font-weight="400" font-style="normal" fill="#000" fill-opacity="1.0">75° / 123° (SE)</text>
    <text x="318.59375" y="143.63636363636363" font-size="32.0" font-family="Inter, Inter" font-weight="400" font-style="normal" fill="#000" fill-opacity="1.0">3.78h / 24.12°</text>
    <text x="633.8125" y="143.63636363636363" font-size="32.0" font-family="Inter, Inter" font-weight="400" font-style="normal" fill="#000" fill-opacity="1.0">32.97°, -117.04°</text>
    <text x="967.8125" y="143.63636363636363" font-size="32.0" font-family="Inter, Inter" font-weight="400" font-style="normal" fill="#000" fill-opacity="1.0">12/16/2023 @ 21:00:00 PST</text>
    <text x="1442.5" y="143.63636363636363" font-size="32.0" font-family="Inter, Inter" font-weight="400" font-style="normal" fill="#000" fill-opacity="1.0">23.6x15.6 w/ 430mm lens = 3.14° x 2.08°</text>
  </g>
</svg>